<?xml version="1.0" encoding="utf-8" standalone="no"?>
<!DOCTYPE svg PUBLIC "-//W3C//DTD SVG 1.1//EN"
  "http://www.w3.org/Graphics/SVG/1.1/DTD/svg11.dtd">
<svg xmlns:xlink="http://www.w3.org/1999/xlink" width="524.154688pt" height="436.71625pt" viewBox="0 0 524.154688 436.71625" xmlns="http://www.w3.org/2000/svg" version="1.1">
 <metadata>
  <rdf:RDF xmlns:dc="http://purl.org/dc/elements/1.1/" xmlns:cc="http://creativecommons.org/ns#" xmlns:rdf="http://www.w3.org/1999/02/22-rdf-syntax-ns#">
   <cc:Work>
    <dc:type rdf:resource="http://purl.org/dc/dcmitype/StillImage"/>
    <dc:date>2024-01-22T15:46:24.171034</dc:date>
    <dc:format>image/svg+xml</dc:format>
    <dc:creator>
     <cc:Agent>
      <dc:title>Matplotlib v3.5.0, https://matplotlib.org/</dc:title>
     </cc:Agent>
    </dc:creator>
   </cc:Work>
  </rdf:RDF>
 </metadata>
 <defs>
  <style type="text/css">*{stroke-linejoin: round; stroke-linecap: butt}</style>
 </defs>
 <g id="figure_1">
  <g id="patch_1">
   <path d="M 0 436.71625 
L 524.154688 436.71625 
L 524.154688 0 
L 0 0 
z
" style="fill: #ffffff"/>
  </g>
  <g id="axes_1">
   <g id="patch_2">
    <path d="M 102.234688 352.8 
L 516.954687 352.8 
L 516.954687 7.2 
L 102.234688 7.2 
z
" style="fill: #ffffff"/>
   </g>
   <g id="PolyCollection_1">
    <defs>
     <path id="m7f95874492" d="M 133.055858 -99.625341 
L 131.292875 -99.625341 
L 131.192919 -100.758647 
L 131.087011 -101.891952 
L 130.973685 -103.025258 
L 130.850837 -104.158564 
L 130.715702 -105.29187 
L 130.564887 -106.425176 
L 130.39444 -107.558481 
L 130.199978 -108.691787 
L 129.976862 -109.825093 
L 129.72042 -110.958399 
L 129.426221 -112.091704 
L 129.090391 -113.22501 
L 128.709959 -114.358316 
L 128.283224 -115.491622 
L 127.810125 -116.624928 
L 127.292572 -117.758233 
L 126.734728 -118.891539 
L 126.14319 -120.024845 
L 125.52704 -121.158151 
L 124.897745 -122.291456 
L 124.268869 -123.424762 
L 123.655615 -124.558068 
L 123.074189 -125.691374 
L 122.541036 -126.82468 
L 122.071987 -127.957985 
L 121.681397 -129.091291 
L 121.381326 -130.224597 
L 121.180857 -131.357903 
L 121.085597 -132.491209 
L 121.09742 -133.624514 
L 121.214468 -134.75782 
L 121.431398 -135.891126 
L 121.739855 -137.024432 
L 122.129112 -138.157737 
L 122.586792 -139.291043 
L 123.099627 -140.424349 
L 123.654145 -141.557655 
L 124.237266 -142.690961 
L 124.83674 -143.824266 
L 125.441434 -144.957572 
L 126.041473 -146.090878 
L 126.62826 -147.224184 
L 127.194419 -148.357489 
L 127.733709 -149.490795 
L 128.240928 -150.624101 
L 128.711853 -151.757407 
L 129.143209 -152.890713 
L 129.53268 -154.024018 
L 129.878931 -155.157324 
L 130.181639 -156.29063 
L 130.441493 -157.423936 
L 130.66016 -158.557241 
L 130.840197 -159.690547 
L 130.984921 -160.823853 
L 131.098232 -161.957159 
L 131.184406 -163.090465 
L 131.247889 -164.22377 
L 131.293087 -165.357076 
L 131.324193 -166.490382 
L 131.345035 -167.623688 
L 131.358978 -168.756993 
L 131.368857 -169.890299 
L 131.376957 -171.023605 
L 131.385022 -172.156911 
L 131.394293 -173.290217 
L 131.405564 -174.423522 
L 131.419247 -175.556828 
L 131.435447 -176.690134 
L 131.454029 -177.82344 
L 131.474684 -178.956745 
L 131.49698 -180.090051 
L 131.520415 -181.223357 
L 131.544442 -182.356663 
L 131.568507 -183.489969 
L 131.59206 -184.623274 
L 131.614585 -185.75658 
L 131.635615 -186.889886 
L 131.654753 -188.023192 
L 131.671699 -189.156497 
L 131.686259 -190.289803 
L 131.698366 -191.423109 
L 131.70808 -192.556415 
L 131.71558 -193.689721 
L 131.721147 -194.823026 
L 131.725131 -195.956332 
L 131.727924 -197.089638 
L 131.729921 -198.222944 
L 131.731501 -199.356249 
L 131.733007 -200.489555 
L 131.734751 -201.622861 
L 131.737014 -202.756167 
L 131.740073 -203.889473 
L 131.74421 -205.022778 
L 131.74973 -206.156084 
L 131.756956 -207.28939 
L 131.766219 -208.422696 
L 131.777827 -209.556002 
L 131.792028 -210.689307 
L 131.80897 -211.822613 
L 132.539763 -211.822613 
L 132.539763 -211.822613 
L 132.556706 -210.689307 
L 132.570907 -209.556002 
L 132.582514 -208.422696 
L 132.591777 -207.28939 
L 132.599003 -206.156084 
L 132.604523 -205.022778 
L 132.608661 -203.889473 
L 132.611719 -202.756167 
L 132.613983 -201.622861 
L 132.615726 -200.489555 
L 132.617233 -199.356249 
L 132.618812 -198.222944 
L 132.62081 -197.089638 
L 132.623602 -195.956332 
L 132.627586 -194.823026 
L 132.633153 -193.689721 
L 132.640653 -192.556415 
L 132.650368 -191.423109 
L 132.662475 -190.289803 
L 132.677035 -189.156497 
L 132.69398 -188.023192 
L 132.713119 -186.889886 
L 132.734148 -185.75658 
L 132.756673 -184.623274 
L 132.780227 -183.489969 
L 132.804291 -182.356663 
L 132.828319 -181.223357 
L 132.851753 -180.090051 
L 132.87405 -178.956745 
L 132.894704 -177.82344 
L 132.913286 -176.690134 
L 132.929486 -175.556828 
L 132.943169 -174.423522 
L 132.95444 -173.290217 
L 132.963711 -172.156911 
L 132.971776 -171.023605 
L 132.979876 -169.890299 
L 132.989755 -168.756993 
L 133.003698 -167.623688 
L 133.02454 -166.490382 
L 133.055646 -165.357076 
L 133.100845 -164.22377 
L 133.164327 -163.090465 
L 133.250501 -161.957159 
L 133.363812 -160.823853 
L 133.508536 -159.690547 
L 133.688574 -158.557241 
L 133.90724 -157.423936 
L 134.167094 -156.29063 
L 134.469802 -155.157324 
L 134.816053 -154.024018 
L 135.205524 -152.890713 
L 135.63688 -151.757407 
L 136.107805 -150.624101 
L 136.615024 -149.490795 
L 137.154314 -148.357489 
L 137.720474 -147.224184 
L 138.30726 -146.090878 
L 138.907299 -144.957572 
L 139.511993 -143.824266 
L 140.111468 -142.690961 
L 140.694588 -141.557655 
L 141.249107 -140.424349 
L 141.761941 -139.291043 
L 142.219621 -138.157737 
L 142.608878 -137.024432 
L 142.917336 -135.891126 
L 143.134265 -134.75782 
L 143.251313 -133.624514 
L 143.263137 -132.491209 
L 143.167876 -131.357903 
L 142.967407 -130.224597 
L 142.667336 -129.091291 
L 142.276746 -127.957985 
L 141.807698 -126.82468 
L 141.274544 -125.691374 
L 140.693118 -124.558068 
L 140.079864 -123.424762 
L 139.450989 -122.291456 
L 138.821693 -121.158151 
L 138.205543 -120.024845 
L 137.614005 -118.891539 
L 137.056161 -117.758233 
L 136.538608 -116.624928 
L 136.065509 -115.491622 
L 135.638775 -114.358316 
L 135.258342 -113.22501 
L 134.922512 -112.091704 
L 134.628313 -110.958399 
L 134.371871 -109.825093 
L 134.148755 -108.691787 
L 133.954293 -107.558481 
L 133.783847 -106.425176 
L 133.633031 -105.29187 
L 133.497897 -104.158564 
L 133.375048 -103.025258 
L 133.261722 -101.891952 
L 133.155814 -100.758647 
L 133.055858 -99.625341 
z
" style="stroke: #000000"/>
    </defs>
    <g clip-path="url(#pe9fc2f74f5)">
     <use xlink:href="#m7f95874492" x="0" y="436.71625" style="fill: #d43f3a; stroke: #000000"/>
    </g>
   </g>
   <g id="PolyCollection_2">
    <defs>
     <path id="m28d3148cdc" d="M 177.541545 -225.553799 
L 175.517349 -225.553799 
L 175.471702 -226.311593 
L 175.431111 -227.069387 
L 175.394458 -227.827181 
L 175.360023 -228.584975 
L 175.325508 -229.342769 
L 175.288085 -230.100563 
L 175.244481 -230.858357 
L 175.191064 -231.616151 
L 175.123963 -232.373945 
L 175.039183 -233.131739 
L 174.932731 -233.889534 
L 174.80074 -234.647328 
L 174.639592 -235.405122 
L 174.446038 -236.162916 
L 174.217307 -236.92071 
L 173.951224 -237.678504 
L 173.646313 -238.436298 
L 173.301906 -239.194092 
L 172.918241 -239.951886 
L 172.49656 -240.70968 
L 172.039192 -241.467474 
L 171.549626 -242.225268 
L 171.032551 -242.983062 
L 170.493865 -243.740857 
L 169.940635 -244.498651 
L 169.381011 -245.256445 
L 168.824058 -246.014239 
L 168.279542 -246.772033 
L 167.757624 -247.529827 
L 167.268516 -248.287621 
L 166.822072 -249.045415 
L 166.427356 -249.803209 
L 166.092215 -250.561003 
L 165.822865 -251.318797 
L 165.623549 -252.076591 
L 165.496277 -252.834385 
L 165.440677 -253.59218 
L 165.453981 -254.349974 
L 165.53115 -255.107768 
L 165.665124 -255.865562 
L 165.847209 -256.623356 
L 166.067544 -257.38115 
L 166.315641 -258.138944 
L 166.580953 -258.896738 
L 166.85343 -259.654532 
L 167.124031 -260.412326 
L 167.38516 -261.17012 
L 167.631005 -261.927914 
L 167.857756 -262.685708 
L 168.063702 -263.443503 
L 168.2492 -264.201297 
L 168.416526 -264.959091 
L 168.569612 -265.716885 
L 168.713702 -266.474679 
L 168.854924 -267.232473 
L 168.999828 -267.990267 
L 169.154904 -268.748061 
L 169.326117 -269.505855 
L 169.518477 -270.263649 
L 169.735695 -271.021443 
L 169.97993 -271.779237 
L 170.251644 -272.537031 
L 170.549592 -273.294826 
L 170.870925 -274.05262 
L 171.211402 -274.810414 
L 171.565692 -275.568208 
L 171.92774 -276.326002 
L 172.291152 -277.083796 
L 172.649581 -277.84159 
L 172.997082 -278.599384 
L 173.328393 -279.357178 
L 173.639157 -280.114972 
L 173.926048 -280.872766 
L 174.186819 -281.63056 
L 174.420271 -282.388354 
L 174.626165 -283.146149 
L 174.805086 -283.903943 
L 174.958282 -284.661737 
L 175.087499 -285.419531 
L 175.194818 -286.177325 
L 175.28251 -286.935119 
L 175.352923 -287.692913 
L 175.408394 -288.450707 
L 175.451186 -289.208501 
L 175.48346 -289.966295 
L 175.507254 -290.724089 
L 175.524493 -291.481883 
L 175.536985 -292.239677 
L 175.546437 -292.997472 
L 175.554454 -293.755266 
L 175.56253 -294.51306 
L 175.572041 -295.270854 
L 175.584216 -296.028648 
L 175.600104 -296.786442 
L 175.620546 -297.544236 
L 175.646138 -298.30203 
L 175.677208 -299.059824 
L 175.713797 -299.817618 
L 175.755664 -300.575412 
L 177.30323 -300.575412 
L 177.30323 -300.575412 
L 177.345096 -299.817618 
L 177.381686 -299.059824 
L 177.412756 -298.30203 
L 177.438348 -297.544236 
L 177.45879 -296.786442 
L 177.474678 -296.028648 
L 177.486852 -295.270854 
L 177.496364 -294.51306 
L 177.50444 -293.755266 
L 177.512456 -292.997472 
L 177.521909 -292.239677 
L 177.534401 -291.481883 
L 177.551639 -290.724089 
L 177.575434 -289.966295 
L 177.607707 -289.208501 
L 177.6505 -288.450707 
L 177.70597 -287.692913 
L 177.776384 -286.935119 
L 177.864076 -286.177325 
L 177.971394 -285.419531 
L 178.100612 -284.661737 
L 178.253808 -283.903943 
L 178.432729 -283.146149 
L 178.638623 -282.388354 
L 178.872075 -281.63056 
L 179.132846 -280.872766 
L 179.419737 -280.114972 
L 179.730501 -279.357178 
L 180.061812 -278.599384 
L 180.409312 -277.84159 
L 180.767742 -277.083796 
L 181.131154 -276.326002 
L 181.493202 -275.568208 
L 181.847492 -274.810414 
L 182.187969 -274.05262 
L 182.509302 -273.294826 
L 182.80725 -272.537031 
L 183.078964 -271.779237 
L 183.323198 -271.021443 
L 183.540417 -270.263649 
L 183.732777 -269.505855 
L 183.903989 -268.748061 
L 184.059066 -267.990267 
L 184.20397 -267.232473 
L 184.345192 -266.474679 
L 184.489281 -265.716885 
L 184.642368 -264.959091 
L 184.809694 -264.201297 
L 184.995192 -263.443503 
L 185.201138 -262.685708 
L 185.427889 -261.927914 
L 185.673734 -261.17012 
L 185.934863 -260.412326 
L 186.205464 -259.654532 
L 186.477941 -258.896738 
L 186.743253 -258.138944 
L 186.99135 -257.38115 
L 187.211684 -256.623356 
L 187.393769 -255.865562 
L 187.527744 -255.107768 
L 187.604912 -254.349974 
L 187.618217 -253.59218 
L 187.562617 -252.834385 
L 187.435344 -252.076591 
L 187.236029 -251.318797 
L 186.966679 -250.561003 
L 186.631537 -249.803209 
L 186.236822 -249.045415 
L 185.790377 -248.287621 
L 185.30127 -247.529827 
L 184.779352 -246.772033 
L 184.234835 -246.014239 
L 183.677883 -245.256445 
L 183.118258 -244.498651 
L 182.565029 -243.740857 
L 182.026342 -242.983062 
L 181.509267 -242.225268 
L 181.019702 -241.467474 
L 180.562334 -240.70968 
L 180.140652 -239.951886 
L 179.756987 -239.194092 
L 179.41258 -238.436298 
L 179.10767 -237.678504 
L 178.841587 -236.92071 
L 178.612856 -236.162916 
L 178.419301 -235.405122 
L 178.258154 -234.647328 
L 178.126163 -233.889534 
L 178.019711 -233.131739 
L 177.934931 -232.373945 
L 177.86783 -231.616151 
L 177.814413 -230.858357 
L 177.770808 -230.100563 
L 177.733386 -229.342769 
L 177.69887 -228.584975 
L 177.664435 -227.827181 
L 177.627783 -227.069387 
L 177.587192 -226.311593 
L 177.541545 -225.553799 
z
" style="stroke: #000000"/>
    </defs>
    <g clip-path="url(#pe9fc2f74f5)">
     <use xlink:href="#m28d3148cdc" x="0" y="436.71625" style="fill: #d43f3a; stroke: #000000"/>
    </g>
   </g>
   <g id="PolyCollection_3">
    <defs>
     <path id="m362d02569a" d="M 221.250578 -255.764535 
L 220.518476 -255.764535 
L 220.520674 -256.135924 
L 220.529479 -256.507313 
L 220.543876 -256.878702 
L 220.562374 -257.25009 
L 220.583104 -257.621479 
L 220.603939 -257.992868 
L 220.622624 -258.364257 
L 220.636907 -258.735646 
L 220.644649 -259.107035 
L 220.643912 -259.478424 
L 220.633019 -259.849813 
L 220.610592 -260.221202 
L 220.57556 -260.59259 
L 220.527162 -260.963979 
L 220.464931 -261.335368 
L 220.388681 -261.706757 
L 220.298489 -262.078146 
L 220.19468 -262.449535 
L 220.077806 -262.820924 
L 219.948617 -263.192313 
L 219.808011 -263.563702 
L 219.656952 -263.93509 
L 219.496365 -264.306479 
L 219.326976 -264.677868 
L 219.149143 -265.049257 
L 218.962679 -265.420646 
L 218.766696 -265.792035 
L 218.559538 -266.163424 
L 218.338817 -266.534813 
L 218.101607 -266.906202 
L 217.844801 -267.27759 
L 217.565614 -267.648979 
L 217.262189 -268.020368 
L 216.934215 -268.391757 
L 216.583449 -268.763146 
L 216.214041 -269.134535 
L 215.832553 -269.505924 
L 215.447626 -269.877313 
L 215.069276 -270.248701 
L 214.70789 -270.62009 
L 214.373038 -270.991479 
L 214.072247 -271.362868 
L 213.809937 -271.734257 
L 213.586667 -272.105646 
L 213.39883 -272.477035 
L 213.238869 -272.848424 
L 213.095999 -273.219813 
L 212.957375 -273.591201 
L 212.809568 -273.96259 
L 212.640186 -274.333979 
L 212.43944 -274.705368 
L 212.2015 -275.076757 
L 211.925472 -275.448146 
L 211.6159 -275.819535 
L 211.282738 -276.190924 
L 210.940777 -276.562313 
L 210.608599 -276.933701 
L 210.30714 -277.30509 
L 210.057995 -277.676479 
L 209.881645 -278.047868 
L 209.795757 -278.419257 
L 209.81373 -278.790646 
L 209.943619 -279.162035 
L 210.187532 -279.533424 
L 210.541554 -279.904813 
L 210.996162 -280.276201 
L 211.537086 -280.64759 
L 212.146495 -281.018979 
L 212.804378 -281.390368 
L 213.489969 -281.761757 
L 214.183094 -282.133146 
L 214.865326 -282.504535 
L 215.520868 -282.875924 
L 216.137143 -283.247313 
L 216.705071 -283.618701 
L 217.219058 -283.99009 
L 217.676757 -284.361479 
L 218.078636 -284.732868 
L 218.427429 -285.104257 
L 218.727515 -285.475646 
L 218.984298 -285.847035 
L 219.203614 -286.218424 
L 219.391226 -286.589813 
L 219.552423 -286.961201 
L 219.691743 -287.33259 
L 219.812839 -287.703979 
L 219.91846 -288.075368 
L 220.010557 -288.446757 
L 220.090459 -288.818146 
L 220.1591 -289.189535 
L 220.217256 -289.560924 
L 220.265752 -289.932312 
L 220.305612 -290.303701 
L 220.338136 -290.67509 
L 220.364896 -291.046479 
L 220.387657 -291.417868 
L 220.408251 -291.789257 
L 220.428414 -292.160646 
L 220.44963 -292.532035 
L 221.319424 -292.532035 
L 221.319424 -292.532035 
L 221.340641 -292.160646 
L 221.360803 -291.789257 
L 221.381397 -291.417868 
L 221.404159 -291.046479 
L 221.430918 -290.67509 
L 221.463442 -290.303701 
L 221.503302 -289.932312 
L 221.551798 -289.560924 
L 221.609954 -289.189535 
L 221.678595 -288.818146 
L 221.758497 -288.446757 
L 221.850594 -288.075368 
L 221.956215 -287.703979 
L 222.077311 -287.33259 
L 222.216631 -286.961201 
L 222.377828 -286.589813 
L 222.565441 -286.218424 
L 222.784756 -285.847035 
L 223.041539 -285.475646 
L 223.341625 -285.104257 
L 223.690418 -284.732868 
L 224.092297 -284.361479 
L 224.549996 -283.99009 
L 225.063983 -283.618701 
L 225.631911 -283.247313 
L 226.248187 -282.875924 
L 226.903729 -282.504535 
L 227.58596 -282.133146 
L 228.279085 -281.761757 
L 228.964676 -281.390368 
L 229.622559 -281.018979 
L 230.231968 -280.64759 
L 230.772892 -280.276201 
L 231.2275 -279.904813 
L 231.581522 -279.533424 
L 231.825435 -279.162035 
L 231.955324 -278.790646 
L 231.973297 -278.419257 
L 231.88741 -278.047868 
L 231.71106 -277.676479 
L 231.461914 -277.30509 
L 231.160455 -276.933701 
L 230.828278 -276.562313 
L 230.486316 -276.190924 
L 230.153154 -275.819535 
L 229.843582 -275.448146 
L 229.567554 -275.076757 
L 229.329614 -274.705368 
L 229.128868 -274.333979 
L 228.959486 -273.96259 
L 228.81168 -273.591201 
L 228.673055 -273.219813 
L 228.530185 -272.848424 
L 228.370224 -272.477035 
L 228.182388 -272.105646 
L 227.959117 -271.734257 
L 227.696807 -271.362868 
L 227.396016 -270.991479 
L 227.061164 -270.62009 
L 226.699778 -270.248701 
L 226.321428 -269.877313 
L 225.936501 -269.505924 
L 225.555013 -269.134535 
L 225.185605 -268.763146 
L 224.834839 -268.391757 
L 224.506865 -268.020368 
L 224.203441 -267.648979 
L 223.924254 -267.27759 
L 223.667447 -266.906202 
L 223.430237 -266.534813 
L 223.209516 -266.163424 
L 223.002358 -265.792035 
L 222.806375 -265.420646 
L 222.619911 -265.049257 
L 222.442079 -264.677868 
L 222.272689 -264.306479 
L 222.112102 -263.93509 
L 221.961043 -263.563702 
L 221.820437 -263.192313 
L 221.691248 -262.820924 
L 221.574374 -262.449535 
L 221.470565 -262.078146 
L 221.380373 -261.706757 
L 221.304123 -261.335368 
L 221.241892 -260.963979 
L 221.193494 -260.59259 
L 221.158462 -260.221202 
L 221.136035 -259.849813 
L 221.125142 -259.478424 
L 221.124405 -259.107035 
L 221.132147 -258.735646 
L 221.14643 -258.364257 
L 221.165115 -257.992868 
L 221.18595 -257.621479 
L 221.20668 -257.25009 
L 221.225179 -256.878702 
L 221.239575 -256.507313 
L 221.24838 -256.135924 
L 221.250578 -255.764535 
z
" style="stroke: #000000"/>
    </defs>
    <g clip-path="url(#pe9fc2f74f5)">
     <use xlink:href="#m362d02569a" x="0" y="436.71625" style="fill: #d43f3a; stroke: #000000"/>
    </g>
   </g>
   <g id="PolyCollection_4">
    <defs>
     <path id="mf8b6c72046" d="M 265.552377 -213.317362 
L 264.926837 -213.317362 
L 264.931248 -214.338198 
L 264.944111 -215.359035 
L 264.964369 -216.379872 
L 264.990418 -217.400708 
L 265.02032 -218.421545 
L 265.052039 -219.442382 
L 265.083663 -220.463218 
L 265.113586 -221.484055 
L 265.14062 -222.504892 
L 265.164032 -223.525728 
L 265.183523 -224.546565 
L 265.199153 -225.567402 
L 265.211244 -226.588238 
L 265.220278 -227.609075 
L 265.226804 -228.629912 
L 265.231364 -229.650748 
L 265.234448 -230.671585 
L 265.236467 -231.692422 
L 265.237747 -232.713258 
L 265.23853 -233.734095 
L 265.238988 -234.754932 
L 265.239232 -235.775768 
L 265.239328 -236.796605 
L 265.239298 -237.817442 
L 265.239123 -238.838278 
L 265.238735 -239.859115 
L 265.238 -240.879952 
L 265.236684 -241.900788 
L 265.234421 -242.921625 
L 265.230648 -243.942462 
L 265.224546 -244.963298 
L 265.214971 -245.984135 
L 265.200389 -247.004972 
L 265.178835 -248.025808 
L 265.147914 -249.046645 
L 265.104857 -250.067482 
L 265.046652 -251.088318 
L 264.970246 -252.109155 
L 264.87281 -253.129992 
L 264.752025 -254.150828 
L 264.606348 -255.171665 
L 264.435185 -256.192502 
L 264.238919 -257.213338 
L 264.018764 -258.234175 
L 263.776429 -259.255012 
L 263.513644 -260.275848 
L 263.231626 -261.296685 
L 262.930596 -262.317522 
L 262.609452 -263.338358 
L 262.26569 -264.359195 
L 261.895627 -265.380032 
L 261.494896 -266.400868 
L 261.059172 -267.421705 
L 260.585019 -268.442542 
L 260.070757 -269.463378 
L 259.517226 -270.484215 
L 258.928392 -271.505052 
L 258.311711 -272.525888 
L 257.678242 -273.546725 
L 257.04249 -274.567562 
L 256.421973 -275.588398 
L 255.836514 -276.609235 
L 255.307274 -277.630072 
L 254.855548 -278.650908 
L 254.501379 -279.671745 
L 254.262089 -280.692582 
L 254.150837 -281.713418 
L 254.175374 -282.734255 
L 254.337137 -283.755092 
L 254.630833 -284.775928 
L 255.044603 -285.796765 
L 255.56078 -286.817602 
L 256.157202 -287.838438 
L 256.808918 -288.859275 
L 257.49012 -289.880112 
L 258.176043 -290.900948 
L 258.844653 -291.921785 
L 259.477904 -292.942622 
L 260.062495 -293.963458 
L 260.590069 -294.984295 
L 261.056932 -296.005132 
L 261.463385 -297.025968 
L 261.812844 -298.046805 
L 262.110885 -299.067642 
L 262.364352 -300.088478 
L 262.580621 -301.109315 
L 262.767047 -302.130152 
L 262.930585 -303.150988 
L 263.077546 -304.171825 
L 263.213442 -305.192662 
L 263.342872 -306.213498 
L 263.469434 -307.234335 
L 263.595677 -308.255172 
L 263.723083 -309.276008 
L 263.852119 -310.296845 
L 263.98236 -311.317682 
L 264.112667 -312.338518 
L 264.241412 -313.359355 
L 264.366714 -314.380192 
L 266.112501 -314.380192 
L 266.112501 -314.380192 
L 266.237803 -313.359355 
L 266.366548 -312.338518 
L 266.496855 -311.317682 
L 266.627095 -310.296845 
L 266.756132 -309.276008 
L 266.883537 -308.255172 
L 267.00978 -307.234335 
L 267.136343 -306.213498 
L 267.265772 -305.192662 
L 267.401668 -304.171825 
L 267.54863 -303.150988 
L 267.712168 -302.130152 
L 267.898594 -301.109315 
L 268.114863 -300.088478 
L 268.36833 -299.067642 
L 268.66637 -298.046805 
L 269.01583 -297.025968 
L 269.422283 -296.005132 
L 269.889145 -294.984295 
L 270.41672 -293.963458 
L 271.00131 -292.942622 
L 271.634562 -291.921785 
L 272.303171 -290.900948 
L 272.989095 -289.880112 
L 273.670296 -288.859275 
L 274.322013 -287.838438 
L 274.918434 -286.817602 
L 275.434612 -285.796765 
L 275.848381 -284.775928 
L 276.142078 -283.755092 
L 276.30384 -282.734255 
L 276.328377 -281.713418 
L 276.217126 -280.692582 
L 275.977835 -279.671745 
L 275.623667 -278.650908 
L 275.17194 -277.630072 
L 274.6427 -276.609235 
L 274.057241 -275.588398 
L 273.436724 -274.567562 
L 272.800973 -273.546725 
L 272.167503 -272.525888 
L 271.550822 -271.505052 
L 270.961988 -270.484215 
L 270.408458 -269.463378 
L 269.894195 -268.442542 
L 269.420043 -267.421705 
L 268.984318 -266.400868 
L 268.583587 -265.380032 
L 268.213524 -264.359195 
L 267.869763 -263.338358 
L 267.548618 -262.317522 
L 267.247589 -261.296685 
L 266.965571 -260.275848 
L 266.702786 -259.255012 
L 266.46045 -258.234175 
L 266.240296 -257.213338 
L 266.04403 -256.192502 
L 265.872866 -255.171665 
L 265.72719 -254.150828 
L 265.606405 -253.129992 
L 265.508968 -252.109155 
L 265.432562 -251.088318 
L 265.374357 -250.067482 
L 265.3313 -249.046645 
L 265.30038 -248.025808 
L 265.278826 -247.004972 
L 265.264243 -245.984135 
L 265.254668 -244.963298 
L 265.248567 -243.942462 
L 265.244794 -242.921625 
L 265.24253 -241.900788 
L 265.241215 -240.879952 
L 265.240479 -239.859115 
L 265.240092 -238.838278 
L 265.239917 -237.817442 
L 265.239887 -236.796605 
L 265.239982 -235.775768 
L 265.240227 -234.754932 
L 265.240684 -233.734095 
L 265.241467 -232.713258 
L 265.242747 -231.692422 
L 265.244767 -230.671585 
L 265.247851 -229.650748 
L 265.252411 -228.629912 
L 265.258936 -227.609075 
L 265.26797 -226.588238 
L 265.280062 -225.567402 
L 265.295692 -224.546565 
L 265.315182 -223.525728 
L 265.338595 -222.504892 
L 265.365628 -221.484055 
L 265.395552 -220.463218 
L 265.427176 -219.442382 
L 265.458895 -218.421545 
L 265.488797 -217.400708 
L 265.514846 -216.379872 
L 265.535103 -215.359035 
L 265.547966 -214.338198 
L 265.552377 -213.317362 
z
" style="stroke: #000000"/>
    </defs>
    <g clip-path="url(#pe9fc2f74f5)">
     <use xlink:href="#mf8b6c72046" x="0" y="436.71625" style="fill: #d43f3a; stroke: #000000"/>
    </g>
   </g>
   <g id="PolyCollection_5">
    <defs>
     <path id="m8b81710282" d="M 311.056111 -308.662211 
L 308.133264 -308.662211 
L 307.829741 -308.778811 
L 307.479869 -308.895411 
L 307.082267 -309.012011 
L 306.637513 -309.128611 
L 306.1485 -309.245212 
L 305.620605 -309.361812 
L 305.061612 -309.478412 
L 304.481349 -309.595012 
L 303.89106 -309.711612 
L 303.302558 -309.828212 
L 302.727266 -309.944812 
L 302.175277 -310.061413 
L 301.65458 -310.178013 
L 301.17058 -310.294613 
L 300.72602 -310.411213 
L 300.321318 -310.527813 
L 299.955303 -310.644413 
L 299.626229 -310.761013 
L 299.332907 -310.877614 
L 299.075765 -310.994214 
L 298.857635 -311.110814 
L 298.684126 -311.227414 
L 298.56348 -311.344014 
L 298.505917 -311.460614 
L 298.522524 -311.577214 
L 298.623852 -311.693815 
L 298.818405 -311.810415 
L 299.111244 -311.927015 
L 299.50289 -312.043615 
L 299.988691 -312.160215 
L 300.558734 -312.276815 
L 301.198315 -312.393415 
L 301.88891 -312.510016 
L 302.609506 -312.626616 
L 303.338147 -312.743216 
L 304.053503 -312.859816 
L 304.736296 -312.976416 
L 305.37044 -313.093016 
L 305.943815 -313.209616 
L 306.448635 -313.326217 
L 306.881421 -313.442817 
L 307.242654 -313.559417 
L 307.536173 -313.676017 
L 307.768431 -313.792617 
L 307.947692 -313.909217 
L 308.083251 -314.025817 
L 308.184725 -314.142418 
L 308.261455 -314.259018 
L 308.322032 -314.375618 
L 308.373941 -314.492218 
L 308.423322 -314.608818 
L 308.474845 -314.725418 
L 308.531665 -314.842018 
L 308.595489 -314.958619 
L 308.666696 -315.075219 
L 308.744543 -315.191819 
L 308.827409 -315.308419 
L 308.913076 -315.425019 
L 308.999007 -315.541619 
L 309.082614 -315.65822 
L 309.161484 -315.77482 
L 309.233545 -315.89142 
L 309.297175 -316.00802 
L 309.351248 -316.12462 
L 309.395122 -316.24122 
L 309.428597 -316.35782 
L 309.45185 -316.474421 
L 309.465359 -316.591021 
L 309.469848 -316.707621 
L 309.466239 -316.824221 
L 309.455629 -316.940821 
L 309.439271 -317.057421 
L 309.418565 -317.174021 
L 309.395036 -317.290622 
L 309.370295 -317.407222 
L 309.345981 -317.523822 
L 309.323669 -317.640422 
L 309.304769 -317.757022 
L 309.290414 -317.873622 
L 309.281358 -317.990222 
L 309.277894 -318.106823 
L 309.279819 -318.223423 
L 309.28644 -318.340023 
L 309.29664 -318.456623 
L 309.308979 -318.573223 
L 309.321853 -318.689823 
L 309.333651 -318.806423 
L 309.342933 -318.923024 
L 309.34858 -319.039624 
L 309.349917 -319.156224 
L 309.346786 -319.272824 
L 309.339561 -319.389424 
L 309.329107 -319.506024 
L 309.316691 -319.622624 
L 309.303847 -319.739225 
L 309.292205 -319.855825 
L 309.283333 -319.972425 
L 309.278566 -320.089025 
L 309.278881 -320.205625 
L 309.910494 -320.205625 
L 309.910494 -320.205625 
L 309.910809 -320.089025 
L 309.906042 -319.972425 
L 309.89717 -319.855825 
L 309.885528 -319.739225 
L 309.872684 -319.622624 
L 309.860268 -319.506024 
L 309.849814 -319.389424 
L 309.842589 -319.272824 
L 309.839458 -319.156224 
L 309.840795 -319.039624 
L 309.846442 -318.923024 
L 309.855724 -318.806423 
L 309.867522 -318.689823 
L 309.880396 -318.573223 
L 309.892735 -318.456623 
L 309.902935 -318.340023 
L 309.909556 -318.223423 
L 309.911481 -318.106823 
L 309.908017 -317.990222 
L 309.898961 -317.873622 
L 309.884606 -317.757022 
L 309.865706 -317.640422 
L 309.843394 -317.523822 
L 309.81908 -317.407222 
L 309.794339 -317.290622 
L 309.77081 -317.174021 
L 309.750104 -317.057421 
L 309.733746 -316.940821 
L 309.723136 -316.824221 
L 309.719527 -316.707621 
L 309.724016 -316.591021 
L 309.737525 -316.474421 
L 309.760778 -316.35782 
L 309.794253 -316.24122 
L 309.838127 -316.12462 
L 309.8922 -316.00802 
L 309.95583 -315.89142 
L 310.027891 -315.77482 
L 310.106761 -315.65822 
L 310.190368 -315.541619 
L 310.276299 -315.425019 
L 310.361966 -315.308419 
L 310.444832 -315.191819 
L 310.522679 -315.075219 
L 310.593886 -314.958619 
L 310.65771 -314.842018 
L 310.71453 -314.725418 
L 310.766053 -314.608818 
L 310.815434 -314.492218 
L 310.867343 -314.375618 
L 310.92792 -314.259018 
L 311.00465 -314.142418 
L 311.106124 -314.025817 
L 311.241683 -313.909217 
L 311.420944 -313.792617 
L 311.653202 -313.676017 
L 311.946721 -313.559417 
L 312.307954 -313.442817 
L 312.74074 -313.326217 
L 313.24556 -313.209616 
L 313.818935 -313.093016 
L 314.453079 -312.976416 
L 315.135872 -312.859816 
L 315.851228 -312.743216 
L 316.579869 -312.626616 
L 317.300465 -312.510016 
L 317.99106 -312.393415 
L 318.630641 -312.276815 
L 319.200684 -312.160215 
L 319.686485 -312.043615 
L 320.078131 -311.927015 
L 320.37097 -311.810415 
L 320.565523 -311.693815 
L 320.666851 -311.577214 
L 320.683458 -311.460614 
L 320.625895 -311.344014 
L 320.505249 -311.227414 
L 320.33174 -311.110814 
L 320.11361 -310.994214 
L 319.856468 -310.877614 
L 319.563146 -310.761013 
L 319.234072 -310.644413 
L 318.868057 -310.527813 
L 318.463355 -310.411213 
L 318.018795 -310.294613 
L 317.534795 -310.178013 
L 317.014098 -310.061413 
L 316.462109 -309.944812 
L 315.886817 -309.828212 
L 315.298315 -309.711612 
L 314.708026 -309.595012 
L 314.127763 -309.478412 
L 313.56877 -309.361812 
L 313.040875 -309.245212 
L 312.551862 -309.128611 
L 312.107108 -309.012011 
L 311.709506 -308.895411 
L 311.359634 -308.778811 
L 311.056111 -308.662211 
z
" style="stroke: #000000"/>
    </defs>
    <g clip-path="url(#pe9fc2f74f5)">
     <use xlink:href="#m8b81710282" x="0" y="436.71625" style="fill: #d43f3a; stroke: #000000"/>
    </g>
   </g>
   <g id="PolyCollection_6">
    <defs>
     <path id="m4673393e1b" d="M 354.411966 -306.442584 
L 353.48757 -306.442584 
L 353.490195 -306.669873 
L 353.507287 -306.897161 
L 353.533048 -307.12445 
L 353.558752 -307.351738 
L 353.573214 -307.579027 
L 353.563274 -307.806315 
L 353.514125 -308.033603 
L 353.409465 -308.260892 
L 353.23158 -308.48818 
L 352.961617 -308.715469 
L 352.580406 -308.942757 
L 352.070168 -309.170046 
L 351.417315 -309.397334 
L 350.616265 -309.624622 
L 349.673785 -309.851911 
L 348.612929 -310.079199 
L 347.475362 -310.306488 
L 346.320816 -310.533776 
L 345.222895 -310.761065 
L 344.261228 -310.988353 
L 343.511088 -311.215642 
L 343.032461 -311.44293 
L 342.860998 -311.670218 
L 343.003008 -311.897507 
L 343.43563 -312.124795 
L 344.111966 -312.352084 
L 344.969712 -312.579372 
L 345.940998 -312.806661 
L 346.961223 -313.033949 
L 347.97526 -313.261238 
L 348.9405 -313.488526 
L 349.827139 -313.715814 
L 350.616704 -313.943103 
L 351.299943 -314.170391 
L 351.874839 -314.39768 
L 352.345087 -314.624968 
L 352.718926 -314.852257 
L 353.008048 -315.079545 
L 353.226369 -315.306834 
L 353.38861 -315.534122 
L 353.508844 -315.76141 
L 353.599278 -315.988699 
L 353.669474 -316.215987 
L 353.726133 -316.443276 
L 353.773381 -316.670564 
L 353.813384 -316.897853 
L 353.84709 -317.125141 
L 353.874883 -317.352429 
L 353.897051 -317.579718 
L 353.914037 -317.807006 
L 353.926489 -318.034295 
L 353.935206 -318.261583 
L 353.941029 -318.488872 
L 353.944739 -318.71616 
L 353.946993 -318.943449 
L 353.948301 -319.170737 
L 353.949024 -319.398025 
L 353.949407 -319.625314 
L 353.9496 -319.852602 
L 353.949693 -320.079891 
L 353.949736 -320.307179 
L 353.949755 -320.534468 
L 353.949763 -320.761756 
L 353.949766 -320.989045 
L 353.949767 -321.216333 
L 353.949767 -321.443621 
L 353.949768 -321.67091 
L 353.949768 -321.898198 
L 353.949768 -322.125487 
L 353.949768 -322.352775 
L 353.949768 -322.580064 
L 353.949768 -322.807352 
L 353.949768 -323.034641 
L 353.949767 -323.261929 
L 353.949767 -323.489217 
L 353.949765 -323.716506 
L 353.949761 -323.943794 
L 353.94975 -324.171083 
L 353.949724 -324.398371 
L 353.949668 -324.62566 
L 353.949547 -324.852948 
L 353.9493 -325.080236 
L 353.948818 -325.307525 
L 353.947923 -325.534813 
L 353.946335 -325.762102 
L 353.943646 -325.98939 
L 353.939309 -326.216679 
L 353.932649 -326.443967 
L 353.922924 -326.671256 
L 353.909439 -326.898544 
L 353.89172 -327.125832 
L 353.869721 -327.353121 
L 353.844014 -327.580409 
L 353.815912 -327.807698 
L 353.787447 -328.034986 
L 353.761185 -328.262275 
L 353.739864 -328.489563 
L 353.725931 -328.716852 
L 353.721084 -328.94414 
L 354.178452 -328.94414 
L 354.178452 -328.94414 
L 354.173605 -328.716852 
L 354.159672 -328.489563 
L 354.13835 -328.262275 
L 354.112088 -328.034986 
L 354.083624 -327.807698 
L 354.055521 -327.580409 
L 354.029815 -327.353121 
L 354.007815 -327.125832 
L 353.990097 -326.898544 
L 353.976612 -326.671256 
L 353.966886 -326.443967 
L 353.960226 -326.216679 
L 353.955889 -325.98939 
L 353.953201 -325.762102 
L 353.951612 -325.534813 
L 353.950717 -325.307525 
L 353.950236 -325.080236 
L 353.949989 -324.852948 
L 353.949868 -324.62566 
L 353.949811 -324.398371 
L 353.949786 -324.171083 
L 353.949775 -323.943794 
L 353.94977 -323.716506 
L 353.949769 -323.489217 
L 353.949768 -323.261929 
L 353.949768 -323.034641 
L 353.949768 -322.807352 
L 353.949768 -322.580064 
L 353.949768 -322.352775 
L 353.949768 -322.125487 
L 353.949768 -321.898198 
L 353.949768 -321.67091 
L 353.949768 -321.443621 
L 353.949768 -321.216333 
L 353.94977 -320.989045 
L 353.949773 -320.761756 
L 353.949781 -320.534468 
L 353.9498 -320.307179 
L 353.949843 -320.079891 
L 353.949936 -319.852602 
L 353.950129 -319.625314 
L 353.950511 -319.398025 
L 353.951235 -319.170737 
L 353.952542 -318.943449 
L 353.954797 -318.71616 
L 353.958506 -318.488872 
L 353.964329 -318.261583 
L 353.973046 -318.034295 
L 353.985499 -317.807006 
L 354.002484 -317.579718 
L 354.024653 -317.352429 
L 354.052445 -317.125141 
L 354.086151 -316.897853 
L 354.126155 -316.670564 
L 354.173402 -316.443276 
L 354.230061 -316.215987 
L 354.300257 -315.988699 
L 354.390691 -315.76141 
L 354.510926 -315.534122 
L 354.673166 -315.306834 
L 354.891487 -315.079545 
L 355.180609 -314.852257 
L 355.554448 -314.624968 
L 356.024697 -314.39768 
L 356.599593 -314.170391 
L 357.282831 -313.943103 
L 358.072397 -313.715814 
L 358.959035 -313.488526 
L 359.924276 -313.261238 
L 360.938312 -313.033949 
L 361.958537 -312.806661 
L 362.929824 -312.579372 
L 363.787569 -312.352084 
L 364.463906 -312.124795 
L 364.896527 -311.897507 
L 365.038538 -311.670218 
L 364.867075 -311.44293 
L 364.388447 -311.215642 
L 363.638308 -310.988353 
L 362.676641 -310.761065 
L 361.578719 -310.533776 
L 360.424174 -310.306488 
L 359.286606 -310.079199 
L 358.22575 -309.851911 
L 357.28327 -309.624622 
L 356.482221 -309.397334 
L 355.829367 -309.170046 
L 355.319129 -308.942757 
L 354.937918 -308.715469 
L 354.667955 -308.48818 
L 354.49007 -308.260892 
L 354.38541 -308.033603 
L 354.336261 -307.806315 
L 354.326321 -307.579027 
L 354.340784 -307.351738 
L 354.366487 -307.12445 
L 354.392248 -306.897161 
L 354.40934 -306.669873 
L 354.411966 -306.442584 
z
" style="stroke: #000000"/>
    </defs>
    <g clip-path="url(#pe9fc2f74f5)">
     <use xlink:href="#m4673393e1b" x="0" y="436.71625" style="fill: #d43f3a; stroke: #000000"/>
    </g>
   </g>
   <g id="PolyCollection_7">
    <defs>
     <path id="mafcafc2f89" d="M 398.718107 -324.812549 
L 397.891589 -324.812549 
L 397.888222 -325.034676 
L 397.890322 -325.256802 
L 397.896235 -325.478928 
L 397.903759 -325.701054 
L 397.910316 -325.923181 
L 397.913164 -326.145307 
L 397.909617 -326.367433 
L 397.897266 -326.589559 
L 397.874151 -326.811686 
L 397.838882 -327.033812 
L 397.790687 -327.255938 
L 397.729382 -327.478064 
L 397.65527 -327.700191 
L 397.568977 -327.922317 
L 397.471253 -328.144443 
L 397.362745 -328.366569 
L 397.243788 -328.588696 
L 397.114219 -328.810822 
L 396.973237 -329.032948 
L 396.819331 -329.255074 
L 396.650263 -329.4772 
L 396.463127 -329.699327 
L 396.254451 -329.921453 
L 396.020372 -330.143579 
L 395.756852 -330.365705 
L 395.459948 -330.587832 
L 395.126126 -330.809958 
L 394.752625 -331.032084 
L 394.33785 -331.25421 
L 393.881763 -331.476337 
L 393.38626 -331.698463 
L 392.855454 -331.920589 
L 392.29584 -332.142715 
L 391.716264 -332.364842 
L 391.127689 -332.586968 
L 390.542706 -332.809094 
L 389.974843 -333.03122 
L 389.437694 -333.253347 
L 388.943954 -333.475473 
L 388.504476 -333.697599 
L 388.127442 -333.919725 
L 387.817763 -334.141852 
L 387.576793 -334.363978 
L 387.402401 -334.586104 
L 387.289396 -334.80823 
L 387.230257 -335.030357 
L 387.216078 -335.252483 
L 387.237608 -335.474609 
L 387.28625 -335.696735 
L 387.354903 -335.918862 
L 387.438556 -336.140988 
L 387.534575 -336.363114 
L 387.6427 -336.58524 
L 387.764764 -336.807367 
L 387.90423 -337.029493 
L 388.065608 -337.251619 
L 388.253852 -337.473745 
L 388.473794 -337.695871 
L 388.729658 -337.917998 
L 389.024682 -338.140124 
L 389.360836 -338.36225 
L 389.738631 -338.584376 
L 390.156996 -338.806503 
L 390.613217 -339.028629 
L 391.102943 -339.250755 
L 391.620249 -339.472881 
L 392.157797 -339.695008 
L 392.707077 -339.917134 
L 393.258756 -340.13926 
L 393.803106 -340.361386 
L 394.330494 -340.583513 
L 394.831898 -340.805639 
L 395.299396 -341.027765 
L 395.726584 -341.249891 
L 396.108888 -341.472018 
L 396.44374 -341.694144 
L 396.730597 -341.91627 
L 396.970819 -342.138396 
L 397.167413 -342.360523 
L 397.32468 -342.582649 
L 397.447785 -342.804775 
L 397.542314 -343.026901 
L 397.613841 -343.249028 
L 397.667551 -343.471154 
L 397.707946 -343.69328 
L 397.738669 -343.915406 
L 397.762439 -344.137533 
L 397.781106 -344.359659 
L 397.795797 -344.581785 
L 397.807136 -344.803911 
L 397.815486 -345.026037 
L 397.82118 -345.248164 
L 397.824706 -345.47029 
L 397.826814 -345.692416 
L 397.828539 -345.914542 
L 397.831138 -346.136669 
L 397.83596 -346.358795 
L 397.844282 -346.580921 
L 397.857139 -346.803047 
L 398.752557 -346.803047 
L 398.752557 -346.803047 
L 398.765414 -346.580921 
L 398.773736 -346.358795 
L 398.778558 -346.136669 
L 398.781156 -345.914542 
L 398.782882 -345.692416 
L 398.78499 -345.47029 
L 398.788516 -345.248164 
L 398.79421 -345.026037 
L 398.80256 -344.803911 
L 398.813899 -344.581785 
L 398.82859 -344.359659 
L 398.847257 -344.137533 
L 398.871027 -343.915406 
L 398.90175 -343.69328 
L 398.942145 -343.471154 
L 398.995855 -343.249028 
L 399.067382 -343.026901 
L 399.161911 -342.804775 
L 399.285016 -342.582649 
L 399.442282 -342.360523 
L 399.638877 -342.138396 
L 399.879099 -341.91627 
L 400.165955 -341.694144 
L 400.500807 -341.472018 
L 400.883112 -341.249891 
L 401.3103 -341.027765 
L 401.777798 -340.805639 
L 402.279202 -340.583513 
L 402.80659 -340.361386 
L 403.35094 -340.13926 
L 403.902619 -339.917134 
L 404.451899 -339.695008 
L 404.989447 -339.472881 
L 405.506753 -339.250755 
L 405.996478 -339.028629 
L 406.4527 -338.806503 
L 406.871064 -338.584376 
L 407.24886 -338.36225 
L 407.585014 -338.140124 
L 407.880038 -337.917998 
L 408.135902 -337.695871 
L 408.355844 -337.473745 
L 408.544088 -337.251619 
L 408.705466 -337.029493 
L 408.844932 -336.807367 
L 408.966996 -336.58524 
L 409.075121 -336.363114 
L 409.17114 -336.140988 
L 409.254793 -335.918862 
L 409.323446 -335.696735 
L 409.372088 -335.474609 
L 409.393618 -335.252483 
L 409.379439 -335.030357 
L 409.320299 -334.80823 
L 409.207295 -334.586104 
L 409.032903 -334.363978 
L 408.791933 -334.141852 
L 408.482254 -333.919725 
L 408.105219 -333.697599 
L 407.665742 -333.475473 
L 407.172002 -333.253347 
L 406.634852 -333.03122 
L 406.06699 -332.809094 
L 405.482007 -332.586968 
L 404.893431 -332.364842 
L 404.313856 -332.142715 
L 403.754241 -331.920589 
L 403.223436 -331.698463 
L 402.727932 -331.476337 
L 402.271846 -331.25421 
L 401.85707 -331.032084 
L 401.48357 -330.809958 
L 401.149748 -330.587832 
L 400.852844 -330.365705 
L 400.589324 -330.143579 
L 400.355245 -329.921453 
L 400.146569 -329.699327 
L 399.959432 -329.4772 
L 399.790365 -329.255074 
L 399.636459 -329.032948 
L 399.495477 -328.810822 
L 399.365907 -328.588696 
L 399.246951 -328.366569 
L 399.138443 -328.144443 
L 399.040719 -327.922317 
L 398.954426 -327.700191 
L 398.880313 -327.478064 
L 398.819009 -327.255938 
L 398.770814 -327.033812 
L 398.735545 -326.811686 
L 398.71243 -326.589559 
L 398.700079 -326.367433 
L 398.696532 -326.145307 
L 398.69938 -325.923181 
L 398.705937 -325.701054 
L 398.713461 -325.478928 
L 398.719374 -325.256802 
L 398.721473 -325.034676 
L 398.718107 -324.812549 
z
" style="stroke: #000000"/>
    </defs>
    <g clip-path="url(#pe9fc2f74f5)">
     <use xlink:href="#mafcafc2f89" x="0" y="436.71625" style="fill: #d43f3a; stroke: #000000"/>
    </g>
   </g>
   <g id="PolyCollection_8">
    <defs>
     <path id="ma756d8b6f1" d="M 443.426203 -351.345367 
L 441.893653 -351.345367 
L 441.861405 -351.650489 
L 441.835461 -351.95561 
L 441.815953 -352.260732 
L 441.802643 -352.565854 
L 441.794889 -352.870975 
L 441.791631 -353.176097 
L 441.791392 -353.481219 
L 441.792291 -353.78634 
L 441.792073 -354.091462 
L 441.788158 -354.396584 
L 441.777687 -354.701705 
L 441.757588 -355.006827 
L 441.724638 -355.311949 
L 441.67553 -355.61707 
L 441.60694 -355.922192 
L 441.515586 -356.227314 
L 441.398295 -356.532435 
L 441.252063 -356.837557 
L 441.074128 -357.142679 
L 440.862045 -357.4478 
L 440.613777 -357.752922 
L 440.327801 -358.058044 
L 440.003231 -358.363165 
L 439.639953 -358.668287 
L 439.238761 -358.973409 
L 438.801498 -359.27853 
L 438.331161 -359.583652 
L 437.831973 -359.888774 
L 437.309399 -360.193895 
L 436.770082 -360.499017 
L 436.221696 -360.804138 
L 435.672712 -361.10926 
L 435.132079 -361.414382 
L 434.608839 -361.719503 
L 434.111703 -362.024625 
L 433.648619 -362.329747 
L 433.226366 -362.634868 
L 432.850226 -362.93999 
L 432.523746 -363.245112 
L 432.248632 -363.550233 
L 432.024772 -363.855355 
L 431.850392 -364.160477 
L 431.72233 -364.465598 
L 431.63638 -364.77072 
L 431.587692 -365.075842 
L 431.571158 -365.380963 
L 431.581765 -365.686085 
L 431.614861 -365.991207 
L 431.66633 -366.296328 
L 431.732648 -366.60145 
L 431.810845 -366.906572 
L 431.898382 -367.211693 
L 431.992978 -367.516815 
L 432.092428 -367.821937 
L 432.194441 -368.127058 
L 432.296541 -368.43218 
L 432.396054 -368.737302 
L 432.490176 -369.042423 
L 432.576149 -369.347545 
L 432.651493 -369.652667 
L 432.71429 -369.957788 
L 432.763477 -370.26291 
L 432.799102 -370.568032 
L 432.822517 -370.873153 
L 432.836465 -371.178275 
L 432.845058 -371.483397 
L 432.853623 -371.788518 
L 432.868439 -372.09364 
L 432.896369 -372.398762 
L 432.944436 -372.703883 
L 433.019361 -373.009005 
L 433.12712 -373.314127 
L 433.272543 -373.619248 
L 433.458995 -373.92437 
L 433.688162 -374.229492 
L 433.959946 -374.534613 
L 434.272488 -374.839735 
L 434.622288 -375.144857 
L 435.004427 -375.449978 
L 435.412854 -375.7551 
L 435.840724 -376.060222 
L 436.280749 -376.365343 
L 436.725554 -376.670465 
L 437.168005 -376.975587 
L 437.601494 -377.280708 
L 438.020186 -377.58583 
L 438.419191 -377.890952 
L 438.794692 -378.196073 
L 439.143999 -378.501195 
L 439.465548 -378.806317 
L 439.758854 -379.111438 
L 440.024402 -379.41656 
L 440.26351 -379.721682 
L 440.478154 -380.026803 
L 440.670785 -380.331925 
L 440.844125 -380.637047 
L 441.000979 -380.942168 
L 441.144063 -381.24729 
L 441.275853 -381.552412 
L 444.044003 -381.552412 
L 444.044003 -381.552412 
L 444.175794 -381.24729 
L 444.318877 -380.942168 
L 444.475731 -380.637047 
L 444.649071 -380.331925 
L 444.841702 -380.026803 
L 445.056347 -379.721682 
L 445.295454 -379.41656 
L 445.561002 -379.111438 
L 445.854308 -378.806317 
L 446.175858 -378.501195 
L 446.525164 -378.196073 
L 446.900665 -377.890952 
L 447.299671 -377.58583 
L 447.718362 -377.280708 
L 448.151852 -376.975587 
L 448.594302 -376.670465 
L 449.039107 -376.365343 
L 449.479132 -376.060222 
L 449.907002 -375.7551 
L 450.315429 -375.449978 
L 450.697568 -375.144857 
L 451.047369 -374.839735 
L 451.35991 -374.534613 
L 451.631695 -374.229492 
L 451.860861 -373.92437 
L 452.047313 -373.619248 
L 452.192736 -373.314127 
L 452.300495 -373.009005 
L 452.37542 -372.703883 
L 452.423487 -372.398762 
L 452.451417 -372.09364 
L 452.466233 -371.788518 
L 452.474798 -371.483397 
L 452.483391 -371.178275 
L 452.497339 -370.873153 
L 452.520754 -370.568032 
L 452.556379 -370.26291 
L 452.605567 -369.957788 
L 452.668364 -369.652667 
L 452.743707 -369.347545 
L 452.82968 -369.042423 
L 452.923803 -368.737302 
L 453.023315 -368.43218 
L 453.125415 -368.127058 
L 453.227428 -367.821937 
L 453.326878 -367.516815 
L 453.421475 -367.211693 
L 453.509012 -366.906572 
L 453.587209 -366.60145 
L 453.653526 -366.296328 
L 453.704995 -365.991207 
L 453.738091 -365.686085 
L 453.748698 -365.380963 
L 453.732164 -365.075842 
L 453.683476 -364.77072 
L 453.597526 -364.465598 
L 453.469464 -364.160477 
L 453.295084 -363.855355 
L 453.071224 -363.550233 
L 452.79611 -363.245112 
L 452.46963 -362.93999 
L 452.09349 -362.634868 
L 451.671238 -362.329747 
L 451.208153 -362.024625 
L 450.711017 -361.719503 
L 450.187778 -361.414382 
L 449.647145 -361.10926 
L 449.098161 -360.804138 
L 448.549774 -360.499017 
L 448.010457 -360.193895 
L 447.487883 -359.888774 
L 446.988695 -359.583652 
L 446.518358 -359.27853 
L 446.081095 -358.973409 
L 445.679904 -358.668287 
L 445.316625 -358.363165 
L 444.992055 -358.058044 
L 444.706079 -357.752922 
L 444.457811 -357.4478 
L 444.245728 -357.142679 
L 444.067794 -356.837557 
L 443.921562 -356.532435 
L 443.80427 -356.227314 
L 443.712916 -355.922192 
L 443.644326 -355.61707 
L 443.595219 -355.311949 
L 443.562269 -355.006827 
L 443.542169 -354.701705 
L 443.531698 -354.396584 
L 443.527783 -354.091462 
L 443.527566 -353.78634 
L 443.528464 -353.481219 
L 443.528225 -353.176097 
L 443.524967 -352.870975 
L 443.517213 -352.565854 
L 443.503903 -352.260732 
L 443.484395 -351.95561 
L 443.458451 -351.650489 
L 443.426203 -351.345367 
z
" style="stroke: #000000"/>
    </defs>
    <g clip-path="url(#pe9fc2f74f5)">
     <use xlink:href="#ma756d8b6f1" x="0" y="436.71625" style="fill: #d43f3a; stroke: #000000"/>
    </g>
   </g>
   <g id="PolyCollection_9">
    <defs>
     <path id="m2ae32fe028" d="M 487.353318 -351.968575 
L 486.676699 -351.968575 
L 486.678774 -352.593207 
L 486.685893 -353.217839 
L 486.697535 -353.842471 
L 486.712914 -354.467103 
L 486.731018 -355.091736 
L 486.750664 -355.716368 
L 486.770553 -356.341 
L 486.789333 -356.965632 
L 486.805657 -357.590264 
L 486.818232 -358.214896 
L 486.825858 -358.839529 
L 486.827464 -359.464161 
L 486.822128 -360.088793 
L 486.80909 -360.713425 
L 486.787765 -361.338057 
L 486.757745 -361.962689 
L 486.718799 -362.587322 
L 486.670866 -363.211954 
L 486.61405 -363.836586 
L 486.548603 -364.461218 
L 486.474904 -365.08585 
L 486.393434 -365.710482 
L 486.30475 -366.335115 
L 486.209449 -366.959747 
L 486.108148 -367.584379 
L 486.001462 -368.209011 
L 485.88999 -368.833643 
L 485.774322 -369.458275 
L 485.655049 -370.082908 
L 485.532788 -370.70754 
L 485.408211 -371.332172 
L 485.282066 -371.956804 
L 485.155197 -372.581436 
L 485.028539 -373.206068 
L 484.903091 -373.830701 
L 484.779862 -374.455333 
L 484.659794 -375.079965 
L 484.543661 -375.704597 
L 484.43196 -376.329229 
L 484.324801 -376.953861 
L 484.221816 -377.578494 
L 484.122097 -378.203126 
L 484.02417 -378.827758 
L 483.92602 -379.45239 
L 483.825168 -380.077022 
L 483.718782 -380.701654 
L 483.603836 -381.326286 
L 483.477285 -381.950919 
L 483.336249 -382.575551 
L 483.178183 -383.200183 
L 483.001022 -383.824815 
L 482.803287 -384.449447 
L 482.584136 -385.074079 
L 482.343368 -385.698712 
L 482.08137 -386.323344 
L 481.799035 -386.947976 
L 481.497638 -387.572608 
L 481.178721 -388.19724 
L 480.843981 -388.821872 
L 480.495203 -389.446505 
L 480.134234 -390.071137 
L 479.76303 -390.695769 
L 479.38376 -391.320401 
L 478.998966 -391.945033 
L 478.611759 -392.569665 
L 478.226028 -393.194298 
L 477.846612 -393.81893 
L 477.479424 -394.443562 
L 477.131465 -395.068194 
L 476.810736 -395.692826 
L 476.526001 -396.317458 
L 476.286431 -396.942091 
L 476.101137 -397.566723 
L 475.978628 -398.191355 
L 475.926238 -398.815987 
L 475.949584 -399.440619 
L 476.052098 -400.065251 
L 476.23469 -400.689884 
L 476.495577 -401.314516 
L 476.830287 -401.939148 
L 477.231856 -402.56378 
L 477.691186 -403.188412 
L 478.197535 -403.813044 
L 478.739099 -404.437677 
L 479.303631 -405.062309 
L 479.879052 -405.686941 
L 480.454 -406.311573 
L 481.018296 -406.936205 
L 481.563287 -407.560837 
L 482.082067 -408.18547 
L 482.569568 -408.810102 
L 483.022531 -409.434734 
L 483.439374 -410.059366 
L 483.819985 -410.683998 
L 484.16545 -411.30863 
L 484.477762 -411.933263 
L 484.759509 -412.557895 
L 485.013597 -413.182527 
L 485.24299 -413.807159 
L 488.787027 -413.807159 
L 488.787027 -413.807159 
L 489.01642 -413.182527 
L 489.270508 -412.557895 
L 489.552255 -411.933263 
L 489.864566 -411.30863 
L 490.210032 -410.683998 
L 490.590643 -410.059366 
L 491.007486 -409.434734 
L 491.460448 -408.810102 
L 491.947949 -408.18547 
L 492.46673 -407.560837 
L 493.011721 -406.936205 
L 493.576017 -406.311573 
L 494.150965 -405.686941 
L 494.726386 -405.062309 
L 495.290918 -404.437677 
L 495.832482 -403.813044 
L 496.33883 -403.188412 
L 496.79816 -402.56378 
L 497.19973 -401.939148 
L 497.53444 -401.314516 
L 497.795326 -400.689884 
L 497.977919 -400.065251 
L 498.080432 -399.440619 
L 498.103778 -398.815987 
L 498.051389 -398.191355 
L 497.92888 -397.566723 
L 497.743586 -396.942091 
L 497.504016 -396.317458 
L 497.21928 -395.692826 
L 496.898551 -395.068194 
L 496.550593 -394.443562 
L 496.183405 -393.81893 
L 495.803989 -393.194298 
L 495.418258 -392.569665 
L 495.031051 -391.945033 
L 494.646257 -391.320401 
L 494.266986 -390.695769 
L 493.895783 -390.071137 
L 493.534814 -389.446505 
L 493.186035 -388.821872 
L 492.851296 -388.19724 
L 492.532378 -387.572608 
L 492.230982 -386.947976 
L 491.948646 -386.323344 
L 491.686649 -385.698712 
L 491.44588 -385.074079 
L 491.22673 -384.449447 
L 491.028994 -383.824815 
L 490.851834 -383.200183 
L 490.693768 -382.575551 
L 490.552732 -381.950919 
L 490.426181 -381.326286 
L 490.311235 -380.701654 
L 490.204849 -380.077022 
L 490.103996 -379.45239 
L 490.005847 -378.827758 
L 489.90792 -378.203126 
L 489.808201 -377.578494 
L 489.705216 -376.953861 
L 489.598057 -376.329229 
L 489.486356 -375.704597 
L 489.370223 -375.079965 
L 489.250155 -374.455333 
L 489.126926 -373.830701 
L 489.001477 -373.206068 
L 488.874819 -372.581436 
L 488.74795 -371.956804 
L 488.621806 -371.332172 
L 488.497228 -370.70754 
L 488.374968 -370.082908 
L 488.255695 -369.458275 
L 488.140027 -368.833643 
L 488.028555 -368.209011 
L 487.921869 -367.584379 
L 487.820568 -366.959747 
L 487.725267 -366.335115 
L 487.636582 -365.710482 
L 487.555113 -365.08585 
L 487.481413 -364.461218 
L 487.415966 -363.836586 
L 487.359151 -363.211954 
L 487.311218 -362.587322 
L 487.272271 -361.962689 
L 487.242252 -361.338057 
L 487.220927 -360.713425 
L 487.207889 -360.088793 
L 487.202552 -359.464161 
L 487.204159 -358.839529 
L 487.211785 -358.214896 
L 487.224359 -357.590264 
L 487.240684 -356.965632 
L 487.259464 -356.341 
L 487.279353 -355.716368 
L 487.298998 -355.091736 
L 487.317103 -354.467103 
L 487.332482 -353.842471 
L 487.344124 -353.217839 
L 487.351242 -352.593207 
L 487.353318 -351.968575 
z
" style="stroke: #000000"/>
    </defs>
    <g clip-path="url(#pe9fc2f74f5)">
     <use xlink:href="#m2ae32fe028" x="0" y="436.71625" style="fill: #d43f3a; stroke: #000000"/>
    </g>
   </g>
   <g id="matplotlib.axis_1">
    <g id="xtick_1">
     <g id="line2d_1">
      <defs>
       <path id="ma802576755" d="M 0 0 
L 0 3.5 
" style="stroke: #000000; stroke-width: 0.8"/>
      </defs>
      <g>
       <use xlink:href="#ma802576755" x="132.174367" y="352.8" style="stroke: #000000; stroke-width: 0.8"/>
      </g>
     </g>
     <g id="text_1">
      <!-- AT5G66052 -->
      <g transform="translate(135.485617 429.51625)rotate(-90)scale(0.12 -0.12)">
       <defs>
        <path id="DejaVuSans-41" d="M 2188 4044 
L 1331 1722 
L 3047 1722 
L 2188 4044 
z
M 1831 4666 
L 2547 4666 
L 4325 0 
L 3669 0 
L 3244 1197 
L 1141 1197 
L 716 0 
L 50 0 
L 1831 4666 
z
" transform="scale(0.015625)"/>
        <path id="DejaVuSans-54" d="M -19 4666 
L 3928 4666 
L 3928 4134 
L 2272 4134 
L 2272 0 
L 1638 0 
L 1638 4134 
L -19 4134 
L -19 4666 
z
" transform="scale(0.015625)"/>
        <path id="DejaVuSans-35" d="M 691 4666 
L 3169 4666 
L 3169 4134 
L 1269 4134 
L 1269 2991 
Q 1406 3038 1543 3061 
Q 1681 3084 1819 3084 
Q 2600 3084 3056 2656 
Q 3513 2228 3513 1497 
Q 3513 744 3044 326 
Q 2575 -91 1722 -91 
Q 1428 -91 1123 -41 
Q 819 9 494 109 
L 494 744 
Q 775 591 1075 516 
Q 1375 441 1709 441 
Q 2250 441 2565 725 
Q 2881 1009 2881 1497 
Q 2881 1984 2565 2268 
Q 2250 2553 1709 2553 
Q 1456 2553 1204 2497 
Q 953 2441 691 2322 
L 691 4666 
z
" transform="scale(0.015625)"/>
        <path id="DejaVuSans-47" d="M 3809 666 
L 3809 1919 
L 2778 1919 
L 2778 2438 
L 4434 2438 
L 4434 434 
Q 4069 175 3628 42 
Q 3188 -91 2688 -91 
Q 1594 -91 976 548 
Q 359 1188 359 2328 
Q 359 3472 976 4111 
Q 1594 4750 2688 4750 
Q 3144 4750 3555 4637 
Q 3966 4525 4313 4306 
L 4313 3634 
Q 3963 3931 3569 4081 
Q 3175 4231 2741 4231 
Q 1884 4231 1454 3753 
Q 1025 3275 1025 2328 
Q 1025 1384 1454 906 
Q 1884 428 2741 428 
Q 3075 428 3337 486 
Q 3600 544 3809 666 
z
" transform="scale(0.015625)"/>
        <path id="DejaVuSans-36" d="M 2113 2584 
Q 1688 2584 1439 2293 
Q 1191 2003 1191 1497 
Q 1191 994 1439 701 
Q 1688 409 2113 409 
Q 2538 409 2786 701 
Q 3034 994 3034 1497 
Q 3034 2003 2786 2293 
Q 2538 2584 2113 2584 
z
M 3366 4563 
L 3366 3988 
Q 3128 4100 2886 4159 
Q 2644 4219 2406 4219 
Q 1781 4219 1451 3797 
Q 1122 3375 1075 2522 
Q 1259 2794 1537 2939 
Q 1816 3084 2150 3084 
Q 2853 3084 3261 2657 
Q 3669 2231 3669 1497 
Q 3669 778 3244 343 
Q 2819 -91 2113 -91 
Q 1303 -91 875 529 
Q 447 1150 447 2328 
Q 447 3434 972 4092 
Q 1497 4750 2381 4750 
Q 2619 4750 2861 4703 
Q 3103 4656 3366 4563 
z
" transform="scale(0.015625)"/>
        <path id="DejaVuSans-30" d="M 2034 4250 
Q 1547 4250 1301 3770 
Q 1056 3291 1056 2328 
Q 1056 1369 1301 889 
Q 1547 409 2034 409 
Q 2525 409 2770 889 
Q 3016 1369 3016 2328 
Q 3016 3291 2770 3770 
Q 2525 4250 2034 4250 
z
M 2034 4750 
Q 2819 4750 3233 4129 
Q 3647 3509 3647 2328 
Q 3647 1150 3233 529 
Q 2819 -91 2034 -91 
Q 1250 -91 836 529 
Q 422 1150 422 2328 
Q 422 3509 836 4129 
Q 1250 4750 2034 4750 
z
" transform="scale(0.015625)"/>
        <path id="DejaVuSans-32" d="M 1228 531 
L 3431 531 
L 3431 0 
L 469 0 
L 469 531 
Q 828 903 1448 1529 
Q 2069 2156 2228 2338 
Q 2531 2678 2651 2914 
Q 2772 3150 2772 3378 
Q 2772 3750 2511 3984 
Q 2250 4219 1831 4219 
Q 1534 4219 1204 4116 
Q 875 4013 500 3803 
L 500 4441 
Q 881 4594 1212 4672 
Q 1544 4750 1819 4750 
Q 2544 4750 2975 4387 
Q 3406 4025 3406 3419 
Q 3406 3131 3298 2873 
Q 3191 2616 2906 2266 
Q 2828 2175 2409 1742 
Q 1991 1309 1228 531 
z
" transform="scale(0.015625)"/>
       </defs>
       <use xlink:href="#DejaVuSans-41"/>
       <use xlink:href="#DejaVuSans-54" x="60.658203"/>
       <use xlink:href="#DejaVuSans-35" x="121.742188"/>
       <use xlink:href="#DejaVuSans-47" x="185.365234"/>
       <use xlink:href="#DejaVuSans-36" x="262.855469"/>
       <use xlink:href="#DejaVuSans-36" x="326.478516"/>
       <use xlink:href="#DejaVuSans-30" x="390.101562"/>
       <use xlink:href="#DejaVuSans-35" x="453.724609"/>
       <use xlink:href="#DejaVuSans-32" x="517.347656"/>
      </g>
     </g>
    </g>
    <g id="xtick_2">
     <g id="line2d_2">
      <g>
       <use xlink:href="#ma802576755" x="176.529447" y="352.8" style="stroke: #000000; stroke-width: 0.8"/>
      </g>
     </g>
     <g id="text_2">
      <!-- AT3G09260 -->
      <g transform="translate(179.840697 429.51625)rotate(-90)scale(0.12 -0.12)">
       <defs>
        <path id="DejaVuSans-33" d="M 2597 2516 
Q 3050 2419 3304 2112 
Q 3559 1806 3559 1356 
Q 3559 666 3084 287 
Q 2609 -91 1734 -91 
Q 1441 -91 1130 -33 
Q 819 25 488 141 
L 488 750 
Q 750 597 1062 519 
Q 1375 441 1716 441 
Q 2309 441 2620 675 
Q 2931 909 2931 1356 
Q 2931 1769 2642 2001 
Q 2353 2234 1838 2234 
L 1294 2234 
L 1294 2753 
L 1863 2753 
Q 2328 2753 2575 2939 
Q 2822 3125 2822 3475 
Q 2822 3834 2567 4026 
Q 2313 4219 1838 4219 
Q 1578 4219 1281 4162 
Q 984 4106 628 3988 
L 628 4550 
Q 988 4650 1302 4700 
Q 1616 4750 1894 4750 
Q 2613 4750 3031 4423 
Q 3450 4097 3450 3541 
Q 3450 3153 3228 2886 
Q 3006 2619 2597 2516 
z
" transform="scale(0.015625)"/>
        <path id="DejaVuSans-39" d="M 703 97 
L 703 672 
Q 941 559 1184 500 
Q 1428 441 1663 441 
Q 2288 441 2617 861 
Q 2947 1281 2994 2138 
Q 2813 1869 2534 1725 
Q 2256 1581 1919 1581 
Q 1219 1581 811 2004 
Q 403 2428 403 3163 
Q 403 3881 828 4315 
Q 1253 4750 1959 4750 
Q 2769 4750 3195 4129 
Q 3622 3509 3622 2328 
Q 3622 1225 3098 567 
Q 2575 -91 1691 -91 
Q 1453 -91 1209 -44 
Q 966 3 703 97 
z
M 1959 2075 
Q 2384 2075 2632 2365 
Q 2881 2656 2881 3163 
Q 2881 3666 2632 3958 
Q 2384 4250 1959 4250 
Q 1534 4250 1286 3958 
Q 1038 3666 1038 3163 
Q 1038 2656 1286 2365 
Q 1534 2075 1959 2075 
z
" transform="scale(0.015625)"/>
       </defs>
       <use xlink:href="#DejaVuSans-41"/>
       <use xlink:href="#DejaVuSans-54" x="60.658203"/>
       <use xlink:href="#DejaVuSans-33" x="121.742188"/>
       <use xlink:href="#DejaVuSans-47" x="185.365234"/>
       <use xlink:href="#DejaVuSans-30" x="262.855469"/>
       <use xlink:href="#DejaVuSans-39" x="326.478516"/>
       <use xlink:href="#DejaVuSans-32" x="390.101562"/>
       <use xlink:href="#DejaVuSans-36" x="453.724609"/>
       <use xlink:href="#DejaVuSans-30" x="517.347656"/>
      </g>
     </g>
    </g>
    <g id="xtick_3">
     <g id="line2d_3">
      <g>
       <use xlink:href="#ma802576755" x="220.884527" y="352.8" style="stroke: #000000; stroke-width: 0.8"/>
      </g>
     </g>
     <g id="text_3">
      <!-- PSBR -->
      <g transform="translate(224.195777 391.225)rotate(-90)scale(0.12 -0.12)">
       <defs>
        <path id="DejaVuSans-50" d="M 1259 4147 
L 1259 2394 
L 2053 2394 
Q 2494 2394 2734 2622 
Q 2975 2850 2975 3272 
Q 2975 3691 2734 3919 
Q 2494 4147 2053 4147 
L 1259 4147 
z
M 628 4666 
L 2053 4666 
Q 2838 4666 3239 4311 
Q 3641 3956 3641 3272 
Q 3641 2581 3239 2228 
Q 2838 1875 2053 1875 
L 1259 1875 
L 1259 0 
L 628 0 
L 628 4666 
z
" transform="scale(0.015625)"/>
        <path id="DejaVuSans-53" d="M 3425 4513 
L 3425 3897 
Q 3066 4069 2747 4153 
Q 2428 4238 2131 4238 
Q 1616 4238 1336 4038 
Q 1056 3838 1056 3469 
Q 1056 3159 1242 3001 
Q 1428 2844 1947 2747 
L 2328 2669 
Q 3034 2534 3370 2195 
Q 3706 1856 3706 1288 
Q 3706 609 3251 259 
Q 2797 -91 1919 -91 
Q 1588 -91 1214 -16 
Q 841 59 441 206 
L 441 856 
Q 825 641 1194 531 
Q 1563 422 1919 422 
Q 2459 422 2753 634 
Q 3047 847 3047 1241 
Q 3047 1584 2836 1778 
Q 2625 1972 2144 2069 
L 1759 2144 
Q 1053 2284 737 2584 
Q 422 2884 422 3419 
Q 422 4038 858 4394 
Q 1294 4750 2059 4750 
Q 2388 4750 2728 4690 
Q 3069 4631 3425 4513 
z
" transform="scale(0.015625)"/>
        <path id="DejaVuSans-42" d="M 1259 2228 
L 1259 519 
L 2272 519 
Q 2781 519 3026 730 
Q 3272 941 3272 1375 
Q 3272 1813 3026 2020 
Q 2781 2228 2272 2228 
L 1259 2228 
z
M 1259 4147 
L 1259 2741 
L 2194 2741 
Q 2656 2741 2882 2914 
Q 3109 3088 3109 3444 
Q 3109 3797 2882 3972 
Q 2656 4147 2194 4147 
L 1259 4147 
z
M 628 4666 
L 2241 4666 
Q 2963 4666 3353 4366 
Q 3744 4066 3744 3513 
Q 3744 3084 3544 2831 
Q 3344 2578 2956 2516 
Q 3422 2416 3680 2098 
Q 3938 1781 3938 1306 
Q 3938 681 3513 340 
Q 3088 0 2303 0 
L 628 0 
L 628 4666 
z
" transform="scale(0.015625)"/>
        <path id="DejaVuSans-52" d="M 2841 2188 
Q 3044 2119 3236 1894 
Q 3428 1669 3622 1275 
L 4263 0 
L 3584 0 
L 2988 1197 
Q 2756 1666 2539 1819 
Q 2322 1972 1947 1972 
L 1259 1972 
L 1259 0 
L 628 0 
L 628 4666 
L 2053 4666 
Q 2853 4666 3247 4331 
Q 3641 3997 3641 3322 
Q 3641 2881 3436 2590 
Q 3231 2300 2841 2188 
z
M 1259 4147 
L 1259 2491 
L 2053 2491 
Q 2509 2491 2742 2702 
Q 2975 2913 2975 3322 
Q 2975 3731 2742 3939 
Q 2509 4147 2053 4147 
L 1259 4147 
z
" transform="scale(0.015625)"/>
       </defs>
       <use xlink:href="#DejaVuSans-50"/>
       <use xlink:href="#DejaVuSans-53" x="60.302734"/>
       <use xlink:href="#DejaVuSans-42" x="123.779297"/>
       <use xlink:href="#DejaVuSans-52" x="192.382812"/>
      </g>
     </g>
    </g>
    <g id="xtick_4">
     <g id="line2d_4">
      <g>
       <use xlink:href="#ma802576755" x="265.239607" y="352.8" style="stroke: #000000; stroke-width: 0.8"/>
      </g>
     </g>
     <g id="text_4">
      <!-- FED A -->
      <g transform="translate(268.550857 395.546875)rotate(-90)scale(0.12 -0.12)">
       <defs>
        <path id="DejaVuSans-46" d="M 628 4666 
L 3309 4666 
L 3309 4134 
L 1259 4134 
L 1259 2759 
L 3109 2759 
L 3109 2228 
L 1259 2228 
L 1259 0 
L 628 0 
L 628 4666 
z
" transform="scale(0.015625)"/>
        <path id="DejaVuSans-45" d="M 628 4666 
L 3578 4666 
L 3578 4134 
L 1259 4134 
L 1259 2753 
L 3481 2753 
L 3481 2222 
L 1259 2222 
L 1259 531 
L 3634 531 
L 3634 0 
L 628 0 
L 628 4666 
z
" transform="scale(0.015625)"/>
        <path id="DejaVuSans-44" d="M 1259 4147 
L 1259 519 
L 2022 519 
Q 2988 519 3436 956 
Q 3884 1394 3884 2338 
Q 3884 3275 3436 3711 
Q 2988 4147 2022 4147 
L 1259 4147 
z
M 628 4666 
L 1925 4666 
Q 3281 4666 3915 4102 
Q 4550 3538 4550 2338 
Q 4550 1131 3912 565 
Q 3275 0 1925 0 
L 628 0 
L 628 4666 
z
" transform="scale(0.015625)"/>
        <path id="DejaVuSans-20" transform="scale(0.015625)"/>
       </defs>
       <use xlink:href="#DejaVuSans-46"/>
       <use xlink:href="#DejaVuSans-45" x="57.519531"/>
       <use xlink:href="#DejaVuSans-44" x="120.703125"/>
       <use xlink:href="#DejaVuSans-20" x="197.705078"/>
       <use xlink:href="#DejaVuSans-41" x="229.492188"/>
      </g>
     </g>
    </g>
    <g id="xtick_5">
     <g id="line2d_5">
      <g>
       <use xlink:href="#ma802576755" x="309.594687" y="352.8" style="stroke: #000000; stroke-width: 0.8"/>
      </g>
     </g>
     <g id="text_5">
      <!-- RBCS3B -->
      <g transform="translate(312.905937 408.026875)rotate(-90)scale(0.12 -0.12)">
       <defs>
        <path id="DejaVuSans-43" d="M 4122 4306 
L 4122 3641 
Q 3803 3938 3442 4084 
Q 3081 4231 2675 4231 
Q 1875 4231 1450 3742 
Q 1025 3253 1025 2328 
Q 1025 1406 1450 917 
Q 1875 428 2675 428 
Q 3081 428 3442 575 
Q 3803 722 4122 1019 
L 4122 359 
Q 3791 134 3420 21 
Q 3050 -91 2638 -91 
Q 1578 -91 968 557 
Q 359 1206 359 2328 
Q 359 3453 968 4101 
Q 1578 4750 2638 4750 
Q 3056 4750 3426 4639 
Q 3797 4528 4122 4306 
z
" transform="scale(0.015625)"/>
       </defs>
       <use xlink:href="#DejaVuSans-52"/>
       <use xlink:href="#DejaVuSans-42" x="69.482422"/>
       <use xlink:href="#DejaVuSans-43" x="136.335938"/>
       <use xlink:href="#DejaVuSans-53" x="206.160156"/>
       <use xlink:href="#DejaVuSans-33" x="269.636719"/>
       <use xlink:href="#DejaVuSans-42" x="333.259766"/>
      </g>
     </g>
    </g>
    <g id="xtick_6">
     <g id="line2d_6">
      <g>
       <use xlink:href="#ma802576755" x="353.949768" y="352.8" style="stroke: #000000; stroke-width: 0.8"/>
      </g>
     </g>
     <g id="text_6">
      <!-- AT3G41768 -->
      <g transform="translate(357.261018 429.51625)rotate(-90)scale(0.12 -0.12)">
       <defs>
        <path id="DejaVuSans-34" d="M 2419 4116 
L 825 1625 
L 2419 1625 
L 2419 4116 
z
M 2253 4666 
L 3047 4666 
L 3047 1625 
L 3713 1625 
L 3713 1100 
L 3047 1100 
L 3047 0 
L 2419 0 
L 2419 1100 
L 313 1100 
L 313 1709 
L 2253 4666 
z
" transform="scale(0.015625)"/>
        <path id="DejaVuSans-31" d="M 794 531 
L 1825 531 
L 1825 4091 
L 703 3866 
L 703 4441 
L 1819 4666 
L 2450 4666 
L 2450 531 
L 3481 531 
L 3481 0 
L 794 0 
L 794 531 
z
" transform="scale(0.015625)"/>
        <path id="DejaVuSans-37" d="M 525 4666 
L 3525 4666 
L 3525 4397 
L 1831 0 
L 1172 0 
L 2766 4134 
L 525 4134 
L 525 4666 
z
" transform="scale(0.015625)"/>
        <path id="DejaVuSans-38" d="M 2034 2216 
Q 1584 2216 1326 1975 
Q 1069 1734 1069 1313 
Q 1069 891 1326 650 
Q 1584 409 2034 409 
Q 2484 409 2743 651 
Q 3003 894 3003 1313 
Q 3003 1734 2745 1975 
Q 2488 2216 2034 2216 
z
M 1403 2484 
Q 997 2584 770 2862 
Q 544 3141 544 3541 
Q 544 4100 942 4425 
Q 1341 4750 2034 4750 
Q 2731 4750 3128 4425 
Q 3525 4100 3525 3541 
Q 3525 3141 3298 2862 
Q 3072 2584 2669 2484 
Q 3125 2378 3379 2068 
Q 3634 1759 3634 1313 
Q 3634 634 3220 271 
Q 2806 -91 2034 -91 
Q 1263 -91 848 271 
Q 434 634 434 1313 
Q 434 1759 690 2068 
Q 947 2378 1403 2484 
z
M 1172 3481 
Q 1172 3119 1398 2916 
Q 1625 2713 2034 2713 
Q 2441 2713 2670 2916 
Q 2900 3119 2900 3481 
Q 2900 3844 2670 4047 
Q 2441 4250 2034 4250 
Q 1625 4250 1398 4047 
Q 1172 3844 1172 3481 
z
" transform="scale(0.015625)"/>
       </defs>
       <use xlink:href="#DejaVuSans-41"/>
       <use xlink:href="#DejaVuSans-54" x="60.658203"/>
       <use xlink:href="#DejaVuSans-33" x="121.742188"/>
       <use xlink:href="#DejaVuSans-47" x="185.365234"/>
       <use xlink:href="#DejaVuSans-34" x="262.855469"/>
       <use xlink:href="#DejaVuSans-31" x="326.478516"/>
       <use xlink:href="#DejaVuSans-37" x="390.101562"/>
       <use xlink:href="#DejaVuSans-36" x="453.724609"/>
       <use xlink:href="#DejaVuSans-38" x="517.347656"/>
      </g>
     </g>
    </g>
    <g id="xtick_7">
     <g id="line2d_7">
      <g>
       <use xlink:href="#ma802576755" x="398.304848" y="352.8" style="stroke: #000000; stroke-width: 0.8"/>
      </g>
     </g>
     <g id="text_7">
      <!-- AT2G33830 -->
      <g transform="translate(401.616098 429.51625)rotate(-90)scale(0.12 -0.12)">
       <use xlink:href="#DejaVuSans-41"/>
       <use xlink:href="#DejaVuSans-54" x="60.658203"/>
       <use xlink:href="#DejaVuSans-32" x="121.742188"/>
       <use xlink:href="#DejaVuSans-47" x="185.365234"/>
       <use xlink:href="#DejaVuSans-33" x="262.855469"/>
       <use xlink:href="#DejaVuSans-33" x="326.478516"/>
       <use xlink:href="#DejaVuSans-38" x="390.101562"/>
       <use xlink:href="#DejaVuSans-33" x="453.724609"/>
       <use xlink:href="#DejaVuSans-30" x="517.347656"/>
      </g>
     </g>
    </g>
    <g id="xtick_8">
     <g id="line2d_8">
      <g>
       <use xlink:href="#ma802576755" x="442.659928" y="352.8" style="stroke: #000000; stroke-width: 0.8"/>
      </g>
     </g>
     <g id="text_8">
      <!-- GRP3S -->
      <g transform="translate(445.971178 399.925)rotate(-90)scale(0.12 -0.12)">
       <use xlink:href="#DejaVuSans-47"/>
       <use xlink:href="#DejaVuSans-52" x="77.490234"/>
       <use xlink:href="#DejaVuSans-50" x="146.972656"/>
       <use xlink:href="#DejaVuSans-33" x="207.275391"/>
       <use xlink:href="#DejaVuSans-53" x="270.898438"/>
      </g>
     </g>
    </g>
    <g id="xtick_9">
     <g id="line2d_9">
      <g>
       <use xlink:href="#ma802576755" x="487.015008" y="352.8" style="stroke: #000000; stroke-width: 0.8"/>
      </g>
     </g>
     <g id="text_9">
      <!-- GASA1 -->
      <g transform="translate(490.326258 400.99375)rotate(-90)scale(0.12 -0.12)">
       <use xlink:href="#DejaVuSans-47"/>
       <use xlink:href="#DejaVuSans-41" x="77.490234"/>
       <use xlink:href="#DejaVuSans-53" x="145.898438"/>
       <use xlink:href="#DejaVuSans-41" x="211.25"/>
       <use xlink:href="#DejaVuSans-31" x="279.658203"/>
      </g>
     </g>
    </g>
   </g>
   <g id="matplotlib.axis_2">
    <g id="ytick_1">
     <g id="line2d_10">
      <defs>
       <path id="m53fe5b944d" d="M 0 0 
L -3.5 0 
" style="stroke: #000000; stroke-width: 0.8"/>
      </defs>
      <g>
       <use xlink:href="#m53fe5b944d" x="102.234688" y="338.891065" style="stroke: #000000; stroke-width: 0.8"/>
      </g>
     </g>
     <g id="text_10">
      <!-- 0.005 -->
      <g transform="translate(28.620625 345.729659)scale(0.18 -0.18)">
       <defs>
        <path id="DejaVuSans-2212" d="M 678 2272 
L 4684 2272 
L 4684 1741 
L 678 1741 
L 678 2272 
z
" transform="scale(0.015625)"/>
        <path id="DejaVuSans-2e" d="M 684 794 
L 1344 794 
L 1344 0 
L 684 0 
L 684 794 
z
" transform="scale(0.015625)"/>
       </defs>
       <use xlink:href="#DejaVuSans-2212"/>
       <use xlink:href="#DejaVuSans-30" x="83.789062"/>
       <use xlink:href="#DejaVuSans-2e" x="147.412109"/>
       <use xlink:href="#DejaVuSans-30" x="179.199219"/>
       <use xlink:href="#DejaVuSans-30" x="242.822266"/>
       <use xlink:href="#DejaVuSans-35" x="306.445312"/>
      </g>
     </g>
    </g>
    <g id="ytick_2">
     <g id="line2d_11">
      <g>
       <use xlink:href="#m53fe5b944d" x="102.234688" y="294.07027" style="stroke: #000000; stroke-width: 0.8"/>
      </g>
     </g>
     <g id="text_11">
      <!-- 0.004 -->
      <g transform="translate(28.620625 300.908864)scale(0.18 -0.18)">
       <use xlink:href="#DejaVuSans-2212"/>
       <use xlink:href="#DejaVuSans-30" x="83.789062"/>
       <use xlink:href="#DejaVuSans-2e" x="147.412109"/>
       <use xlink:href="#DejaVuSans-30" x="179.199219"/>
       <use xlink:href="#DejaVuSans-30" x="242.822266"/>
       <use xlink:href="#DejaVuSans-34" x="306.445312"/>
      </g>
     </g>
    </g>
    <g id="ytick_3">
     <g id="line2d_12">
      <g>
       <use xlink:href="#m53fe5b944d" x="102.234688" y="249.249475" style="stroke: #000000; stroke-width: 0.8"/>
      </g>
     </g>
     <g id="text_12">
      <!-- 0.003 -->
      <g transform="translate(28.620625 256.088069)scale(0.18 -0.18)">
       <use xlink:href="#DejaVuSans-2212"/>
       <use xlink:href="#DejaVuSans-30" x="83.789062"/>
       <use xlink:href="#DejaVuSans-2e" x="147.412109"/>
       <use xlink:href="#DejaVuSans-30" x="179.199219"/>
       <use xlink:href="#DejaVuSans-30" x="242.822266"/>
       <use xlink:href="#DejaVuSans-33" x="306.445312"/>
      </g>
     </g>
    </g>
    <g id="ytick_4">
     <g id="line2d_13">
      <g>
       <use xlink:href="#m53fe5b944d" x="102.234688" y="204.428681" style="stroke: #000000; stroke-width: 0.8"/>
      </g>
     </g>
     <g id="text_13">
      <!-- 0.002 -->
      <g transform="translate(28.620625 211.267274)scale(0.18 -0.18)">
       <use xlink:href="#DejaVuSans-2212"/>
       <use xlink:href="#DejaVuSans-30" x="83.789062"/>
       <use xlink:href="#DejaVuSans-2e" x="147.412109"/>
       <use xlink:href="#DejaVuSans-30" x="179.199219"/>
       <use xlink:href="#DejaVuSans-30" x="242.822266"/>
       <use xlink:href="#DejaVuSans-32" x="306.445312"/>
      </g>
     </g>
    </g>
    <g id="ytick_5">
     <g id="line2d_14">
      <g>
       <use xlink:href="#m53fe5b944d" x="102.234688" y="159.607886" style="stroke: #000000; stroke-width: 0.8"/>
      </g>
     </g>
     <g id="text_14">
      <!-- 0.001 -->
      <g transform="translate(28.620625 166.44648)scale(0.18 -0.18)">
       <use xlink:href="#DejaVuSans-2212"/>
       <use xlink:href="#DejaVuSans-30" x="83.789062"/>
       <use xlink:href="#DejaVuSans-2e" x="147.412109"/>
       <use xlink:href="#DejaVuSans-30" x="179.199219"/>
       <use xlink:href="#DejaVuSans-30" x="242.822266"/>
       <use xlink:href="#DejaVuSans-31" x="306.445312"/>
      </g>
     </g>
    </g>
    <g id="ytick_6">
     <g id="line2d_15">
      <g>
       <use xlink:href="#m53fe5b944d" x="102.234688" y="114.787091" style="stroke: #000000; stroke-width: 0.8"/>
      </g>
     </g>
     <g id="text_15">
      <!-- 0.000 -->
      <g transform="translate(43.704063 121.625685)scale(0.18 -0.18)">
       <use xlink:href="#DejaVuSans-30"/>
       <use xlink:href="#DejaVuSans-2e" x="63.623047"/>
       <use xlink:href="#DejaVuSans-30" x="95.410156"/>
       <use xlink:href="#DejaVuSans-30" x="159.033203"/>
       <use xlink:href="#DejaVuSans-30" x="222.65625"/>
      </g>
     </g>
    </g>
    <g id="ytick_7">
     <g id="line2d_16">
      <g>
       <use xlink:href="#m53fe5b944d" x="102.234688" y="69.966296" style="stroke: #000000; stroke-width: 0.8"/>
      </g>
     </g>
     <g id="text_16">
      <!-- 0.001 -->
      <g transform="translate(43.704063 76.80489)scale(0.18 -0.18)">
       <use xlink:href="#DejaVuSans-30"/>
       <use xlink:href="#DejaVuSans-2e" x="63.623047"/>
       <use xlink:href="#DejaVuSans-30" x="95.410156"/>
       <use xlink:href="#DejaVuSans-30" x="159.033203"/>
       <use xlink:href="#DejaVuSans-31" x="222.65625"/>
      </g>
     </g>
    </g>
    <g id="ytick_8">
     <g id="line2d_17">
      <g>
       <use xlink:href="#m53fe5b944d" x="102.234688" y="25.145501" style="stroke: #000000; stroke-width: 0.8"/>
      </g>
     </g>
     <g id="text_17">
      <!-- 0.002 -->
      <g transform="translate(43.704063 31.984095)scale(0.18 -0.18)">
       <use xlink:href="#DejaVuSans-30"/>
       <use xlink:href="#DejaVuSans-2e" x="63.623047"/>
       <use xlink:href="#DejaVuSans-30" x="95.410156"/>
       <use xlink:href="#DejaVuSans-30" x="159.033203"/>
       <use xlink:href="#DejaVuSans-32" x="222.65625"/>
      </g>
     </g>
    </g>
    <g id="text_18">
     <!-- Coefficients of gene expression -->
     <g transform="translate(20.877187 321.366094)rotate(-90)scale(0.18 -0.18)">
      <defs>
       <path id="DejaVuSans-6f" d="M 1959 3097 
Q 1497 3097 1228 2736 
Q 959 2375 959 1747 
Q 959 1119 1226 758 
Q 1494 397 1959 397 
Q 2419 397 2687 759 
Q 2956 1122 2956 1747 
Q 2956 2369 2687 2733 
Q 2419 3097 1959 3097 
z
M 1959 3584 
Q 2709 3584 3137 3096 
Q 3566 2609 3566 1747 
Q 3566 888 3137 398 
Q 2709 -91 1959 -91 
Q 1206 -91 779 398 
Q 353 888 353 1747 
Q 353 2609 779 3096 
Q 1206 3584 1959 3584 
z
" transform="scale(0.015625)"/>
       <path id="DejaVuSans-65" d="M 3597 1894 
L 3597 1613 
L 953 1613 
Q 991 1019 1311 708 
Q 1631 397 2203 397 
Q 2534 397 2845 478 
Q 3156 559 3463 722 
L 3463 178 
Q 3153 47 2828 -22 
Q 2503 -91 2169 -91 
Q 1331 -91 842 396 
Q 353 884 353 1716 
Q 353 2575 817 3079 
Q 1281 3584 2069 3584 
Q 2775 3584 3186 3129 
Q 3597 2675 3597 1894 
z
M 3022 2063 
Q 3016 2534 2758 2815 
Q 2500 3097 2075 3097 
Q 1594 3097 1305 2825 
Q 1016 2553 972 2059 
L 3022 2063 
z
" transform="scale(0.015625)"/>
       <path id="DejaVuSans-66" d="M 2375 4863 
L 2375 4384 
L 1825 4384 
Q 1516 4384 1395 4259 
Q 1275 4134 1275 3809 
L 1275 3500 
L 2222 3500 
L 2222 3053 
L 1275 3053 
L 1275 0 
L 697 0 
L 697 3053 
L 147 3053 
L 147 3500 
L 697 3500 
L 697 3744 
Q 697 4328 969 4595 
Q 1241 4863 1831 4863 
L 2375 4863 
z
" transform="scale(0.015625)"/>
       <path id="DejaVuSans-69" d="M 603 3500 
L 1178 3500 
L 1178 0 
L 603 0 
L 603 3500 
z
M 603 4863 
L 1178 4863 
L 1178 4134 
L 603 4134 
L 603 4863 
z
" transform="scale(0.015625)"/>
       <path id="DejaVuSans-63" d="M 3122 3366 
L 3122 2828 
Q 2878 2963 2633 3030 
Q 2388 3097 2138 3097 
Q 1578 3097 1268 2742 
Q 959 2388 959 1747 
Q 959 1106 1268 751 
Q 1578 397 2138 397 
Q 2388 397 2633 464 
Q 2878 531 3122 666 
L 3122 134 
Q 2881 22 2623 -34 
Q 2366 -91 2075 -91 
Q 1284 -91 818 406 
Q 353 903 353 1747 
Q 353 2603 823 3093 
Q 1294 3584 2113 3584 
Q 2378 3584 2631 3529 
Q 2884 3475 3122 3366 
z
" transform="scale(0.015625)"/>
       <path id="DejaVuSans-6e" d="M 3513 2113 
L 3513 0 
L 2938 0 
L 2938 2094 
Q 2938 2591 2744 2837 
Q 2550 3084 2163 3084 
Q 1697 3084 1428 2787 
Q 1159 2491 1159 1978 
L 1159 0 
L 581 0 
L 581 3500 
L 1159 3500 
L 1159 2956 
Q 1366 3272 1645 3428 
Q 1925 3584 2291 3584 
Q 2894 3584 3203 3211 
Q 3513 2838 3513 2113 
z
" transform="scale(0.015625)"/>
       <path id="DejaVuSans-74" d="M 1172 4494 
L 1172 3500 
L 2356 3500 
L 2356 3053 
L 1172 3053 
L 1172 1153 
Q 1172 725 1289 603 
Q 1406 481 1766 481 
L 2356 481 
L 2356 0 
L 1766 0 
Q 1100 0 847 248 
Q 594 497 594 1153 
L 594 3053 
L 172 3053 
L 172 3500 
L 594 3500 
L 594 4494 
L 1172 4494 
z
" transform="scale(0.015625)"/>
       <path id="DejaVuSans-73" d="M 2834 3397 
L 2834 2853 
Q 2591 2978 2328 3040 
Q 2066 3103 1784 3103 
Q 1356 3103 1142 2972 
Q 928 2841 928 2578 
Q 928 2378 1081 2264 
Q 1234 2150 1697 2047 
L 1894 2003 
Q 2506 1872 2764 1633 
Q 3022 1394 3022 966 
Q 3022 478 2636 193 
Q 2250 -91 1575 -91 
Q 1294 -91 989 -36 
Q 684 19 347 128 
L 347 722 
Q 666 556 975 473 
Q 1284 391 1588 391 
Q 1994 391 2212 530 
Q 2431 669 2431 922 
Q 2431 1156 2273 1281 
Q 2116 1406 1581 1522 
L 1381 1569 
Q 847 1681 609 1914 
Q 372 2147 372 2553 
Q 372 3047 722 3315 
Q 1072 3584 1716 3584 
Q 2034 3584 2315 3537 
Q 2597 3491 2834 3397 
z
" transform="scale(0.015625)"/>
       <path id="DejaVuSans-67" d="M 2906 1791 
Q 2906 2416 2648 2759 
Q 2391 3103 1925 3103 
Q 1463 3103 1205 2759 
Q 947 2416 947 1791 
Q 947 1169 1205 825 
Q 1463 481 1925 481 
Q 2391 481 2648 825 
Q 2906 1169 2906 1791 
z
M 3481 434 
Q 3481 -459 3084 -895 
Q 2688 -1331 1869 -1331 
Q 1566 -1331 1297 -1286 
Q 1028 -1241 775 -1147 
L 775 -588 
Q 1028 -725 1275 -790 
Q 1522 -856 1778 -856 
Q 2344 -856 2625 -561 
Q 2906 -266 2906 331 
L 2906 616 
Q 2728 306 2450 153 
Q 2172 0 1784 0 
Q 1141 0 747 490 
Q 353 981 353 1791 
Q 353 2603 747 3093 
Q 1141 3584 1784 3584 
Q 2172 3584 2450 3431 
Q 2728 3278 2906 2969 
L 2906 3500 
L 3481 3500 
L 3481 434 
z
" transform="scale(0.015625)"/>
       <path id="DejaVuSans-78" d="M 3513 3500 
L 2247 1797 
L 3578 0 
L 2900 0 
L 1881 1375 
L 863 0 
L 184 0 
L 1544 1831 
L 300 3500 
L 978 3500 
L 1906 2253 
L 2834 3500 
L 3513 3500 
z
" transform="scale(0.015625)"/>
       <path id="DejaVuSans-70" d="M 1159 525 
L 1159 -1331 
L 581 -1331 
L 581 3500 
L 1159 3500 
L 1159 2969 
Q 1341 3281 1617 3432 
Q 1894 3584 2278 3584 
Q 2916 3584 3314 3078 
Q 3713 2572 3713 1747 
Q 3713 922 3314 415 
Q 2916 -91 2278 -91 
Q 1894 -91 1617 61 
Q 1341 213 1159 525 
z
M 3116 1747 
Q 3116 2381 2855 2742 
Q 2594 3103 2138 3103 
Q 1681 3103 1420 2742 
Q 1159 2381 1159 1747 
Q 1159 1113 1420 752 
Q 1681 391 2138 391 
Q 2594 391 2855 752 
Q 3116 1113 3116 1747 
z
" transform="scale(0.015625)"/>
       <path id="DejaVuSans-72" d="M 2631 2963 
Q 2534 3019 2420 3045 
Q 2306 3072 2169 3072 
Q 1681 3072 1420 2755 
Q 1159 2438 1159 1844 
L 1159 0 
L 581 0 
L 581 3500 
L 1159 3500 
L 1159 2956 
Q 1341 3275 1631 3429 
Q 1922 3584 2338 3584 
Q 2397 3584 2469 3576 
Q 2541 3569 2628 3553 
L 2631 2963 
z
" transform="scale(0.015625)"/>
      </defs>
      <use xlink:href="#DejaVuSans-43"/>
      <use xlink:href="#DejaVuSans-6f" x="69.824219"/>
      <use xlink:href="#DejaVuSans-65" x="131.005859"/>
      <use xlink:href="#DejaVuSans-66" x="192.529297"/>
      <use xlink:href="#DejaVuSans-66" x="227.734375"/>
      <use xlink:href="#DejaVuSans-69" x="262.939453"/>
      <use xlink:href="#DejaVuSans-63" x="290.722656"/>
      <use xlink:href="#DejaVuSans-69" x="345.703125"/>
      <use xlink:href="#DejaVuSans-65" x="373.486328"/>
      <use xlink:href="#DejaVuSans-6e" x="435.009766"/>
      <use xlink:href="#DejaVuSans-74" x="498.388672"/>
      <use xlink:href="#DejaVuSans-73" x="537.597656"/>
      <use xlink:href="#DejaVuSans-20" x="589.697266"/>
      <use xlink:href="#DejaVuSans-6f" x="621.484375"/>
      <use xlink:href="#DejaVuSans-66" x="682.666016"/>
      <use xlink:href="#DejaVuSans-20" x="717.871094"/>
      <use xlink:href="#DejaVuSans-67" x="749.658203"/>
      <use xlink:href="#DejaVuSans-65" x="813.134766"/>
      <use xlink:href="#DejaVuSans-6e" x="874.658203"/>
      <use xlink:href="#DejaVuSans-65" x="938.037109"/>
      <use xlink:href="#DejaVuSans-20" x="999.560547"/>
      <use xlink:href="#DejaVuSans-65" x="1031.347656"/>
      <use xlink:href="#DejaVuSans-78" x="1091.121094"/>
      <use xlink:href="#DejaVuSans-70" x="1150.300781"/>
      <use xlink:href="#DejaVuSans-72" x="1213.777344"/>
      <use xlink:href="#DejaVuSans-65" x="1252.640625"/>
      <use xlink:href="#DejaVuSans-73" x="1314.164062"/>
      <use xlink:href="#DejaVuSans-73" x="1366.263672"/>
      <use xlink:href="#DejaVuSans-69" x="1418.363281"/>
      <use xlink:href="#DejaVuSans-6f" x="1446.146484"/>
      <use xlink:href="#DejaVuSans-6e" x="1507.328125"/>
     </g>
    </g>
   </g>
   <g id="LineCollection_1">
    <path d="M 132.174367 308.889662 
L 132.174367 295.827285 
" clip-path="url(#pe9fc2f74f5)" style="fill: none; stroke: #000000; stroke-width: 5"/>
    <path d="M 176.529447 185.852105 
L 176.529447 166.747557 
" clip-path="url(#pe9fc2f74f5)" style="fill: none; stroke: #000000; stroke-width: 5"/>
    <path d="M 220.884527 164.695283 
L 220.884527 157.28907 
" clip-path="url(#pe9fc2f74f5)" style="fill: none; stroke: #000000; stroke-width: 5"/>
    <path d="M 265.239607 159.901861 
L 265.239607 148.952926 
" clip-path="url(#pe9fc2f74f5)" style="fill: none; stroke: #000000; stroke-width: 5"/>
    <path d="M 309.594687 126.257628 
L 309.594687 124.516876 
" clip-path="url(#pe9fc2f74f5)" style="fill: none; stroke: #000000; stroke-width: 5"/>
    <path d="M 353.949768 125.427194 
L 353.949768 124.4919 
" clip-path="url(#pe9fc2f74f5)" style="fill: none; stroke: #000000; stroke-width: 5"/>
    <path d="M 398.304848 102.905804 
L 398.304848 98.779231 
" clip-path="url(#pe9fc2f74f5)" style="fill: none; stroke: #000000; stroke-width: 5"/>
    <path d="M 442.659928 73.046517 
L 442.659928 63.412399 
" clip-path="url(#pe9fc2f74f5)" style="fill: none; stroke: #000000; stroke-width: 5"/>
    <path d="M 487.015008 47.227126 
L 487.015008 35.779714 
" clip-path="url(#pe9fc2f74f5)" style="fill: none; stroke: #000000; stroke-width: 5"/>
   </g>
   <g id="LineCollection_2">
    <path d="M 132.174367 308.889662 
L 132.174367 303.475307 
" clip-path="url(#pe9fc2f74f5)" style="fill: none; stroke: #000000"/>
    <path d="M 176.529447 188.380432 
L 176.529447 186.220496 
" clip-path="url(#pe9fc2f74f5)" style="fill: none; stroke: #000000"/>
    <path d="M 220.884527 164.695283 
L 220.884527 153.871646 
" clip-path="url(#pe9fc2f74f5)" style="fill: none; stroke: #000000"/>
    <path d="M 265.239607 159.901861 
L 265.239607 161.179658 
" clip-path="url(#pe9fc2f74f5)" style="fill: none; stroke: #000000"/>
    <path d="M 309.594687 126.257628 
L 309.594687 125.13138 
" clip-path="url(#pe9fc2f74f5)" style="fill: none; stroke: #000000"/>
    <path d="M 353.949768 125.427194 
L 353.949768 125.223499 
" clip-path="url(#pe9fc2f74f5)" style="fill: none; stroke: #000000"/>
    <path d="M 398.304848 102.905804 
L 398.304848 99.10225 
" clip-path="url(#pe9fc2f74f5)" style="fill: none; stroke: #000000"/>
    <path d="M 442.659928 73.046517 
L 442.659928 74.035475 
" clip-path="url(#pe9fc2f74f5)" style="fill: none; stroke: #000000"/>
    <path d="M 487.015008 47.227126 
L 487.015008 36.240298 
" clip-path="url(#pe9fc2f74f5)" style="fill: none; stroke: #000000"/>
   </g>
   <g id="line2d_18">
    <path d="M 102.234688 114.787091 
L 516.954687 114.787091 
" clip-path="url(#pe9fc2f74f5)" style="fill: none; stroke-dasharray: 5.55,2.4; stroke-dashoffset: 0; stroke: #000000; stroke-width: 1.5"/>
   </g>
   <g id="patch_3">
    <path d="M 102.234688 352.8 
L 102.234688 7.2 
" style="fill: none; stroke: #000000; stroke-width: 0.8; stroke-linejoin: miter; stroke-linecap: square"/>
   </g>
   <g id="patch_4">
    <path d="M 516.954687 352.8 
L 516.954687 7.2 
" style="fill: none; stroke: #000000; stroke-width: 0.8; stroke-linejoin: miter; stroke-linecap: square"/>
   </g>
   <g id="patch_5">
    <path d="M 102.234688 352.8 
L 516.954687 352.8 
" style="fill: none; stroke: #000000; stroke-width: 0.8; stroke-linejoin: miter; stroke-linecap: square"/>
   </g>
   <g id="patch_6">
    <path d="M 102.234688 7.2 
L 516.954687 7.2 
" style="fill: none; stroke: #000000; stroke-width: 0.8; stroke-linejoin: miter; stroke-linecap: square"/>
   </g>
   <g id="PathCollection_1">
    <defs>
     <path id="mb930abdcc4" d="M 0 2.738613 
C 0.726289 2.738613 1.422928 2.450055 1.936492 1.936492 
C 2.450055 1.422928 2.738613 0.726289 2.738613 0 
C 2.738613 -0.726289 2.450055 -1.422928 1.936492 -1.936492 
C 1.422928 -2.450055 0.726289 -2.738613 0 -2.738613 
C -0.726289 -2.738613 -1.422928 -2.450055 -1.936492 -1.936492 
C -2.450055 -1.422928 -2.738613 -0.726289 -2.738613 0 
C -2.738613 0.726289 -2.450055 1.422928 -1.936492 1.936492 
C -1.422928 2.450055 -0.726289 2.738613 0 2.738613 
z
" style="stroke: #ffffff"/>
    </defs>
    <g clip-path="url(#pe9fc2f74f5)">
     <use xlink:href="#mb930abdcc4" x="132.174367" y="303.286931" style="fill: #ffffff; stroke: #ffffff"/>
     <use xlink:href="#mb930abdcc4" x="176.529447" y="180.50534" style="fill: #ffffff; stroke: #ffffff"/>
     <use xlink:href="#mb930abdcc4" x="220.884527" y="159.29333" style="fill: #ffffff; stroke: #ffffff"/>
     <use xlink:href="#mb930abdcc4" x="265.239607" y="154.529705" style="fill: #ffffff; stroke: #ffffff"/>
     <use xlink:href="#mb930abdcc4" x="309.594687" y="125.150074" style="fill: #ffffff; stroke: #ffffff"/>
     <use xlink:href="#mb930abdcc4" x="353.949768" y="125.118743" style="fill: #ffffff; stroke: #ffffff"/>
     <use xlink:href="#mb930abdcc4" x="398.304848" y="100.958357" style="fill: #ffffff; stroke: #ffffff"/>
     <use xlink:href="#mb930abdcc4" x="442.659928" y="68.626866" style="fill: #ffffff; stroke: #ffffff"/>
     <use xlink:href="#mb930abdcc4" x="487.015008" y="40.064994" style="fill: #ffffff; stroke: #ffffff"/>
    </g>
   </g>
  </g>
 </g>
 <defs>
  <clipPath id="pe9fc2f74f5">
   <rect x="102.234688" y="7.2" width="414.72" height="345.6"/>
  </clipPath>
 </defs>
</svg>
