<?xml version="1.0" encoding="utf-8" standalone="no"?>
<!DOCTYPE svg PUBLIC "-//W3C//DTD SVG 1.1//EN"
  "http://www.w3.org/Graphics/SVG/1.1/DTD/svg11.dtd">
<svg xmlns:xlink="http://www.w3.org/1999/xlink" width="516.753125pt" height="436.71625pt" viewBox="0 0 516.753125 436.71625" xmlns="http://www.w3.org/2000/svg" version="1.1">
 <metadata>
  <rdf:RDF xmlns:dc="http://purl.org/dc/elements/1.1/" xmlns:cc="http://creativecommons.org/ns#" xmlns:rdf="http://www.w3.org/1999/02/22-rdf-syntax-ns#">
   <cc:Work>
    <dc:type rdf:resource="http://purl.org/dc/dcmitype/StillImage"/>
    <dc:date>2024-01-11T18:46:01.734893</dc:date>
    <dc:format>image/svg+xml</dc:format>
    <dc:creator>
     <cc:Agent>
      <dc:title>Matplotlib v3.5.0, https://matplotlib.org/</dc:title>
     </cc:Agent>
    </dc:creator>
   </cc:Work>
  </rdf:RDF>
 </metadata>
 <defs>
  <style type="text/css">*{stroke-linejoin: round; stroke-linecap: butt}</style>
 </defs>
 <g id="figure_1">
  <g id="patch_1">
   <path d="M 0 436.71625 
L 516.753125 436.71625 
L 516.753125 0 
L 0 0 
z
" style="fill: #ffffff"/>
  </g>
  <g id="axes_1">
   <g id="patch_2">
    <path d="M 94.833125 352.8 
L 509.553125 352.8 
L 509.553125 7.2 
L 94.833125 7.2 
z
" style="fill: #ffffff"/>
   </g>
   <g id="PolyCollection_1">
    <defs>
     <path id="mbdb1d52b9d" d="M 125.399383 -99.625341 
L 124.146225 -99.625341 
L 124.069169 -101.15283 
L 123.9667 -102.680319 
L 123.823611 -104.207808 
L 123.621806 -105.735297 
L 123.34166 -107.262786 
L 122.964032 -108.790275 
L 122.472826 -110.317764 
L 121.857849 -111.845253 
L 121.117628 -113.372742 
L 120.261732 -114.900231 
L 119.312126 -116.42772 
L 118.303146 -117.955209 
L 117.279848 -119.482698 
L 116.294735 -121.010187 
L 115.403159 -122.537677 
L 114.65795 -124.065166 
L 114.10404 -125.592655 
L 113.773835 -127.120144 
L 113.684034 -128.647633 
L 113.8343 -130.175122 
L 114.207892 -131.702611 
L 114.774062 -133.2301 
L 115.491745 -134.757589 
L 116.313956 -136.285078 
L 117.192289 -137.812567 
L 118.080975 -139.340056 
L 118.940129 -140.867545 
L 119.737948 -142.395034 
L 120.451815 -143.922523 
L 121.068371 -145.450012 
L 121.582728 -146.977501 
L 121.997071 -148.50499 
L 122.318914 -150.032479 
L 122.559292 -151.559968 
L 122.731114 -153.087457 
L 122.847847 -154.614946 
L 122.922612 -156.142435 
L 122.96767 -157.669924 
L 122.994206 -159.197413 
L 123.012279 -160.724903 
L 123.030796 -162.252392 
L 123.057413 -163.779881 
L 123.098317 -165.30737 
L 123.15793 -166.834859 
L 123.238615 -168.362348 
L 123.340492 -169.889837 
L 123.461453 -171.417326 
L 123.597437 -172.944815 
L 123.742942 -174.472304 
L 123.891714 -175.999793 
L 124.03749 -177.527282 
L 124.174683 -179.054771 
L 124.298909 -180.58226 
L 124.407279 -182.109749 
L 124.498458 -183.637238 
L 124.57251 -185.164727 
L 124.630606 -186.692216 
L 124.67466 -188.219705 
L 124.706964 -189.747194 
L 124.729881 -191.274683 
L 124.745615 -192.802172 
L 124.756071 -194.329661 
L 124.762801 -195.85715 
L 124.766995 -197.384639 
L 124.769528 -198.912129 
L 124.77101 -200.439618 
L 124.77185 -201.967107 
L 124.772311 -203.494596 
L 124.772557 -205.022085 
L 124.772683 -206.549574 
L 124.772745 -208.077063 
L 124.772774 -209.604552 
L 124.772783 -211.132041 
L 124.772779 -212.65953 
L 124.77276 -214.187019 
L 124.772717 -215.714508 
L 124.772635 -217.241997 
L 124.772482 -218.769486 
L 124.772207 -220.296975 
L 124.771731 -221.824464 
L 124.770933 -223.351953 
L 124.769637 -224.879442 
L 124.767602 -226.406931 
L 124.764514 -227.93442 
L 124.759985 -229.461909 
L 124.753567 -230.989398 
L 124.744791 -232.516887 
L 124.73322 -234.044376 
L 124.718527 -235.571866 
L 124.700584 -237.099355 
L 124.679555 -238.626844 
L 124.655969 -240.154333 
L 124.630754 -241.681822 
L 124.605211 -243.209311 
L 124.580931 -244.7368 
L 124.55964 -246.264289 
L 124.543 -247.791778 
L 124.5324 -249.319267 
L 124.528758 -250.846756 
L 125.01685 -250.846756 
L 125.01685 -250.846756 
L 125.013209 -249.319267 
L 125.002608 -247.791778 
L 124.985968 -246.264289 
L 124.964677 -244.7368 
L 124.940398 -243.209311 
L 124.914855 -241.681822 
L 124.889639 -240.154333 
L 124.866053 -238.626844 
L 124.845024 -237.099355 
L 124.827081 -235.571866 
L 124.812388 -234.044376 
L 124.800817 -232.516887 
L 124.792042 -230.989398 
L 124.785624 -229.461909 
L 124.781094 -227.93442 
L 124.778006 -226.406931 
L 124.775972 -224.879442 
L 124.774676 -223.351953 
L 124.773877 -221.824464 
L 124.773401 -220.296975 
L 124.773127 -218.769486 
L 124.772973 -217.241997 
L 124.772891 -215.714508 
L 124.772849 -214.187019 
L 124.772829 -212.65953 
L 124.772825 -211.132041 
L 124.772835 -209.604552 
L 124.772863 -208.077063 
L 124.772925 -206.549574 
L 124.773052 -205.022085 
L 124.773297 -203.494596 
L 124.773759 -201.967107 
L 124.774599 -200.439618 
L 124.77608 -198.912129 
L 124.778613 -197.384639 
L 124.782807 -195.85715 
L 124.789537 -194.329661 
L 124.799994 -192.802172 
L 124.815727 -191.274683 
L 124.838644 -189.747194 
L 124.870949 -188.219705 
L 124.915003 -186.692216 
L 124.973099 -185.164727 
L 125.04715 -183.637238 
L 125.138329 -182.109749 
L 125.246699 -180.58226 
L 125.370925 -179.054771 
L 125.508119 -177.527282 
L 125.653894 -175.999793 
L 125.802666 -174.472304 
L 125.948172 -172.944815 
L 126.084155 -171.417326 
L 126.205116 -169.889837 
L 126.306993 -168.362348 
L 126.387679 -166.834859 
L 126.447291 -165.30737 
L 126.488195 -163.779881 
L 126.514812 -162.252392 
L 126.533329 -160.724903 
L 126.551402 -159.197413 
L 126.577938 -157.669924 
L 126.622996 -156.142435 
L 126.697761 -154.614946 
L 126.814494 -153.087457 
L 126.986316 -151.559968 
L 127.226694 -150.032479 
L 127.548538 -148.50499 
L 127.96288 -146.977501 
L 128.477237 -145.450012 
L 129.093793 -143.922523 
L 129.80766 -142.395034 
L 130.605479 -140.867545 
L 131.464633 -139.340056 
L 132.353319 -137.812567 
L 133.231652 -136.285078 
L 134.053863 -134.757589 
L 134.771546 -133.2301 
L 135.337716 -131.702611 
L 135.711309 -130.175122 
L 135.861574 -128.647633 
L 135.771774 -127.120144 
L 135.441568 -125.592655 
L 134.887658 -124.065166 
L 134.14245 -122.537677 
L 133.250873 -121.010187 
L 132.265761 -119.482698 
L 131.242463 -117.955209 
L 130.233482 -116.42772 
L 129.283877 -114.900231 
L 128.427981 -113.372742 
L 127.68776 -111.845253 
L 127.072782 -110.317764 
L 126.581576 -108.790275 
L 126.203948 -107.262786 
L 125.923802 -105.735297 
L 125.721997 -104.207808 
L 125.578908 -102.680319 
L 125.476439 -101.15283 
L 125.399383 -99.625341 
z
" style="stroke: #000000"/>
    </defs>
    <g clip-path="url(#p843a22e54b)">
     <use xlink:href="#mbdb1d52b9d" x="0" y="436.71625" style="fill: #d43f3a; stroke: #000000"/>
    </g>
   </g>
   <g id="PolyCollection_2">
    <defs>
     <path id="m67be1262b5" d="M 169.416631 -277.097174 
L 168.839138 -277.097174 
L 168.840411 -277.543948 
L 168.846545 -277.990721 
L 168.85665 -278.437495 
L 168.869432 -278.884269 
L 168.88325 -279.331042 
L 168.896194 -279.777816 
L 168.906177 -280.22459 
L 168.911014 -280.671364 
L 168.908511 -281.118137 
L 168.896518 -281.564911 
L 168.872976 -282.011685 
L 168.835943 -282.458458 
L 168.78358 -282.905232 
L 168.71413 -283.352006 
L 168.625851 -283.798779 
L 168.516929 -284.245553 
L 168.385361 -284.692327 
L 168.228822 -285.1391 
L 168.044526 -285.585874 
L 167.829123 -286.032648 
L 167.578644 -286.479421 
L 167.288553 -286.926195 
L 166.953934 -287.372969 
L 166.569843 -287.819742 
L 166.131836 -288.266516 
L 165.636663 -288.71329 
L 165.083068 -289.160063 
L 164.472633 -289.606837 
L 163.81054 -290.053611 
L 163.106148 -290.500384 
L 162.373253 -290.947158 
L 161.629931 -291.393932 
L 160.897918 -291.840706 
L 160.201515 -292.287479 
L 159.566083 -292.734253 
L 159.016259 -293.181027 
L 158.57407 -293.6278 
L 158.257137 -294.074574 
L 158.0772 -294.521348 
L 158.039114 -294.968121 
L 158.140455 -295.414895 
L 158.371778 -295.861669 
L 158.717498 -296.308442 
L 159.157281 -296.755216 
L 159.667783 -297.20199 
L 160.224544 -297.648763 
L 160.803821 -298.095537 
L 161.384187 -298.542311 
L 161.947759 -298.989084 
L 162.480965 -299.435858 
L 162.974842 -299.882632 
L 163.424888 -300.329405 
L 163.830562 -300.776179 
L 164.194514 -301.222953 
L 164.521683 -301.669727 
L 164.818362 -302.1165 
L 165.091313 -302.563274 
L 165.34702 -303.010048 
L 165.591111 -303.456821 
L 165.827971 -303.903595 
L 166.060537 -304.350369 
L 166.290275 -304.797142 
L 166.517288 -305.243916 
L 166.740533 -305.69069 
L 166.958104 -306.137463 
L 167.167542 -306.584237 
L 167.366148 -307.031011 
L 167.551258 -307.477784 
L 167.720476 -307.924558 
L 167.871851 -308.371332 
L 168.003984 -308.818105 
L 168.116099 -309.264879 
L 168.208056 -309.711653 
L 168.280333 -310.158426 
L 168.333989 -310.6052 
L 168.370598 -311.051974 
L 168.392175 -311.498747 
L 168.401077 -311.945521 
L 168.399893 -312.392295 
L 168.391321 -312.839069 
L 168.378027 -313.285842 
L 168.362516 -313.732616 
L 168.347003 -314.17939 
L 168.33332 -314.626163 
L 168.322852 -315.072937 
L 168.316523 -315.519711 
L 168.314825 -315.966484 
L 168.317885 -316.413258 
L 168.325565 -316.860032 
L 168.337569 -317.306805 
L 168.353543 -317.753579 
L 168.373162 -318.200353 
L 168.396181 -318.647126 
L 168.422448 -319.0939 
L 168.451889 -319.540674 
L 168.484468 -319.987447 
L 168.520123 -320.434221 
L 168.558707 -320.880995 
L 168.599944 -321.327768 
L 169.655825 -321.327768 
L 169.655825 -321.327768 
L 169.697061 -320.880995 
L 169.735646 -320.434221 
L 169.771301 -319.987447 
L 169.803879 -319.540674 
L 169.833321 -319.0939 
L 169.859588 -318.647126 
L 169.882606 -318.200353 
L 169.902226 -317.753579 
L 169.9182 -317.306805 
L 169.930204 -316.860032 
L 169.937884 -316.413258 
L 169.940944 -315.966484 
L 169.939246 -315.519711 
L 169.932917 -315.072937 
L 169.922449 -314.626163 
L 169.908765 -314.17939 
L 169.893253 -313.732616 
L 169.877741 -313.285842 
L 169.864448 -312.839069 
L 169.855875 -312.392295 
L 169.854692 -311.945521 
L 169.863593 -311.498747 
L 169.88517 -311.051974 
L 169.92178 -310.6052 
L 169.975436 -310.158426 
L 170.047713 -309.711653 
L 170.139669 -309.264879 
L 170.251784 -308.818105 
L 170.383918 -308.371332 
L 170.535292 -307.924558 
L 170.704511 -307.477784 
L 170.889621 -307.031011 
L 171.088227 -306.584237 
L 171.297665 -306.137463 
L 171.515235 -305.69069 
L 171.738481 -305.243916 
L 171.965494 -304.797142 
L 172.195232 -304.350369 
L 172.427798 -303.903595 
L 172.664657 -303.456821 
L 172.908749 -303.010048 
L 173.164456 -302.563274 
L 173.437407 -302.1165 
L 173.734085 -301.669727 
L 174.061255 -301.222953 
L 174.425207 -300.776179 
L 174.83088 -300.329405 
L 175.280927 -299.882632 
L 175.774803 -299.435858 
L 176.308009 -298.989084 
L 176.871581 -298.542311 
L 177.451948 -298.095537 
L 178.031225 -297.648763 
L 178.587986 -297.20199 
L 179.098488 -296.755216 
L 179.538271 -296.308442 
L 179.883991 -295.861669 
L 180.115314 -295.414895 
L 180.216654 -294.968121 
L 180.178568 -294.521348 
L 179.998632 -294.074574 
L 179.681699 -293.6278 
L 179.23951 -293.181027 
L 178.689686 -292.734253 
L 178.054254 -292.287479 
L 177.357851 -291.840706 
L 176.625838 -291.393932 
L 175.882516 -290.947158 
L 175.149621 -290.500384 
L 174.445229 -290.053611 
L 173.783136 -289.606837 
L 173.1727 -289.160063 
L 172.619106 -288.71329 
L 172.123932 -288.266516 
L 171.685926 -287.819742 
L 171.301834 -287.372969 
L 170.967216 -286.926195 
L 170.677125 -286.479421 
L 170.426646 -286.032648 
L 170.211243 -285.585874 
L 170.026947 -285.1391 
L 169.870407 -284.692327 
L 169.73884 -284.245553 
L 169.629918 -283.798779 
L 169.541639 -283.352006 
L 169.472188 -282.905232 
L 169.419826 -282.458458 
L 169.382792 -282.011685 
L 169.359251 -281.564911 
L 169.347258 -281.118137 
L 169.344754 -280.671364 
L 169.349592 -280.22459 
L 169.359574 -279.777816 
L 169.372519 -279.331042 
L 169.386337 -278.884269 
L 169.399119 -278.437495 
L 169.409224 -277.990721 
L 169.415357 -277.543948 
L 169.416631 -277.097174 
z
" style="stroke: #000000"/>
    </defs>
    <g clip-path="url(#p843a22e54b)">
     <use xlink:href="#m67be1262b5" x="0" y="436.71625" style="fill: #d43f3a; stroke: #000000"/>
    </g>
   </g>
   <g id="PolyCollection_3">
    <defs>
     <path id="mc8bf03d48a" d="M 213.772547 -250.545655 
L 213.193383 -250.545655 
L 213.198546 -251.377118 
L 213.213492 -252.20858 
L 213.236676 -253.040042 
L 213.265822 -253.871505 
L 213.298285 -254.702967 
L 213.331447 -255.534429 
L 213.363048 -256.365892 
L 213.391413 -257.197354 
L 213.415539 -258.028816 
L 213.435062 -258.860279 
L 213.450135 -259.691741 
L 213.461261 -260.523203 
L 213.469123 -261.354666 
L 213.474449 -262.186128 
L 213.477911 -263.01759 
L 213.480072 -263.849053 
L 213.481367 -264.680515 
L 213.482113 -265.511977 
L 213.482527 -266.34344 
L 213.482748 -267.174902 
L 213.482861 -268.006364 
L 213.482917 -268.837827 
L 213.482943 -269.669289 
L 213.482955 -270.500751 
L 213.482961 -271.332214 
L 213.482963 -272.163676 
L 213.482964 -272.995139 
L 213.482964 -273.826601 
L 213.482964 -274.658063 
L 213.482963 -275.489526 
L 213.482961 -276.320988 
L 213.482956 -277.15245 
L 213.482944 -277.983913 
L 213.482915 -278.815375 
L 213.48285 -279.646837 
L 213.482705 -280.4783 
L 213.482398 -281.309762 
L 213.48177 -282.141224 
L 213.480528 -282.972687 
L 213.478163 -283.804149 
L 213.473815 -284.635611 
L 213.4661 -285.467074 
L 213.452895 -286.298536 
L 213.431084 -287.129998 
L 213.396318 -287.961461 
L 213.342836 -288.792923 
L 213.263419 -289.624385 
L 213.149563 -290.455848 
L 212.991915 -291.28731 
L 212.781008 -292.118772 
L 212.508211 -292.950235 
L 212.166782 -293.781697 
L 211.752812 -294.613159 
L 211.265861 -295.444622 
L 210.709113 -296.276084 
L 210.089013 -297.107546 
L 209.414512 -297.939009 
L 208.696166 -298.770471 
L 207.945442 -299.601933 
L 207.174522 -300.433396 
L 206.396727 -301.264858 
L 205.627455 -302.09632 
L 204.885244 -302.927783 
L 204.192448 -303.759245 
L 203.575013 -304.590707 
L 203.061053 -305.42217 
L 202.678245 -306.253632 
L 202.450443 -307.085094 
L 202.394195 -307.916557 
L 202.515938 -308.748019 
L 202.810535 -309.579481 
L 203.261509 -310.410944 
L 203.842923 -311.242406 
L 204.522507 -312.073868 
L 205.265329 -312.905331 
L 206.037323 -313.736793 
L 206.80806 -314.568255 
L 207.55246 -315.399718 
L 208.251433 -316.23118 
L 208.8917 -317.062642 
L 209.465146 -317.894105 
L 209.968071 -318.725567 
L 210.400542 -319.557029 
L 210.765895 -320.388492 
L 211.070282 -321.219954 
L 211.322117 -322.051416 
L 211.531297 -322.882879 
L 211.708194 -323.714341 
L 211.86255 -324.545804 
L 212.002468 -325.377266 
L 212.133729 -326.208728 
L 212.259582 -327.040191 
L 212.381024 -327.871653 
L 212.497459 -328.703115 
L 212.60754 -329.534578 
L 212.709945 -330.36604 
L 212.803913 -331.197502 
L 212.889449 -332.028965 
L 212.967215 -332.860427 
L 213.998714 -332.860427 
L 213.998714 -332.860427 
L 214.07648 -332.028965 
L 214.162016 -331.197502 
L 214.255984 -330.36604 
L 214.358389 -329.534578 
L 214.46847 -328.703115 
L 214.584905 -327.871653 
L 214.706347 -327.040191 
L 214.8322 -326.208728 
L 214.963462 -325.377266 
L 215.103379 -324.545804 
L 215.257735 -323.714341 
L 215.434632 -322.882879 
L 215.643812 -322.051416 
L 215.895647 -321.219954 
L 216.200034 -320.388492 
L 216.565387 -319.557029 
L 216.997859 -318.725567 
L 217.500783 -317.894105 
L 218.074229 -317.062642 
L 218.714496 -316.23118 
L 219.413469 -315.399718 
L 220.157869 -314.568255 
L 220.928606 -313.736793 
L 221.7006 -312.905331 
L 222.443422 -312.073868 
L 223.123006 -311.242406 
L 223.704421 -310.410944 
L 224.155394 -309.579481 
L 224.449991 -308.748019 
L 224.571735 -307.916557 
L 224.515486 -307.085094 
L 224.287684 -306.253632 
L 223.904876 -305.42217 
L 223.390917 -304.590707 
L 222.773481 -303.759245 
L 222.080685 -302.927783 
L 221.338474 -302.09632 
L 220.569202 -301.264858 
L 219.791407 -300.433396 
L 219.020487 -299.601933 
L 218.269763 -298.770471 
L 217.551417 -297.939009 
L 216.876916 -297.107546 
L 216.256816 -296.276084 
L 215.700068 -295.444622 
L 215.213117 -294.613159 
L 214.799147 -293.781697 
L 214.457718 -292.950235 
L 214.184921 -292.118772 
L 213.974014 -291.28731 
L 213.816367 -290.455848 
L 213.70251 -289.624385 
L 213.623093 -288.792923 
L 213.569611 -287.961461 
L 213.534845 -287.129998 
L 213.513034 -286.298536 
L 213.499829 -285.467074 
L 213.492114 -284.635611 
L 213.487766 -283.804149 
L 213.485401 -282.972687 
L 213.48416 -282.141224 
L 213.483531 -281.309762 
L 213.483224 -280.4783 
L 213.48308 -279.646837 
L 213.483014 -278.815375 
L 213.482985 -277.983913 
L 213.482973 -277.15245 
L 213.482968 -276.320988 
L 213.482966 -275.489526 
L 213.482965 -274.658063 
L 213.482965 -273.826601 
L 213.482965 -272.995139 
L 213.482966 -272.163676 
L 213.482968 -271.332214 
L 213.482974 -270.500751 
L 213.482986 -269.669289 
L 213.483012 -268.837827 
L 213.483068 -268.006364 
L 213.483181 -267.174902 
L 213.483402 -266.34344 
L 213.483816 -265.511977 
L 213.484562 -264.680515 
L 213.485858 -263.849053 
L 213.488018 -263.01759 
L 213.49148 -262.186128 
L 213.496806 -261.354666 
L 213.504668 -260.523203 
L 213.515794 -259.691741 
L 213.530867 -258.860279 
L 213.55039 -258.028816 
L 213.574516 -257.197354 
L 213.602881 -256.365892 
L 213.634482 -255.534429 
L 213.667644 -254.702967 
L 213.700107 -253.871505 
L 213.729253 -253.040042 
L 213.752437 -252.20858 
L 213.767383 -251.377118 
L 213.772547 -250.545655 
z
" style="stroke: #000000"/>
    </defs>
    <g clip-path="url(#p843a22e54b)">
     <use xlink:href="#mc8bf03d48a" x="0" y="436.71625" style="fill: #d43f3a; stroke: #000000"/>
    </g>
   </g>
   <g id="PolyCollection_4">
    <defs>
     <path id="mec5f19a018" d="M 258.33933 -287.513801 
L 257.336759 -287.513801 
L 257.315382 -287.902907 
L 257.299997 -288.292014 
L 257.291085 -288.68112 
L 257.288871 -289.070226 
L 257.293306 -289.459333 
L 257.304056 -289.848439 
L 257.320505 -290.237546 
L 257.341775 -290.626652 
L 257.366758 -291.015758 
L 257.394152 -291.404865 
L 257.422524 -291.793971 
L 257.450361 -292.183078 
L 257.476145 -292.572184 
L 257.498414 -292.96129 
L 257.515838 -293.350397 
L 257.527276 -293.739503 
L 257.531836 -294.12861 
L 257.528921 -294.517716 
L 257.518258 -294.906822 
L 257.49991 -295.295929 
L 257.474272 -295.685035 
L 257.442043 -296.074142 
L 257.404177 -296.463248 
L 257.361814 -296.852354 
L 257.316198 -297.241461 
L 257.268577 -297.630567 
L 257.220105 -298.019674 
L 257.171743 -298.40878 
L 257.12417 -298.797886 
L 257.077715 -299.186993 
L 257.032317 -299.576099 
L 256.98751 -299.965206 
L 256.942439 -300.354312 
L 256.895915 -300.743418 
L 256.846481 -301.132525 
L 256.792511 -301.521631 
L 256.732308 -301.910738 
L 256.664207 -302.299844 
L 256.586664 -302.68895 
L 256.498332 -303.078057 
L 256.398107 -303.467163 
L 256.285143 -303.85627 
L 256.158832 -304.245376 
L 256.018761 -304.634482 
L 255.864619 -305.023589 
L 255.696098 -305.412695 
L 255.51277 -305.801802 
L 255.313958 -306.190908 
L 255.098629 -306.580014 
L 254.865307 -306.969121 
L 254.612047 -307.358227 
L 254.336465 -307.747334 
L 254.035867 -308.13644 
L 253.70745 -308.525546 
L 253.348614 -308.914653 
L 252.957331 -309.303759 
L 252.532584 -309.692866 
L 252.074803 -310.081972 
L 251.586278 -310.471078 
L 251.07148 -310.860185 
L 250.537246 -311.249291 
L 249.992783 -311.638398 
L 249.44946 -312.027504 
L 248.920393 -312.41661 
L 248.419828 -312.805717 
L 247.962361 -313.194823 
L 247.562077 -313.58393 
L 247.231661 -313.973036 
L 246.981575 -314.362142 
L 246.819383 -314.751249 
L 246.749275 -315.140355 
L 246.771851 -315.529462 
L 246.884168 -315.918568 
L 247.080038 -316.307674 
L 247.350563 -316.696781 
L 247.684813 -317.085887 
L 248.070613 -317.474994 
L 248.495343 -317.8641 
L 248.946686 -318.253206 
L 249.41327 -318.642313 
L 249.885158 -319.031419 
L 250.354164 -319.420526 
L 250.813992 -319.809632 
L 251.260213 -320.198738 
L 251.690103 -320.587845 
L 252.102384 -320.976951 
L 252.496902 -321.366058 
L 252.874283 -321.755164 
L 253.235605 -322.14427 
L 253.582103 -322.533377 
L 253.914941 -322.922483 
L 254.235041 -323.31159 
L 254.542989 -323.700696 
L 254.838999 -324.089802 
L 255.122928 -324.478909 
L 255.39434 -324.868015 
L 255.652579 -325.257122 
L 255.896871 -325.646228 
L 256.126414 -326.035334 
L 259.549675 -326.035334 
L 259.549675 -326.035334 
L 259.779218 -325.646228 
L 260.02351 -325.257122 
L 260.28175 -324.868015 
L 260.553161 -324.478909 
L 260.837091 -324.089802 
L 261.1331 -323.700696 
L 261.441048 -323.31159 
L 261.761149 -322.922483 
L 262.093987 -322.533377 
L 262.440485 -322.14427 
L 262.801807 -321.755164 
L 263.179188 -321.366058 
L 263.573705 -320.976951 
L 263.985987 -320.587845 
L 264.415877 -320.198738 
L 264.862098 -319.809632 
L 265.321926 -319.420526 
L 265.790932 -319.031419 
L 266.262819 -318.642313 
L 266.729403 -318.253206 
L 267.180746 -317.8641 
L 267.605476 -317.474994 
L 267.991277 -317.085887 
L 268.325527 -316.696781 
L 268.596051 -316.307674 
L 268.791922 -315.918568 
L 268.904238 -315.529462 
L 268.926815 -315.140355 
L 268.856707 -314.751249 
L 268.694514 -314.362142 
L 268.444429 -313.973036 
L 268.114012 -313.58393 
L 267.713728 -313.194823 
L 267.256262 -312.805717 
L 266.755696 -312.41661 
L 266.22663 -312.027504 
L 265.683307 -311.638398 
L 265.138843 -311.249291 
L 264.60461 -310.860185 
L 264.089812 -310.471078 
L 263.601287 -310.081972 
L 263.143506 -309.692866 
L 262.718758 -309.303759 
L 262.327476 -308.914653 
L 261.968639 -308.525546 
L 261.640223 -308.13644 
L 261.339624 -307.747334 
L 261.064043 -307.358227 
L 260.810782 -306.969121 
L 260.577461 -306.580014 
L 260.362132 -306.190908 
L 260.16332 -305.801802 
L 259.979992 -305.412695 
L 259.811471 -305.023589 
L 259.657329 -304.634482 
L 259.517257 -304.245376 
L 259.390947 -303.85627 
L 259.277982 -303.467163 
L 259.177757 -303.078057 
L 259.089426 -302.68895 
L 259.011883 -302.299844 
L 258.943781 -301.910738 
L 258.883578 -301.521631 
L 258.829608 -301.132525 
L 258.780175 -300.743418 
L 258.73365 -300.354312 
L 258.68858 -299.965206 
L 258.643772 -299.576099 
L 258.598375 -299.186993 
L 258.55192 -298.797886 
L 258.504346 -298.40878 
L 258.455984 -298.019674 
L 258.407513 -297.630567 
L 258.359892 -297.241461 
L 258.314276 -296.852354 
L 258.271913 -296.463248 
L 258.234046 -296.074142 
L 258.201817 -295.685035 
L 258.17618 -295.295929 
L 258.157831 -294.906822 
L 258.147168 -294.517716 
L 258.144254 -294.12861 
L 258.148814 -293.739503 
L 258.160252 -293.350397 
L 258.177675 -292.96129 
L 258.199945 -292.572184 
L 258.225728 -292.183078 
L 258.253566 -291.793971 
L 258.281937 -291.404865 
L 258.309332 -291.015758 
L 258.334314 -290.626652 
L 258.355585 -290.237546 
L 258.372034 -289.848439 
L 258.382784 -289.459333 
L 258.387219 -289.070226 
L 258.385005 -288.68112 
L 258.376092 -288.292014 
L 258.360707 -287.902907 
L 258.33933 -287.513801 
z
" style="stroke: #000000"/>
    </defs>
    <g clip-path="url(#p843a22e54b)">
     <use xlink:href="#mec5f19a018" x="0" y="436.71625" style="fill: #d43f3a; stroke: #000000"/>
    </g>
   </g>
   <g id="PolyCollection_5">
    <defs>
     <path id="m65e58e7664" d="M 302.718958 -333.082131 
L 301.667292 -333.082131 
L 301.639253 -333.113156 
L 301.618145 -333.14418 
L 301.603974 -333.175205 
L 301.596124 -333.20623 
L 301.593365 -333.237255 
L 301.593919 -333.268279 
L 301.595599 -333.299304 
L 301.595999 -333.330329 
L 301.592717 -333.361354 
L 301.5836 -333.392378 
L 301.566967 -333.423403 
L 301.541784 -333.454428 
L 301.507763 -333.485453 
L 301.465348 -333.516478 
L 301.415597 -333.547502 
L 301.359925 -333.578527 
L 301.299767 -333.609552 
L 301.236165 -333.640577 
L 301.169334 -333.671601 
L 301.098272 -333.702626 
L 301.020464 -333.733651 
L 300.931735 -333.764676 
L 300.826293 -333.7957 
L 300.696971 -333.826725 
L 300.535681 -333.85775 
L 300.33404 -333.888775 
L 300.084121 -333.9198 
L 299.77925 -333.950824 
L 299.414791 -333.981849 
L 298.988802 -334.012874 
L 298.502515 -334.043899 
L 297.960553 -334.074923 
L 297.37086 -334.105948 
L 296.744339 -334.136973 
L 296.094221 -334.167998 
L 295.435237 -334.199022 
L 294.782686 -334.230047 
L 294.15151 -334.261072 
L 293.555489 -334.292097 
L 293.006662 -334.323121 
L 292.515008 -334.354146 
L 292.088439 -334.385171 
L 291.733037 -334.416196 
L 291.453465 -334.447221 
L 291.253435 -334.478245 
L 291.136115 -334.50927 
L 291.104355 -334.540295 
L 291.16067 -334.57132 
L 291.306965 -334.602344 
L 291.544032 -334.633369 
L 291.870923 -334.664394 
L 292.284307 -334.695419 
L 292.777955 -334.726443 
L 293.342454 -334.757468 
L 293.965249 -334.788493 
L 294.631023 -334.819518 
L 295.322399 -334.850542 
L 296.020902 -334.881567 
L 296.708061 -334.912592 
L 297.366537 -334.943617 
L 297.981168 -334.974642 
L 298.539804 -335.005666 
L 299.033885 -335.036691 
L 299.458715 -335.067716 
L 299.813424 -335.098741 
L 300.100654 -335.129765 
L 300.326021 -335.16079 
L 300.497404 -335.191815 
L 300.624159 -335.22284 
L 300.716298 -335.253864 
L 300.78372 -335.284889 
L 300.835543 -335.315914 
L 300.879575 -335.346939 
L 300.921961 -335.377964 
L 300.967022 -335.408988 
L 301.017268 -335.440013 
L 301.073581 -335.471038 
L 301.135518 -335.502063 
L 301.20169 -335.533087 
L 301.270165 -335.564112 
L 301.33883 -335.595137 
L 301.405695 -335.626162 
L 301.469091 -335.657186 
L 301.527767 -335.688211 
L 301.580897 -335.719236 
L 301.628032 -335.750261 
L 301.669008 -335.781285 
L 301.703868 -335.81231 
L 301.732805 -335.843335 
L 301.756134 -335.87436 
L 301.774305 -335.905385 
L 301.787932 -335.936409 
L 301.79782 -335.967434 
L 301.804971 -335.998459 
L 301.810559 -336.029484 
L 301.815865 -336.060508 
L 301.822172 -336.091533 
L 301.830644 -336.122558 
L 301.842212 -336.153583 
L 302.544038 -336.153583 
L 302.544038 -336.153583 
L 302.555606 -336.122558 
L 302.564078 -336.091533 
L 302.570385 -336.060508 
L 302.575691 -336.029484 
L 302.581279 -335.998459 
L 302.58843 -335.967434 
L 302.598318 -335.936409 
L 302.611945 -335.905385 
L 302.630116 -335.87436 
L 302.653445 -335.843335 
L 302.682382 -335.81231 
L 302.717242 -335.781285 
L 302.758218 -335.750261 
L 302.805353 -335.719236 
L 302.858483 -335.688211 
L 302.917159 -335.657186 
L 302.980555 -335.626162 
L 303.04742 -335.595137 
L 303.116085 -335.564112 
L 303.18456 -335.533087 
L 303.250732 -335.502063 
L 303.312669 -335.471038 
L 303.368982 -335.440013 
L 303.419228 -335.408988 
L 303.464289 -335.377964 
L 303.506675 -335.346939 
L 303.550707 -335.315914 
L 303.60253 -335.284889 
L 303.669952 -335.253864 
L 303.762091 -335.22284 
L 303.888846 -335.191815 
L 304.060229 -335.16079 
L 304.285596 -335.129765 
L 304.572826 -335.098741 
L 304.927535 -335.067716 
L 305.352365 -335.036691 
L 305.846446 -335.005666 
L 306.405082 -334.974642 
L 307.019713 -334.943617 
L 307.678189 -334.912592 
L 308.365348 -334.881567 
L 309.063851 -334.850542 
L 309.755227 -334.819518 
L 310.421001 -334.788493 
L 311.043796 -334.757468 
L 311.608295 -334.726443 
L 312.101943 -334.695419 
L 312.515327 -334.664394 
L 312.842218 -334.633369 
L 313.079285 -334.602344 
L 313.22558 -334.57132 
L 313.281895 -334.540295 
L 313.250135 -334.50927 
L 313.132815 -334.478245 
L 312.932785 -334.447221 
L 312.653213 -334.416196 
L 312.297811 -334.385171 
L 311.871242 -334.354146 
L 311.379588 -334.323121 
L 310.830761 -334.292097 
L 310.23474 -334.261072 
L 309.603564 -334.230047 
L 308.951013 -334.199022 
L 308.292029 -334.167998 
L 307.641911 -334.136973 
L 307.01539 -334.105948 
L 306.425697 -334.074923 
L 305.883735 -334.043899 
L 305.397448 -334.012874 
L 304.971459 -333.981849 
L 304.607 -333.950824 
L 304.302129 -333.9198 
L 304.05221 -333.888775 
L 303.850569 -333.85775 
L 303.689279 -333.826725 
L 303.559957 -333.7957 
L 303.454515 -333.764676 
L 303.365786 -333.733651 
L 303.287978 -333.702626 
L 303.216916 -333.671601 
L 303.150085 -333.640577 
L 303.086483 -333.609552 
L 303.026325 -333.578527 
L 302.970653 -333.547502 
L 302.920902 -333.516478 
L 302.878487 -333.485453 
L 302.844466 -333.454428 
L 302.819283 -333.423403 
L 302.80265 -333.392378 
L 302.793533 -333.361354 
L 302.790251 -333.330329 
L 302.790651 -333.299304 
L 302.792331 -333.268279 
L 302.792885 -333.237255 
L 302.790126 -333.20623 
L 302.782276 -333.175205 
L 302.768105 -333.14418 
L 302.746997 -333.113156 
L 302.718958 -333.082131 
z
" style="stroke: #000000"/>
    </defs>
    <g clip-path="url(#p843a22e54b)">
     <use xlink:href="#m65e58e7664" x="0" y="436.71625" style="fill: #d43f3a; stroke: #000000"/>
    </g>
   </g>
   <g id="PolyCollection_6">
    <defs>
     <path id="md2ae59007a" d="M 346.910293 -350.369158 
L 346.186117 -350.369158 
L 346.190637 -350.549635 
L 346.204254 -350.730111 
L 346.22562 -350.910588 
L 346.252672 -351.091065 
L 346.282788 -351.271542 
L 346.312963 -351.452019 
L 346.339952 -351.632495 
L 346.360372 -351.812972 
L 346.370726 -351.993449 
L 346.367372 -352.173926 
L 346.346464 -352.354402 
L 346.303887 -352.534879 
L 346.235262 -352.715356 
L 346.136017 -352.895833 
L 346.001583 -353.07631 
L 345.827691 -353.256786 
L 345.610747 -353.437263 
L 345.348229 -353.61774 
L 345.039046 -353.798217 
L 344.683781 -353.978694 
L 344.284761 -354.15917 
L 343.845939 -354.339647 
L 343.372585 -354.520124 
L 342.870853 -354.700601 
L 342.347295 -354.881078 
L 341.808416 -355.061554 
L 341.260355 -355.242031 
L 340.708736 -355.422508 
L 340.158696 -355.602985 
L 339.615051 -355.783461 
L 339.082526 -355.963938 
L 338.565969 -356.144415 
L 338.070496 -356.324892 
L 337.601508 -356.505369 
L 337.164611 -356.685845 
L 336.76547 -356.866322 
L 336.40965 -357.046799 
L 336.102505 -357.227276 
L 335.849142 -357.407753 
L 335.654432 -357.588229 
L 335.523047 -357.768706 
L 335.459435 -357.949183 
L 335.467671 -358.12966 
L 335.551143 -358.310137 
L 335.712074 -358.490613 
L 335.950935 -358.67109 
L 336.265843 -358.851567 
L 336.652078 -359.032044 
L 337.101831 -359.212521 
L 337.60429 -359.392997 
L 338.146075 -359.573474 
L 338.712023 -359.753951 
L 339.286212 -359.934428 
L 339.853109 -360.114904 
L 340.398696 -360.295381 
L 340.911438 -360.475858 
L 341.382992 -360.656335 
L 341.808608 -360.836812 
L 342.187187 -361.017288 
L 342.521021 -361.197765 
L 342.815261 -361.378242 
L 343.077156 -361.558719 
L 343.315153 -361.739196 
L 343.537925 -361.919672 
L 343.753431 -362.100149 
L 343.968099 -362.280626 
L 344.186225 -362.461103 
L 344.40966 -362.64158 
L 344.637815 -362.822056 
L 344.867973 -363.002533 
L 345.095861 -363.18301 
L 345.316362 -363.363487 
L 345.524273 -363.543963 
L 345.714982 -363.72444 
L 345.884977 -363.904917 
L 346.032137 -364.085394 
L 346.15579 -364.265871 
L 346.256576 -364.446347 
L 346.336163 -364.626824 
L 346.396896 -364.807301 
L 346.441423 -364.987778 
L 346.472377 -365.168255 
L 346.492129 -365.348731 
L 346.502627 -365.529208 
L 346.505339 -365.709685 
L 346.50127 -365.890162 
L 346.491049 -366.070639 
L 346.475073 -366.251115 
L 346.453664 -366.431592 
L 346.42725 -366.612069 
L 346.396513 -366.792546 
L 346.362504 -366.973023 
L 346.326696 -367.153499 
L 346.290948 -367.333976 
L 346.257402 -367.514453 
L 346.228294 -367.69493 
L 346.205729 -367.875406 
L 346.19143 -368.055883 
L 346.186533 -368.23636 
L 346.909877 -368.23636 
L 346.909877 -368.23636 
L 346.90498 -368.055883 
L 346.890682 -367.875406 
L 346.868116 -367.69493 
L 346.839009 -367.514453 
L 346.805462 -367.333976 
L 346.769715 -367.153499 
L 346.733906 -366.973023 
L 346.699898 -366.792546 
L 346.66916 -366.612069 
L 346.642746 -366.431592 
L 346.621338 -366.251115 
L 346.605361 -366.070639 
L 346.595141 -365.890162 
L 346.591071 -365.709685 
L 346.593783 -365.529208 
L 346.604281 -365.348731 
L 346.624033 -365.168255 
L 346.654988 -364.987778 
L 346.699515 -364.807301 
L 346.760247 -364.626824 
L 346.839835 -364.446347 
L 346.940621 -364.265871 
L 347.064274 -364.085394 
L 347.211433 -363.904917 
L 347.381429 -363.72444 
L 347.572137 -363.543963 
L 347.780048 -363.363487 
L 348.000549 -363.18301 
L 348.228437 -363.002533 
L 348.458596 -362.822056 
L 348.68675 -362.64158 
L 348.910185 -362.461103 
L 349.128311 -362.280626 
L 349.342979 -362.100149 
L 349.558485 -361.919672 
L 349.781257 -361.739196 
L 350.019254 -361.558719 
L 350.281149 -361.378242 
L 350.575389 -361.197765 
L 350.909224 -361.017288 
L 351.287803 -360.836812 
L 351.713419 -360.656335 
L 352.184973 -360.475858 
L 352.697714 -360.295381 
L 353.243301 -360.114904 
L 353.810199 -359.934428 
L 354.384388 -359.753951 
L 354.950336 -359.573474 
L 355.492121 -359.392997 
L 355.994579 -359.212521 
L 356.444333 -359.032044 
L 356.830567 -358.851567 
L 357.145475 -358.67109 
L 357.384336 -358.490613 
L 357.545268 -358.310137 
L 357.62874 -358.12966 
L 357.636975 -357.949183 
L 357.573363 -357.768706 
L 357.441978 -357.588229 
L 357.247268 -357.407753 
L 356.993905 -357.227276 
L 356.686761 -357.046799 
L 356.33094 -356.866322 
L 355.931799 -356.685845 
L 355.494903 -356.505369 
L 355.025914 -356.324892 
L 354.530441 -356.144415 
L 354.013885 -355.963938 
L 353.481359 -355.783461 
L 352.937714 -355.602985 
L 352.387675 -355.422508 
L 351.836056 -355.242031 
L 351.287995 -355.061554 
L 350.749116 -354.881078 
L 350.225557 -354.700601 
L 349.723825 -354.520124 
L 349.250471 -354.339647 
L 348.811649 -354.15917 
L 348.412629 -353.978694 
L 348.057364 -353.798217 
L 347.748182 -353.61774 
L 347.485664 -353.437263 
L 347.268719 -353.256786 
L 347.094827 -353.07631 
L 346.960394 -352.895833 
L 346.861148 -352.715356 
L 346.792523 -352.534879 
L 346.749947 -352.354402 
L 346.729038 -352.173926 
L 346.725684 -351.993449 
L 346.736038 -351.812972 
L 346.756458 -351.632495 
L 346.783448 -351.452019 
L 346.813622 -351.271542 
L 346.843739 -351.091065 
L 346.870791 -350.910588 
L 346.892157 -350.730111 
L 346.905774 -350.549635 
L 346.910293 -350.369158 
z
" style="stroke: #000000"/>
    </defs>
    <g clip-path="url(#p843a22e54b)">
     <use xlink:href="#md2ae59007a" x="0" y="436.71625" style="fill: #d43f3a; stroke: #000000"/>
    </g>
   </g>
   <g id="PolyCollection_7">
    <defs>
     <path id="mf658663a10" d="M 391.167881 -340.51464 
L 390.63869 -340.51464 
L 390.641614 -340.927236 
L 390.650281 -341.339831 
L 390.664059 -341.752427 
L 390.681972 -342.165023 
L 390.702783 -342.577618 
L 390.725094 -342.990214 
L 390.747443 -343.40281 
L 390.768387 -343.815406 
L 390.786559 -344.228001 
L 390.800696 -344.640597 
L 390.809646 -345.053193 
L 390.812361 -345.465788 
L 390.807886 -345.878384 
L 390.795368 -346.29098 
L 390.774087 -346.703576 
L 390.743522 -347.116171 
L 390.703448 -347.528767 
L 390.654054 -347.941363 
L 390.59606 -348.353958 
L 390.530812 -348.766554 
L 390.460322 -349.17915 
L 390.387241 -349.591745 
L 390.314729 -350.004341 
L 390.246249 -350.416937 
L 390.185281 -350.829533 
L 390.13499 -351.242128 
L 390.097911 -351.654724 
L 390.075671 -352.06732 
L 390.068814 -352.479915 
L 390.076747 -352.892511 
L 390.097827 -353.305107 
L 390.129558 -353.717703 
L 390.168881 -354.130298 
L 390.212498 -354.542894 
L 390.25718 -354.95549 
L 390.299995 -355.368085 
L 390.338444 -355.780681 
L 390.370473 -356.193277 
L 390.394372 -356.605873 
L 390.408602 -357.018468 
L 390.411578 -357.431064 
L 390.401469 -357.84366 
L 390.376044 -358.256255 
L 390.332615 -358.668851 
L 390.268072 -359.081447 
L 390.179017 -359.494042 
L 390.061969 -359.906638 
L 389.913609 -360.319234 
L 389.731016 -360.73183 
L 389.51187 -361.144425 
L 389.254571 -361.557021 
L 388.958274 -361.969617 
L 388.622829 -362.382212 
L 388.248652 -362.794808 
L 387.836559 -363.207404 
L 387.387615 -363.62 
L 386.903042 -364.032595 
L 386.384259 -364.445191 
L 385.833072 -364.857787 
L 385.252049 -365.270382 
L 384.645049 -365.682978 
L 384.017868 -366.095574 
L 383.378887 -366.50817 
L 382.739614 -366.920765 
L 382.114972 -367.333361 
L 381.523201 -367.745957 
L 380.985274 -368.158552 
L 380.523811 -368.571148 
L 380.16153 -368.983744 
L 379.91937 -369.39634 
L 379.814515 -369.808935 
L 379.858556 -370.221531 
L 380.056059 -370.634127 
L 380.403749 -371.046722 
L 380.890446 -371.459318 
L 381.497766 -371.871914 
L 382.201513 -372.284509 
L 382.973576 -372.697105 
L 383.784085 -373.109701 
L 384.603576 -373.522297 
L 385.40493 -373.934892 
L 386.164905 -374.347488 
L 386.865158 -374.760084 
L 387.49275 -375.172679 
L 388.04015 -375.585275 
L 388.504846 -375.997871 
L 388.888681 -376.410467 
L 389.197 -376.823062 
L 389.437744 -377.235658 
L 389.620544 -377.648254 
L 389.755881 -378.060849 
L 389.854356 -378.473445 
L 389.926069 -378.886041 
L 389.980135 -379.298637 
L 390.02433 -379.711232 
L 390.064875 -380.123828 
L 390.10634 -380.536424 
L 390.151671 -380.949019 
L 390.20232 -381.361615 
L 391.604251 -381.361615 
L 391.604251 -381.361615 
L 391.6549 -380.949019 
L 391.700231 -380.536424 
L 391.741695 -380.123828 
L 391.782241 -379.711232 
L 391.826436 -379.298637 
L 391.880501 -378.886041 
L 391.952214 -378.473445 
L 392.05069 -378.060849 
L 392.186027 -377.648254 
L 392.368826 -377.235658 
L 392.609571 -376.823062 
L 392.91789 -376.410467 
L 393.301725 -375.997871 
L 393.766421 -375.585275 
L 394.31382 -375.172679 
L 394.941413 -374.760084 
L 395.641666 -374.347488 
L 396.401641 -373.934892 
L 397.202995 -373.522297 
L 398.022486 -373.109701 
L 398.832995 -372.697105 
L 399.605058 -372.284509 
L 400.308805 -371.871914 
L 400.916125 -371.459318 
L 401.402821 -371.046722 
L 401.750512 -370.634127 
L 401.948014 -370.221531 
L 401.992055 -369.808935 
L 401.887201 -369.39634 
L 401.645041 -368.983744 
L 401.28276 -368.571148 
L 400.821297 -368.158552 
L 400.28337 -367.745957 
L 399.691598 -367.333361 
L 399.066957 -366.920765 
L 398.427684 -366.50817 
L 397.788703 -366.095574 
L 397.161521 -365.682978 
L 396.554522 -365.270382 
L 395.973498 -364.857787 
L 395.422312 -364.445191 
L 394.903529 -364.032595 
L 394.418956 -363.62 
L 393.970012 -363.207404 
L 393.557919 -362.794808 
L 393.183742 -362.382212 
L 392.848297 -361.969617 
L 392.551999 -361.557021 
L 392.294701 -361.144425 
L 392.075555 -360.73183 
L 391.892962 -360.319234 
L 391.744602 -359.906638 
L 391.627554 -359.494042 
L 391.538499 -359.081447 
L 391.473956 -358.668851 
L 391.430527 -358.256255 
L 391.405102 -357.84366 
L 391.394993 -357.431064 
L 391.397969 -357.018468 
L 391.412199 -356.605873 
L 391.436098 -356.193277 
L 391.468127 -355.780681 
L 391.506576 -355.368085 
L 391.549391 -354.95549 
L 391.594072 -354.542894 
L 391.63769 -354.130298 
L 391.677013 -353.717703 
L 391.708743 -353.305107 
L 391.729823 -352.892511 
L 391.737757 -352.479915 
L 391.7309 -352.06732 
L 391.70866 -351.654724 
L 391.671581 -351.242128 
L 391.62129 -350.829533 
L 391.560321 -350.416937 
L 391.491842 -350.004341 
L 391.41933 -349.591745 
L 391.346249 -349.17915 
L 391.275759 -348.766554 
L 391.210511 -348.353958 
L 391.152517 -347.941363 
L 391.103123 -347.528767 
L 391.063049 -347.116171 
L 391.032484 -346.703576 
L 391.011203 -346.29098 
L 390.998685 -345.878384 
L 390.99421 -345.465788 
L 390.996925 -345.053193 
L 391.005875 -344.640597 
L 391.020012 -344.228001 
L 391.038184 -343.815406 
L 391.059128 -343.40281 
L 391.081477 -342.990214 
L 391.103788 -342.577618 
L 391.124599 -342.165023 
L 391.142512 -341.752427 
L 391.15629 -341.339831 
L 391.164957 -340.927236 
L 391.167881 -340.51464 
z
" style="stroke: #000000"/>
    </defs>
    <g clip-path="url(#p843a22e54b)">
     <use xlink:href="#mf658663a10" x="0" y="436.71625" style="fill: #d43f3a; stroke: #000000"/>
    </g>
   </g>
   <g id="PolyCollection_8">
    <defs>
     <path id="m2eaa5f536b" d="M 435.57942 -360.292619 
L 434.937311 -360.292619 
L 434.929514 -360.83317 
L 434.925222 -361.373721 
L 434.9227 -361.914272 
L 434.919763 -362.454823 
L 434.914005 -362.995374 
L 434.903038 -363.535925 
L 434.884705 -364.076476 
L 434.857221 -364.617026 
L 434.819213 -365.157577 
L 434.769645 -365.698128 
L 434.707653 -366.238679 
L 434.632301 -366.77923 
L 434.542325 -367.319781 
L 434.435903 -367.860332 
L 434.310509 -368.400883 
L 434.162892 -368.941434 
L 433.98918 -369.481985 
L 433.785111 -370.022536 
L 433.546353 -370.563086 
L 433.268854 -371.103637 
L 432.949169 -371.644188 
L 432.58471 -372.184739 
L 432.173901 -372.72529 
L 431.716247 -373.265841 
L 431.212355 -373.806392 
L 430.663999 -374.346943 
L 430.074289 -374.887494 
L 429.448001 -375.428045 
L 428.792074 -375.968596 
L 428.116199 -376.509146 
L 427.433371 -377.049697 
L 426.76021 -377.590248 
L 426.116879 -378.130799 
L 425.526418 -378.67135 
L 425.013477 -379.211901 
L 424.602475 -379.752452 
L 424.315411 -380.293003 
L 424.169596 -380.833554 
L 424.175651 -381.374105 
L 424.336105 -381.914655 
L 424.644809 -382.455206 
L 425.087285 -382.995757 
L 425.641974 -383.536308 
L 426.282181 -384.076859 
L 426.978477 -384.61741 
L 427.701205 -385.157961 
L 428.422795 -385.698512 
L 429.119634 -386.239063 
L 429.773322 -386.779614 
L 430.371233 -387.320165 
L 430.906446 -387.860715 
L 431.377111 -388.401266 
L 431.785454 -388.941817 
L 432.136573 -389.482368 
L 432.437228 -390.022919 
L 432.694761 -390.56347 
L 432.916263 -391.104021 
L 433.108021 -391.644572 
L 433.275258 -392.185123 
L 433.422111 -392.725674 
L 433.551784 -393.266225 
L 433.666787 -393.806775 
L 433.769201 -394.347326 
L 433.860899 -394.887877 
L 433.943705 -395.428428 
L 434.019464 -395.968979 
L 434.090048 -396.50953 
L 434.157297 -397.050081 
L 434.222923 -397.590632 
L 434.288409 -398.131183 
L 434.3549 -398.671734 
L 434.423125 -399.212285 
L 434.493341 -399.752835 
L 434.565324 -400.293386 
L 434.6384 -400.833937 
L 434.711516 -401.374488 
L 434.783347 -401.915039 
L 434.85243 -402.45559 
L 434.917298 -402.996141 
L 434.976607 -403.536692 
L 435.02923 -404.077243 
L 435.07432 -404.617794 
L 435.111327 -405.158345 
L 435.139984 -405.698895 
L 435.160261 -406.239446 
L 435.172322 -406.779997 
L 435.176483 -407.320548 
L 435.173201 -407.861099 
L 435.163075 -408.40165 
L 435.146886 -408.942201 
L 435.125639 -409.482752 
L 435.100597 -410.023303 
L 435.073294 -410.563854 
L 435.045498 -411.104405 
L 435.019125 -411.644955 
L 434.996104 -412.185506 
L 434.978202 -412.726057 
L 434.966854 -413.266608 
L 434.962998 -413.807159 
L 435.553733 -413.807159 
L 435.553733 -413.807159 
L 435.549877 -413.266608 
L 435.538529 -412.726057 
L 435.520628 -412.185506 
L 435.497606 -411.644955 
L 435.471233 -411.104405 
L 435.443438 -410.563854 
L 435.416135 -410.023303 
L 435.391093 -409.482752 
L 435.369845 -408.942201 
L 435.353657 -408.40165 
L 435.34353 -407.861099 
L 435.340248 -407.320548 
L 435.34441 -406.779997 
L 435.35647 -406.239446 
L 435.376747 -405.698895 
L 435.405404 -405.158345 
L 435.442412 -404.617794 
L 435.487502 -404.077243 
L 435.540124 -403.536692 
L 435.599433 -402.996141 
L 435.664301 -402.45559 
L 435.733385 -401.915039 
L 435.805216 -401.374488 
L 435.878331 -400.833937 
L 435.951407 -400.293386 
L 436.023391 -399.752835 
L 436.093607 -399.212285 
L 436.161831 -398.671734 
L 436.228322 -398.131183 
L 436.293808 -397.590632 
L 436.359434 -397.050081 
L 436.426683 -396.50953 
L 436.497267 -395.968979 
L 436.573027 -395.428428 
L 436.655832 -394.887877 
L 436.74753 -394.347326 
L 436.849944 -393.806775 
L 436.964948 -393.266225 
L 437.09462 -392.725674 
L 437.241474 -392.185123 
L 437.40871 -391.644572 
L 437.600468 -391.104021 
L 437.82197 -390.56347 
L 438.079503 -390.022919 
L 438.380158 -389.482368 
L 438.731277 -388.941817 
L 439.13962 -388.401266 
L 439.610286 -387.860715 
L 440.145498 -387.320165 
L 440.74341 -386.779614 
L 441.397097 -386.239063 
L 442.093937 -385.698512 
L 442.815527 -385.157961 
L 443.538254 -384.61741 
L 444.23455 -384.076859 
L 444.874758 -383.536308 
L 445.429446 -382.995757 
L 445.871923 -382.455206 
L 446.180626 -381.914655 
L 446.34108 -381.374105 
L 446.347136 -380.833554 
L 446.20132 -380.293003 
L 445.914257 -379.752452 
L 445.503255 -379.211901 
L 444.990313 -378.67135 
L 444.399852 -378.130799 
L 443.756521 -377.590248 
L 443.083361 -377.049697 
L 442.400532 -376.509146 
L 441.724657 -375.968596 
L 441.06873 -375.428045 
L 440.442442 -374.887494 
L 439.852732 -374.346943 
L 439.304377 -373.806392 
L 438.800484 -373.265841 
L 438.34283 -372.72529 
L 437.932022 -372.184739 
L 437.567563 -371.644188 
L 437.247877 -371.103637 
L 436.970378 -370.563086 
L 436.73162 -370.022536 
L 436.527551 -369.481985 
L 436.353839 -368.941434 
L 436.206222 -368.400883 
L 436.080828 -367.860332 
L 435.974406 -367.319781 
L 435.88443 -366.77923 
L 435.809078 -366.238679 
L 435.747086 -365.698128 
L 435.697519 -365.157577 
L 435.65951 -364.617026 
L 435.632026 -364.076476 
L 435.613693 -363.535925 
L 435.602726 -362.995374 
L 435.596968 -362.454823 
L 435.594031 -361.914272 
L 435.591509 -361.373721 
L 435.587217 -360.83317 
L 435.57942 -360.292619 
z
" style="stroke: #000000"/>
    </defs>
    <g clip-path="url(#p843a22e54b)">
     <use xlink:href="#m2eaa5f536b" x="0" y="436.71625" style="fill: #d43f3a; stroke: #000000"/>
    </g>
   </g>
   <g id="PolyCollection_9">
    <defs>
     <path id="mf8465770f7" d="M 479.870211 -346.321661 
L 479.356681 -346.321661 
L 479.360966 -346.809706 
L 479.373397 -347.297752 
L 479.392771 -347.785797 
L 479.417295 -348.273843 
L 479.444865 -348.761888 
L 479.473356 -349.249934 
L 479.500885 -349.737979 
L 479.525997 -350.226025 
L 479.547756 -350.714071 
L 479.565734 -351.202116 
L 479.579939 -351.690162 
L 479.590694 -352.178207 
L 479.598508 -352.666253 
L 479.603963 -353.154298 
L 479.607625 -353.642344 
L 479.609991 -354.130389 
L 479.611463 -354.618435 
L 479.612346 -355.10648 
L 479.612856 -355.594526 
L 479.61314 -356.082572 
L 479.613292 -356.570617 
L 479.613371 -357.058663 
L 479.613411 -357.546708 
L 479.61343 -358.034754 
L 479.613438 -358.522799 
L 479.61344 -359.010845 
L 479.613438 -359.49889 
L 479.61343 -359.986936 
L 479.61341 -360.474982 
L 479.613369 -360.963027 
L 479.613285 -361.451073 
L 479.61312 -361.939118 
L 479.612803 -362.427164 
L 479.612219 -362.915209 
L 479.611176 -363.403255 
L 479.60937 -363.8913 
L 479.606344 -364.379346 
L 479.601436 -364.867392 
L 479.593724 -365.355437 
L 479.581985 -365.843483 
L 479.564676 -366.331528 
L 479.539949 -366.819574 
L 479.505728 -367.307619 
L 479.459851 -367.795665 
L 479.40029 -368.28371 
L 479.325422 -368.771756 
L 479.23434 -369.259801 
L 479.127132 -369.747847 
L 479.005065 -370.235893 
L 478.870599 -370.723938 
L 478.727159 -371.211984 
L 478.578627 -371.700029 
L 478.428581 -372.188075 
L 478.279334 -372.67612 
L 478.130943 -373.164166 
L 477.980318 -373.652211 
L 477.820661 -374.140257 
L 477.641344 -374.628303 
L 477.42836 -375.116348 
L 477.165345 -375.604394 
L 476.835149 -376.092439 
L 476.421844 -376.580485 
L 475.91303 -377.06853 
L 475.302234 -377.556576 
L 474.591168 -378.044621 
L 473.791521 -378.532667 
L 472.925942 -379.020712 
L 472.027861 -379.508758 
L 471.139925 -379.996804 
L 470.31097 -380.484849 
L 469.591773 -380.972895 
L 469.030036 -381.46094 
L 468.665319 -381.948986 
L 468.524676 -382.437031 
L 468.619648 -382.925077 
L 468.945085 -383.413122 
L 469.479893 -383.901168 
L 470.189534 -384.389214 
L 471.029836 -384.877259 
L 471.951523 -385.365305 
L 472.904855 -385.85335 
L 473.843829 -386.341396 
L 474.729508 -386.829441 
L 475.532239 -387.317487 
L 476.232644 -387.805532 
L 476.82148 -388.293578 
L 477.298546 -388.781624 
L 477.670937 -389.269669 
L 477.950952 -389.757715 
L 478.153982 -390.24576 
L 478.296604 -390.733806 
L 478.39505 -391.221851 
L 478.464112 -391.709897 
L 478.516456 -392.197942 
L 478.562277 -392.685988 
L 478.609204 -393.174033 
L 478.662365 -393.662079 
L 478.724553 -394.150125 
L 478.796487 -394.63817 
L 480.430405 -394.63817 
L 480.430405 -394.63817 
L 480.502338 -394.150125 
L 480.564527 -393.662079 
L 480.617687 -393.174033 
L 480.664615 -392.685988 
L 480.710436 -392.197942 
L 480.762779 -391.709897 
L 480.831841 -391.221851 
L 480.930288 -390.733806 
L 481.07291 -390.24576 
L 481.27594 -389.757715 
L 481.555955 -389.269669 
L 481.928346 -388.781624 
L 482.405412 -388.293578 
L 482.994248 -387.805532 
L 483.694653 -387.317487 
L 484.497383 -386.829441 
L 485.383063 -386.341396 
L 486.322037 -385.85335 
L 487.275369 -385.365305 
L 488.197056 -384.877259 
L 489.037358 -384.389214 
L 489.746999 -383.901168 
L 490.281807 -383.413122 
L 490.607244 -382.925077 
L 490.702216 -382.437031 
L 490.561572 -381.948986 
L 490.196856 -381.46094 
L 489.635119 -380.972895 
L 488.915921 -380.484849 
L 488.086967 -379.996804 
L 487.19903 -379.508758 
L 486.30095 -379.020712 
L 485.43537 -378.532667 
L 484.635724 -378.044621 
L 483.924658 -377.556576 
L 483.313862 -377.06853 
L 482.805047 -376.580485 
L 482.391743 -376.092439 
L 482.061547 -375.604394 
L 481.798532 -375.116348 
L 481.585548 -374.628303 
L 481.406231 -374.140257 
L 481.246574 -373.652211 
L 481.095949 -373.164166 
L 480.947557 -372.67612 
L 480.798311 -372.188075 
L 480.648264 -371.700029 
L 480.499733 -371.211984 
L 480.356293 -370.723938 
L 480.221827 -370.235893 
L 480.09976 -369.747847 
L 479.992551 -369.259801 
L 479.90147 -368.771756 
L 479.826602 -368.28371 
L 479.76704 -367.795665 
L 479.721164 -367.307619 
L 479.686943 -366.819574 
L 479.662215 -366.331528 
L 479.644906 -365.843483 
L 479.633168 -365.355437 
L 479.625456 -364.867392 
L 479.620547 -364.379346 
L 479.617522 -363.8913 
L 479.615716 -363.403255 
L 479.614672 -362.915209 
L 479.614088 -362.427164 
L 479.613772 -361.939118 
L 479.613606 -361.451073 
L 479.613522 -360.963027 
L 479.613481 -360.474982 
L 479.613462 -359.986936 
L 479.613454 -359.49889 
L 479.613452 -359.010845 
L 479.613454 -358.522799 
L 479.613462 -358.034754 
L 479.613481 -357.546708 
L 479.61352 -357.058663 
L 479.613599 -356.570617 
L 479.613752 -356.082572 
L 479.614036 -355.594526 
L 479.614546 -355.10648 
L 479.615428 -354.618435 
L 479.6169 -354.130389 
L 479.619267 -353.642344 
L 479.622929 -353.154298 
L 479.628384 -352.666253 
L 479.636198 -352.178207 
L 479.646953 -351.690162 
L 479.661157 -351.202116 
L 479.679136 -350.714071 
L 479.700894 -350.226025 
L 479.726007 -349.737979 
L 479.753536 -349.249934 
L 479.782026 -348.761888 
L 479.809596 -348.273843 
L 479.834121 -347.785797 
L 479.853494 -347.297752 
L 479.865925 -346.809706 
L 479.870211 -346.321661 
z
" style="stroke: #000000"/>
    </defs>
    <g clip-path="url(#p843a22e54b)">
     <use xlink:href="#mf8465770f7" x="0" y="436.71625" style="fill: #d43f3a; stroke: #000000"/>
    </g>
   </g>
   <g id="matplotlib.axis_1">
    <g id="xtick_1">
     <g id="line2d_1">
      <defs>
       <path id="me5caca04db" d="M 0 0 
L 0 3.5 
" style="stroke: #000000; stroke-width: 0.8"/>
      </defs>
      <g>
       <use xlink:href="#me5caca04db" x="124.772804" y="352.8" style="stroke: #000000; stroke-width: 0.8"/>
      </g>
     </g>
     <g id="text_1">
      <!-- RPE -->
      <g transform="translate(128.084054 382.95625)rotate(-90)scale(0.12 -0.12)">
       <defs>
        <path id="DejaVuSans-52" d="M 2841 2188 
Q 3044 2119 3236 1894 
Q 3428 1669 3622 1275 
L 4263 0 
L 3584 0 
L 2988 1197 
Q 2756 1666 2539 1819 
Q 2322 1972 1947 1972 
L 1259 1972 
L 1259 0 
L 628 0 
L 628 4666 
L 2053 4666 
Q 2853 4666 3247 4331 
Q 3641 3997 3641 3322 
Q 3641 2881 3436 2590 
Q 3231 2300 2841 2188 
z
M 1259 4147 
L 1259 2491 
L 2053 2491 
Q 2509 2491 2742 2702 
Q 2975 2913 2975 3322 
Q 2975 3731 2742 3939 
Q 2509 4147 2053 4147 
L 1259 4147 
z
" transform="scale(0.015625)"/>
        <path id="DejaVuSans-50" d="M 1259 4147 
L 1259 2394 
L 2053 2394 
Q 2494 2394 2734 2622 
Q 2975 2850 2975 3272 
Q 2975 3691 2734 3919 
Q 2494 4147 2053 4147 
L 1259 4147 
z
M 628 4666 
L 2053 4666 
Q 2838 4666 3239 4311 
Q 3641 3956 3641 3272 
Q 3641 2581 3239 2228 
Q 2838 1875 2053 1875 
L 1259 1875 
L 1259 0 
L 628 0 
L 628 4666 
z
" transform="scale(0.015625)"/>
        <path id="DejaVuSans-45" d="M 628 4666 
L 3578 4666 
L 3578 4134 
L 1259 4134 
L 1259 2753 
L 3481 2753 
L 3481 2222 
L 1259 2222 
L 1259 531 
L 3634 531 
L 3634 0 
L 628 0 
L 628 4666 
z
" transform="scale(0.015625)"/>
       </defs>
       <use xlink:href="#DejaVuSans-52"/>
       <use xlink:href="#DejaVuSans-50" x="69.482422"/>
       <use xlink:href="#DejaVuSans-45" x="129.785156"/>
      </g>
     </g>
    </g>
    <g id="xtick_2">
     <g id="line2d_2">
      <g>
       <use xlink:href="#me5caca04db" x="169.127884" y="352.8" style="stroke: #000000; stroke-width: 0.8"/>
      </g>
     </g>
     <g id="text_2">
      <!-- AT3G09260 -->
      <g transform="translate(172.439134 429.51625)rotate(-90)scale(0.12 -0.12)">
       <defs>
        <path id="DejaVuSans-41" d="M 2188 4044 
L 1331 1722 
L 3047 1722 
L 2188 4044 
z
M 1831 4666 
L 2547 4666 
L 4325 0 
L 3669 0 
L 3244 1197 
L 1141 1197 
L 716 0 
L 50 0 
L 1831 4666 
z
" transform="scale(0.015625)"/>
        <path id="DejaVuSans-54" d="M -19 4666 
L 3928 4666 
L 3928 4134 
L 2272 4134 
L 2272 0 
L 1638 0 
L 1638 4134 
L -19 4134 
L -19 4666 
z
" transform="scale(0.015625)"/>
        <path id="DejaVuSans-33" d="M 2597 2516 
Q 3050 2419 3304 2112 
Q 3559 1806 3559 1356 
Q 3559 666 3084 287 
Q 2609 -91 1734 -91 
Q 1441 -91 1130 -33 
Q 819 25 488 141 
L 488 750 
Q 750 597 1062 519 
Q 1375 441 1716 441 
Q 2309 441 2620 675 
Q 2931 909 2931 1356 
Q 2931 1769 2642 2001 
Q 2353 2234 1838 2234 
L 1294 2234 
L 1294 2753 
L 1863 2753 
Q 2328 2753 2575 2939 
Q 2822 3125 2822 3475 
Q 2822 3834 2567 4026 
Q 2313 4219 1838 4219 
Q 1578 4219 1281 4162 
Q 984 4106 628 3988 
L 628 4550 
Q 988 4650 1302 4700 
Q 1616 4750 1894 4750 
Q 2613 4750 3031 4423 
Q 3450 4097 3450 3541 
Q 3450 3153 3228 2886 
Q 3006 2619 2597 2516 
z
" transform="scale(0.015625)"/>
        <path id="DejaVuSans-47" d="M 3809 666 
L 3809 1919 
L 2778 1919 
L 2778 2438 
L 4434 2438 
L 4434 434 
Q 4069 175 3628 42 
Q 3188 -91 2688 -91 
Q 1594 -91 976 548 
Q 359 1188 359 2328 
Q 359 3472 976 4111 
Q 1594 4750 2688 4750 
Q 3144 4750 3555 4637 
Q 3966 4525 4313 4306 
L 4313 3634 
Q 3963 3931 3569 4081 
Q 3175 4231 2741 4231 
Q 1884 4231 1454 3753 
Q 1025 3275 1025 2328 
Q 1025 1384 1454 906 
Q 1884 428 2741 428 
Q 3075 428 3337 486 
Q 3600 544 3809 666 
z
" transform="scale(0.015625)"/>
        <path id="DejaVuSans-30" d="M 2034 4250 
Q 1547 4250 1301 3770 
Q 1056 3291 1056 2328 
Q 1056 1369 1301 889 
Q 1547 409 2034 409 
Q 2525 409 2770 889 
Q 3016 1369 3016 2328 
Q 3016 3291 2770 3770 
Q 2525 4250 2034 4250 
z
M 2034 4750 
Q 2819 4750 3233 4129 
Q 3647 3509 3647 2328 
Q 3647 1150 3233 529 
Q 2819 -91 2034 -91 
Q 1250 -91 836 529 
Q 422 1150 422 2328 
Q 422 3509 836 4129 
Q 1250 4750 2034 4750 
z
" transform="scale(0.015625)"/>
        <path id="DejaVuSans-39" d="M 703 97 
L 703 672 
Q 941 559 1184 500 
Q 1428 441 1663 441 
Q 2288 441 2617 861 
Q 2947 1281 2994 2138 
Q 2813 1869 2534 1725 
Q 2256 1581 1919 1581 
Q 1219 1581 811 2004 
Q 403 2428 403 3163 
Q 403 3881 828 4315 
Q 1253 4750 1959 4750 
Q 2769 4750 3195 4129 
Q 3622 3509 3622 2328 
Q 3622 1225 3098 567 
Q 2575 -91 1691 -91 
Q 1453 -91 1209 -44 
Q 966 3 703 97 
z
M 1959 2075 
Q 2384 2075 2632 2365 
Q 2881 2656 2881 3163 
Q 2881 3666 2632 3958 
Q 2384 4250 1959 4250 
Q 1534 4250 1286 3958 
Q 1038 3666 1038 3163 
Q 1038 2656 1286 2365 
Q 1534 2075 1959 2075 
z
" transform="scale(0.015625)"/>
        <path id="DejaVuSans-32" d="M 1228 531 
L 3431 531 
L 3431 0 
L 469 0 
L 469 531 
Q 828 903 1448 1529 
Q 2069 2156 2228 2338 
Q 2531 2678 2651 2914 
Q 2772 3150 2772 3378 
Q 2772 3750 2511 3984 
Q 2250 4219 1831 4219 
Q 1534 4219 1204 4116 
Q 875 4013 500 3803 
L 500 4441 
Q 881 4594 1212 4672 
Q 1544 4750 1819 4750 
Q 2544 4750 2975 4387 
Q 3406 4025 3406 3419 
Q 3406 3131 3298 2873 
Q 3191 2616 2906 2266 
Q 2828 2175 2409 1742 
Q 1991 1309 1228 531 
z
" transform="scale(0.015625)"/>
        <path id="DejaVuSans-36" d="M 2113 2584 
Q 1688 2584 1439 2293 
Q 1191 2003 1191 1497 
Q 1191 994 1439 701 
Q 1688 409 2113 409 
Q 2538 409 2786 701 
Q 3034 994 3034 1497 
Q 3034 2003 2786 2293 
Q 2538 2584 2113 2584 
z
M 3366 4563 
L 3366 3988 
Q 3128 4100 2886 4159 
Q 2644 4219 2406 4219 
Q 1781 4219 1451 3797 
Q 1122 3375 1075 2522 
Q 1259 2794 1537 2939 
Q 1816 3084 2150 3084 
Q 2853 3084 3261 2657 
Q 3669 2231 3669 1497 
Q 3669 778 3244 343 
Q 2819 -91 2113 -91 
Q 1303 -91 875 529 
Q 447 1150 447 2328 
Q 447 3434 972 4092 
Q 1497 4750 2381 4750 
Q 2619 4750 2861 4703 
Q 3103 4656 3366 4563 
z
" transform="scale(0.015625)"/>
       </defs>
       <use xlink:href="#DejaVuSans-41"/>
       <use xlink:href="#DejaVuSans-54" x="60.658203"/>
       <use xlink:href="#DejaVuSans-33" x="121.742188"/>
       <use xlink:href="#DejaVuSans-47" x="185.365234"/>
       <use xlink:href="#DejaVuSans-30" x="262.855469"/>
       <use xlink:href="#DejaVuSans-39" x="326.478516"/>
       <use xlink:href="#DejaVuSans-32" x="390.101562"/>
       <use xlink:href="#DejaVuSans-36" x="453.724609"/>
       <use xlink:href="#DejaVuSans-30" x="517.347656"/>
      </g>
     </g>
    </g>
    <g id="xtick_3">
     <g id="line2d_3">
      <g>
       <use xlink:href="#me5caca04db" x="213.482965" y="352.8" style="stroke: #000000; stroke-width: 0.8"/>
      </g>
     </g>
     <g id="text_3">
      <!-- PSAE-2 -->
      <g transform="translate(216.794215 402.634375)rotate(-90)scale(0.12 -0.12)">
       <defs>
        <path id="DejaVuSans-53" d="M 3425 4513 
L 3425 3897 
Q 3066 4069 2747 4153 
Q 2428 4238 2131 4238 
Q 1616 4238 1336 4038 
Q 1056 3838 1056 3469 
Q 1056 3159 1242 3001 
Q 1428 2844 1947 2747 
L 2328 2669 
Q 3034 2534 3370 2195 
Q 3706 1856 3706 1288 
Q 3706 609 3251 259 
Q 2797 -91 1919 -91 
Q 1588 -91 1214 -16 
Q 841 59 441 206 
L 441 856 
Q 825 641 1194 531 
Q 1563 422 1919 422 
Q 2459 422 2753 634 
Q 3047 847 3047 1241 
Q 3047 1584 2836 1778 
Q 2625 1972 2144 2069 
L 1759 2144 
Q 1053 2284 737 2584 
Q 422 2884 422 3419 
Q 422 4038 858 4394 
Q 1294 4750 2059 4750 
Q 2388 4750 2728 4690 
Q 3069 4631 3425 4513 
z
" transform="scale(0.015625)"/>
        <path id="DejaVuSans-2d" d="M 313 2009 
L 1997 2009 
L 1997 1497 
L 313 1497 
L 313 2009 
z
" transform="scale(0.015625)"/>
       </defs>
       <use xlink:href="#DejaVuSans-50"/>
       <use xlink:href="#DejaVuSans-53" x="60.302734"/>
       <use xlink:href="#DejaVuSans-41" x="125.654297"/>
       <use xlink:href="#DejaVuSans-45" x="194.0625"/>
       <use xlink:href="#DejaVuSans-2d" x="257.246094"/>
       <use xlink:href="#DejaVuSans-32" x="293.330078"/>
      </g>
     </g>
    </g>
    <g id="xtick_4">
     <g id="line2d_4">
      <g>
       <use xlink:href="#me5caca04db" x="257.838045" y="352.8" style="stroke: #000000; stroke-width: 0.8"/>
      </g>
     </g>
     <g id="text_4">
      <!-- PSAG -->
      <g transform="translate(261.149295 392.175625)rotate(-90)scale(0.12 -0.12)">
       <use xlink:href="#DejaVuSans-50"/>
       <use xlink:href="#DejaVuSans-53" x="60.302734"/>
       <use xlink:href="#DejaVuSans-41" x="125.654297"/>
       <use xlink:href="#DejaVuSans-47" x="192.3125"/>
      </g>
     </g>
    </g>
    <g id="xtick_5">
     <g id="line2d_5">
      <g>
       <use xlink:href="#me5caca04db" x="302.193125" y="352.8" style="stroke: #000000; stroke-width: 0.8"/>
      </g>
     </g>
     <g id="text_5">
      <!-- RBCS3B -->
      <g transform="translate(305.504375 408.026875)rotate(-90)scale(0.12 -0.12)">
       <defs>
        <path id="DejaVuSans-42" d="M 1259 2228 
L 1259 519 
L 2272 519 
Q 2781 519 3026 730 
Q 3272 941 3272 1375 
Q 3272 1813 3026 2020 
Q 2781 2228 2272 2228 
L 1259 2228 
z
M 1259 4147 
L 1259 2741 
L 2194 2741 
Q 2656 2741 2882 2914 
Q 3109 3088 3109 3444 
Q 3109 3797 2882 3972 
Q 2656 4147 2194 4147 
L 1259 4147 
z
M 628 4666 
L 2241 4666 
Q 2963 4666 3353 4366 
Q 3744 4066 3744 3513 
Q 3744 3084 3544 2831 
Q 3344 2578 2956 2516 
Q 3422 2416 3680 2098 
Q 3938 1781 3938 1306 
Q 3938 681 3513 340 
Q 3088 0 2303 0 
L 628 0 
L 628 4666 
z
" transform="scale(0.015625)"/>
        <path id="DejaVuSans-43" d="M 4122 4306 
L 4122 3641 
Q 3803 3938 3442 4084 
Q 3081 4231 2675 4231 
Q 1875 4231 1450 3742 
Q 1025 3253 1025 2328 
Q 1025 1406 1450 917 
Q 1875 428 2675 428 
Q 3081 428 3442 575 
Q 3803 722 4122 1019 
L 4122 359 
Q 3791 134 3420 21 
Q 3050 -91 2638 -91 
Q 1578 -91 968 557 
Q 359 1206 359 2328 
Q 359 3453 968 4101 
Q 1578 4750 2638 4750 
Q 3056 4750 3426 4639 
Q 3797 4528 4122 4306 
z
" transform="scale(0.015625)"/>
       </defs>
       <use xlink:href="#DejaVuSans-52"/>
       <use xlink:href="#DejaVuSans-42" x="69.482422"/>
       <use xlink:href="#DejaVuSans-43" x="136.335938"/>
       <use xlink:href="#DejaVuSans-53" x="206.160156"/>
       <use xlink:href="#DejaVuSans-33" x="269.636719"/>
       <use xlink:href="#DejaVuSans-42" x="333.259766"/>
      </g>
     </g>
    </g>
    <g id="xtick_6">
     <g id="line2d_6">
      <g>
       <use xlink:href="#me5caca04db" x="346.548205" y="352.8" style="stroke: #000000; stroke-width: 0.8"/>
      </g>
     </g>
     <g id="text_6">
      <!-- GRP3S -->
      <g transform="translate(349.859455 399.925)rotate(-90)scale(0.12 -0.12)">
       <use xlink:href="#DejaVuSans-47"/>
       <use xlink:href="#DejaVuSans-52" x="77.490234"/>
       <use xlink:href="#DejaVuSans-50" x="146.972656"/>
       <use xlink:href="#DejaVuSans-33" x="207.275391"/>
       <use xlink:href="#DejaVuSans-53" x="270.898438"/>
      </g>
     </g>
    </g>
    <g id="xtick_7">
     <g id="line2d_7">
      <g>
       <use xlink:href="#me5caca04db" x="390.903285" y="352.8" style="stroke: #000000; stroke-width: 0.8"/>
      </g>
     </g>
     <g id="text_7">
      <!-- LTP2 -->
      <g transform="translate(394.214535 387.03625)rotate(-90)scale(0.12 -0.12)">
       <defs>
        <path id="DejaVuSans-4c" d="M 628 4666 
L 1259 4666 
L 1259 531 
L 3531 531 
L 3531 0 
L 628 0 
L 628 4666 
z
" transform="scale(0.015625)"/>
       </defs>
       <use xlink:href="#DejaVuSans-4c"/>
       <use xlink:href="#DejaVuSans-54" x="41.962891"/>
       <use xlink:href="#DejaVuSans-50" x="103.046875"/>
       <use xlink:href="#DejaVuSans-32" x="163.349609"/>
      </g>
     </g>
    </g>
    <g id="xtick_8">
     <g id="line2d_8">
      <g>
       <use xlink:href="#me5caca04db" x="435.258366" y="352.8" style="stroke: #000000; stroke-width: 0.8"/>
      </g>
     </g>
     <g id="text_8">
      <!-- ERD15 -->
      <g transform="translate(438.569616 400.230625)rotate(-90)scale(0.12 -0.12)">
       <defs>
        <path id="DejaVuSans-44" d="M 1259 4147 
L 1259 519 
L 2022 519 
Q 2988 519 3436 956 
Q 3884 1394 3884 2338 
Q 3884 3275 3436 3711 
Q 2988 4147 2022 4147 
L 1259 4147 
z
M 628 4666 
L 1925 4666 
Q 3281 4666 3915 4102 
Q 4550 3538 4550 2338 
Q 4550 1131 3912 565 
Q 3275 0 1925 0 
L 628 0 
L 628 4666 
z
" transform="scale(0.015625)"/>
        <path id="DejaVuSans-31" d="M 794 531 
L 1825 531 
L 1825 4091 
L 703 3866 
L 703 4441 
L 1819 4666 
L 2450 4666 
L 2450 531 
L 3481 531 
L 3481 0 
L 794 0 
L 794 531 
z
" transform="scale(0.015625)"/>
        <path id="DejaVuSans-35" d="M 691 4666 
L 3169 4666 
L 3169 4134 
L 1269 4134 
L 1269 2991 
Q 1406 3038 1543 3061 
Q 1681 3084 1819 3084 
Q 2600 3084 3056 2656 
Q 3513 2228 3513 1497 
Q 3513 744 3044 326 
Q 2575 -91 1722 -91 
Q 1428 -91 1123 -41 
Q 819 9 494 109 
L 494 744 
Q 775 591 1075 516 
Q 1375 441 1709 441 
Q 2250 441 2565 725 
Q 2881 1009 2881 1497 
Q 2881 1984 2565 2268 
Q 2250 2553 1709 2553 
Q 1456 2553 1204 2497 
Q 953 2441 691 2322 
L 691 4666 
z
" transform="scale(0.015625)"/>
       </defs>
       <use xlink:href="#DejaVuSans-45"/>
       <use xlink:href="#DejaVuSans-52" x="63.183594"/>
       <use xlink:href="#DejaVuSans-44" x="132.666016"/>
       <use xlink:href="#DejaVuSans-31" x="209.667969"/>
       <use xlink:href="#DejaVuSans-35" x="273.291016"/>
      </g>
     </g>
    </g>
    <g id="xtick_9">
     <g id="line2d_9">
      <g>
       <use xlink:href="#me5caca04db" x="479.613446" y="352.8" style="stroke: #000000; stroke-width: 0.8"/>
      </g>
     </g>
     <g id="text_9">
      <!-- GASA1 -->
      <g transform="translate(482.924696 400.99375)rotate(-90)scale(0.12 -0.12)">
       <use xlink:href="#DejaVuSans-47"/>
       <use xlink:href="#DejaVuSans-41" x="77.490234"/>
       <use xlink:href="#DejaVuSans-53" x="145.898438"/>
       <use xlink:href="#DejaVuSans-41" x="211.25"/>
       <use xlink:href="#DejaVuSans-31" x="279.658203"/>
      </g>
     </g>
    </g>
   </g>
   <g id="matplotlib.axis_2">
    <g id="ytick_1">
     <g id="line2d_10">
      <defs>
       <path id="mac98b1041d" d="M 0 0 
L -3.5 0 
" style="stroke: #000000; stroke-width: 0.8"/>
      </defs>
      <g>
       <use xlink:href="#mac98b1041d" x="94.833125" y="337.385435" style="stroke: #000000; stroke-width: 0.8"/>
      </g>
     </g>
     <g id="text_10">
      <!-- 0.010 -->
      <g transform="translate(28.620625 343.464185)scale(0.16 -0.16)">
       <defs>
        <path id="DejaVuSans-2212" d="M 678 2272 
L 4684 2272 
L 4684 1741 
L 678 1741 
L 678 2272 
z
" transform="scale(0.015625)"/>
        <path id="DejaVuSans-2e" d="M 684 794 
L 1344 794 
L 1344 0 
L 684 0 
L 684 794 
z
" transform="scale(0.015625)"/>
       </defs>
       <use xlink:href="#DejaVuSans-2212"/>
       <use xlink:href="#DejaVuSans-30" x="83.789062"/>
       <use xlink:href="#DejaVuSans-2e" x="147.412109"/>
       <use xlink:href="#DejaVuSans-30" x="179.199219"/>
       <use xlink:href="#DejaVuSans-31" x="242.822266"/>
       <use xlink:href="#DejaVuSans-30" x="306.445312"/>
      </g>
     </g>
    </g>
    <g id="ytick_2">
     <g id="line2d_11">
      <g>
       <use xlink:href="#mac98b1041d" x="94.833125" y="289.67657" style="stroke: #000000; stroke-width: 0.8"/>
      </g>
     </g>
     <g id="text_11">
      <!-- 0.008 -->
      <g transform="translate(28.620625 295.75532)scale(0.16 -0.16)">
       <defs>
        <path id="DejaVuSans-38" d="M 2034 2216 
Q 1584 2216 1326 1975 
Q 1069 1734 1069 1313 
Q 1069 891 1326 650 
Q 1584 409 2034 409 
Q 2484 409 2743 651 
Q 3003 894 3003 1313 
Q 3003 1734 2745 1975 
Q 2488 2216 2034 2216 
z
M 1403 2484 
Q 997 2584 770 2862 
Q 544 3141 544 3541 
Q 544 4100 942 4425 
Q 1341 4750 2034 4750 
Q 2731 4750 3128 4425 
Q 3525 4100 3525 3541 
Q 3525 3141 3298 2862 
Q 3072 2584 2669 2484 
Q 3125 2378 3379 2068 
Q 3634 1759 3634 1313 
Q 3634 634 3220 271 
Q 2806 -91 2034 -91 
Q 1263 -91 848 271 
Q 434 634 434 1313 
Q 434 1759 690 2068 
Q 947 2378 1403 2484 
z
M 1172 3481 
Q 1172 3119 1398 2916 
Q 1625 2713 2034 2713 
Q 2441 2713 2670 2916 
Q 2900 3119 2900 3481 
Q 2900 3844 2670 4047 
Q 2441 4250 2034 4250 
Q 1625 4250 1398 4047 
Q 1172 3844 1172 3481 
z
" transform="scale(0.015625)"/>
       </defs>
       <use xlink:href="#DejaVuSans-2212"/>
       <use xlink:href="#DejaVuSans-30" x="83.789062"/>
       <use xlink:href="#DejaVuSans-2e" x="147.412109"/>
       <use xlink:href="#DejaVuSans-30" x="179.199219"/>
       <use xlink:href="#DejaVuSans-30" x="242.822266"/>
       <use xlink:href="#DejaVuSans-38" x="306.445312"/>
      </g>
     </g>
    </g>
    <g id="ytick_3">
     <g id="line2d_12">
      <g>
       <use xlink:href="#mac98b1041d" x="94.833125" y="241.967705" style="stroke: #000000; stroke-width: 0.8"/>
      </g>
     </g>
     <g id="text_12">
      <!-- 0.006 -->
      <g transform="translate(28.620625 248.046455)scale(0.16 -0.16)">
       <use xlink:href="#DejaVuSans-2212"/>
       <use xlink:href="#DejaVuSans-30" x="83.789062"/>
       <use xlink:href="#DejaVuSans-2e" x="147.412109"/>
       <use xlink:href="#DejaVuSans-30" x="179.199219"/>
       <use xlink:href="#DejaVuSans-30" x="242.822266"/>
       <use xlink:href="#DejaVuSans-36" x="306.445312"/>
      </g>
     </g>
    </g>
    <g id="ytick_4">
     <g id="line2d_13">
      <g>
       <use xlink:href="#mac98b1041d" x="94.833125" y="194.25884" style="stroke: #000000; stroke-width: 0.8"/>
      </g>
     </g>
     <g id="text_13">
      <!-- 0.004 -->
      <g transform="translate(28.620625 200.33759)scale(0.16 -0.16)">
       <defs>
        <path id="DejaVuSans-34" d="M 2419 4116 
L 825 1625 
L 2419 1625 
L 2419 4116 
z
M 2253 4666 
L 3047 4666 
L 3047 1625 
L 3713 1625 
L 3713 1100 
L 3047 1100 
L 3047 0 
L 2419 0 
L 2419 1100 
L 313 1100 
L 313 1709 
L 2253 4666 
z
" transform="scale(0.015625)"/>
       </defs>
       <use xlink:href="#DejaVuSans-2212"/>
       <use xlink:href="#DejaVuSans-30" x="83.789062"/>
       <use xlink:href="#DejaVuSans-2e" x="147.412109"/>
       <use xlink:href="#DejaVuSans-30" x="179.199219"/>
       <use xlink:href="#DejaVuSans-30" x="242.822266"/>
       <use xlink:href="#DejaVuSans-34" x="306.445312"/>
      </g>
     </g>
    </g>
    <g id="ytick_5">
     <g id="line2d_14">
      <g>
       <use xlink:href="#mac98b1041d" x="94.833125" y="146.549975" style="stroke: #000000; stroke-width: 0.8"/>
      </g>
     </g>
     <g id="text_14">
      <!-- 0.002 -->
      <g transform="translate(28.620625 152.628725)scale(0.16 -0.16)">
       <use xlink:href="#DejaVuSans-2212"/>
       <use xlink:href="#DejaVuSans-30" x="83.789062"/>
       <use xlink:href="#DejaVuSans-2e" x="147.412109"/>
       <use xlink:href="#DejaVuSans-30" x="179.199219"/>
       <use xlink:href="#DejaVuSans-30" x="242.822266"/>
       <use xlink:href="#DejaVuSans-32" x="306.445312"/>
      </g>
     </g>
    </g>
    <g id="ytick_6">
     <g id="line2d_15">
      <g>
       <use xlink:href="#mac98b1041d" x="94.833125" y="98.84111" style="stroke: #000000; stroke-width: 0.8"/>
      </g>
     </g>
     <g id="text_15">
      <!-- 0.000 -->
      <g transform="translate(42.028125 104.91986)scale(0.16 -0.16)">
       <use xlink:href="#DejaVuSans-30"/>
       <use xlink:href="#DejaVuSans-2e" x="63.623047"/>
       <use xlink:href="#DejaVuSans-30" x="95.410156"/>
       <use xlink:href="#DejaVuSans-30" x="159.033203"/>
       <use xlink:href="#DejaVuSans-30" x="222.65625"/>
      </g>
     </g>
    </g>
    <g id="ytick_7">
     <g id="line2d_16">
      <g>
       <use xlink:href="#mac98b1041d" x="94.833125" y="51.132245" style="stroke: #000000; stroke-width: 0.8"/>
      </g>
     </g>
     <g id="text_16">
      <!-- 0.002 -->
      <g transform="translate(42.028125 57.210995)scale(0.16 -0.16)">
       <use xlink:href="#DejaVuSans-30"/>
       <use xlink:href="#DejaVuSans-2e" x="63.623047"/>
       <use xlink:href="#DejaVuSans-30" x="95.410156"/>
       <use xlink:href="#DejaVuSans-30" x="159.033203"/>
       <use xlink:href="#DejaVuSans-32" x="222.65625"/>
      </g>
     </g>
    </g>
    <g id="text_17">
     <!-- Coefficients of gene expression -->
     <g transform="translate(20.877187 321.366094)rotate(-90)scale(0.18 -0.18)">
      <defs>
       <path id="DejaVuSans-6f" d="M 1959 3097 
Q 1497 3097 1228 2736 
Q 959 2375 959 1747 
Q 959 1119 1226 758 
Q 1494 397 1959 397 
Q 2419 397 2687 759 
Q 2956 1122 2956 1747 
Q 2956 2369 2687 2733 
Q 2419 3097 1959 3097 
z
M 1959 3584 
Q 2709 3584 3137 3096 
Q 3566 2609 3566 1747 
Q 3566 888 3137 398 
Q 2709 -91 1959 -91 
Q 1206 -91 779 398 
Q 353 888 353 1747 
Q 353 2609 779 3096 
Q 1206 3584 1959 3584 
z
" transform="scale(0.015625)"/>
       <path id="DejaVuSans-65" d="M 3597 1894 
L 3597 1613 
L 953 1613 
Q 991 1019 1311 708 
Q 1631 397 2203 397 
Q 2534 397 2845 478 
Q 3156 559 3463 722 
L 3463 178 
Q 3153 47 2828 -22 
Q 2503 -91 2169 -91 
Q 1331 -91 842 396 
Q 353 884 353 1716 
Q 353 2575 817 3079 
Q 1281 3584 2069 3584 
Q 2775 3584 3186 3129 
Q 3597 2675 3597 1894 
z
M 3022 2063 
Q 3016 2534 2758 2815 
Q 2500 3097 2075 3097 
Q 1594 3097 1305 2825 
Q 1016 2553 972 2059 
L 3022 2063 
z
" transform="scale(0.015625)"/>
       <path id="DejaVuSans-66" d="M 2375 4863 
L 2375 4384 
L 1825 4384 
Q 1516 4384 1395 4259 
Q 1275 4134 1275 3809 
L 1275 3500 
L 2222 3500 
L 2222 3053 
L 1275 3053 
L 1275 0 
L 697 0 
L 697 3053 
L 147 3053 
L 147 3500 
L 697 3500 
L 697 3744 
Q 697 4328 969 4595 
Q 1241 4863 1831 4863 
L 2375 4863 
z
" transform="scale(0.015625)"/>
       <path id="DejaVuSans-69" d="M 603 3500 
L 1178 3500 
L 1178 0 
L 603 0 
L 603 3500 
z
M 603 4863 
L 1178 4863 
L 1178 4134 
L 603 4134 
L 603 4863 
z
" transform="scale(0.015625)"/>
       <path id="DejaVuSans-63" d="M 3122 3366 
L 3122 2828 
Q 2878 2963 2633 3030 
Q 2388 3097 2138 3097 
Q 1578 3097 1268 2742 
Q 959 2388 959 1747 
Q 959 1106 1268 751 
Q 1578 397 2138 397 
Q 2388 397 2633 464 
Q 2878 531 3122 666 
L 3122 134 
Q 2881 22 2623 -34 
Q 2366 -91 2075 -91 
Q 1284 -91 818 406 
Q 353 903 353 1747 
Q 353 2603 823 3093 
Q 1294 3584 2113 3584 
Q 2378 3584 2631 3529 
Q 2884 3475 3122 3366 
z
" transform="scale(0.015625)"/>
       <path id="DejaVuSans-6e" d="M 3513 2113 
L 3513 0 
L 2938 0 
L 2938 2094 
Q 2938 2591 2744 2837 
Q 2550 3084 2163 3084 
Q 1697 3084 1428 2787 
Q 1159 2491 1159 1978 
L 1159 0 
L 581 0 
L 581 3500 
L 1159 3500 
L 1159 2956 
Q 1366 3272 1645 3428 
Q 1925 3584 2291 3584 
Q 2894 3584 3203 3211 
Q 3513 2838 3513 2113 
z
" transform="scale(0.015625)"/>
       <path id="DejaVuSans-74" d="M 1172 4494 
L 1172 3500 
L 2356 3500 
L 2356 3053 
L 1172 3053 
L 1172 1153 
Q 1172 725 1289 603 
Q 1406 481 1766 481 
L 2356 481 
L 2356 0 
L 1766 0 
Q 1100 0 847 248 
Q 594 497 594 1153 
L 594 3053 
L 172 3053 
L 172 3500 
L 594 3500 
L 594 4494 
L 1172 4494 
z
" transform="scale(0.015625)"/>
       <path id="DejaVuSans-73" d="M 2834 3397 
L 2834 2853 
Q 2591 2978 2328 3040 
Q 2066 3103 1784 3103 
Q 1356 3103 1142 2972 
Q 928 2841 928 2578 
Q 928 2378 1081 2264 
Q 1234 2150 1697 2047 
L 1894 2003 
Q 2506 1872 2764 1633 
Q 3022 1394 3022 966 
Q 3022 478 2636 193 
Q 2250 -91 1575 -91 
Q 1294 -91 989 -36 
Q 684 19 347 128 
L 347 722 
Q 666 556 975 473 
Q 1284 391 1588 391 
Q 1994 391 2212 530 
Q 2431 669 2431 922 
Q 2431 1156 2273 1281 
Q 2116 1406 1581 1522 
L 1381 1569 
Q 847 1681 609 1914 
Q 372 2147 372 2553 
Q 372 3047 722 3315 
Q 1072 3584 1716 3584 
Q 2034 3584 2315 3537 
Q 2597 3491 2834 3397 
z
" transform="scale(0.015625)"/>
       <path id="DejaVuSans-20" transform="scale(0.015625)"/>
       <path id="DejaVuSans-67" d="M 2906 1791 
Q 2906 2416 2648 2759 
Q 2391 3103 1925 3103 
Q 1463 3103 1205 2759 
Q 947 2416 947 1791 
Q 947 1169 1205 825 
Q 1463 481 1925 481 
Q 2391 481 2648 825 
Q 2906 1169 2906 1791 
z
M 3481 434 
Q 3481 -459 3084 -895 
Q 2688 -1331 1869 -1331 
Q 1566 -1331 1297 -1286 
Q 1028 -1241 775 -1147 
L 775 -588 
Q 1028 -725 1275 -790 
Q 1522 -856 1778 -856 
Q 2344 -856 2625 -561 
Q 2906 -266 2906 331 
L 2906 616 
Q 2728 306 2450 153 
Q 2172 0 1784 0 
Q 1141 0 747 490 
Q 353 981 353 1791 
Q 353 2603 747 3093 
Q 1141 3584 1784 3584 
Q 2172 3584 2450 3431 
Q 2728 3278 2906 2969 
L 2906 3500 
L 3481 3500 
L 3481 434 
z
" transform="scale(0.015625)"/>
       <path id="DejaVuSans-78" d="M 3513 3500 
L 2247 1797 
L 3578 0 
L 2900 0 
L 1881 1375 
L 863 0 
L 184 0 
L 1544 1831 
L 300 3500 
L 978 3500 
L 1906 2253 
L 2834 3500 
L 3513 3500 
z
" transform="scale(0.015625)"/>
       <path id="DejaVuSans-70" d="M 1159 525 
L 1159 -1331 
L 581 -1331 
L 581 3500 
L 1159 3500 
L 1159 2969 
Q 1341 3281 1617 3432 
Q 1894 3584 2278 3584 
Q 2916 3584 3314 3078 
Q 3713 2572 3713 1747 
Q 3713 922 3314 415 
Q 2916 -91 2278 -91 
Q 1894 -91 1617 61 
Q 1341 213 1159 525 
z
M 3116 1747 
Q 3116 2381 2855 2742 
Q 2594 3103 2138 3103 
Q 1681 3103 1420 2742 
Q 1159 2381 1159 1747 
Q 1159 1113 1420 752 
Q 1681 391 2138 391 
Q 2594 391 2855 752 
Q 3116 1113 3116 1747 
z
" transform="scale(0.015625)"/>
       <path id="DejaVuSans-72" d="M 2631 2963 
Q 2534 3019 2420 3045 
Q 2306 3072 2169 3072 
Q 1681 3072 1420 2755 
Q 1159 2438 1159 1844 
L 1159 0 
L 581 0 
L 581 3500 
L 1159 3500 
L 1159 2956 
Q 1341 3275 1631 3429 
Q 1922 3584 2338 3584 
Q 2397 3584 2469 3576 
Q 2541 3569 2628 3553 
L 2631 2963 
z
" transform="scale(0.015625)"/>
      </defs>
      <use xlink:href="#DejaVuSans-43"/>
      <use xlink:href="#DejaVuSans-6f" x="69.824219"/>
      <use xlink:href="#DejaVuSans-65" x="131.005859"/>
      <use xlink:href="#DejaVuSans-66" x="192.529297"/>
      <use xlink:href="#DejaVuSans-66" x="227.734375"/>
      <use xlink:href="#DejaVuSans-69" x="262.939453"/>
      <use xlink:href="#DejaVuSans-63" x="290.722656"/>
      <use xlink:href="#DejaVuSans-69" x="345.703125"/>
      <use xlink:href="#DejaVuSans-65" x="373.486328"/>
      <use xlink:href="#DejaVuSans-6e" x="435.009766"/>
      <use xlink:href="#DejaVuSans-74" x="498.388672"/>
      <use xlink:href="#DejaVuSans-73" x="537.597656"/>
      <use xlink:href="#DejaVuSans-20" x="589.697266"/>
      <use xlink:href="#DejaVuSans-6f" x="621.484375"/>
      <use xlink:href="#DejaVuSans-66" x="682.666016"/>
      <use xlink:href="#DejaVuSans-20" x="717.871094"/>
      <use xlink:href="#DejaVuSans-67" x="749.658203"/>
      <use xlink:href="#DejaVuSans-65" x="813.134766"/>
      <use xlink:href="#DejaVuSans-6e" x="874.658203"/>
      <use xlink:href="#DejaVuSans-65" x="938.037109"/>
      <use xlink:href="#DejaVuSans-20" x="999.560547"/>
      <use xlink:href="#DejaVuSans-65" x="1031.347656"/>
      <use xlink:href="#DejaVuSans-78" x="1091.121094"/>
      <use xlink:href="#DejaVuSans-70" x="1150.300781"/>
      <use xlink:href="#DejaVuSans-72" x="1213.777344"/>
      <use xlink:href="#DejaVuSans-65" x="1252.640625"/>
      <use xlink:href="#DejaVuSans-73" x="1314.164062"/>
      <use xlink:href="#DejaVuSans-73" x="1366.263672"/>
      <use xlink:href="#DejaVuSans-69" x="1418.363281"/>
      <use xlink:href="#DejaVuSans-6f" x="1446.146484"/>
      <use xlink:href="#DejaVuSans-6e" x="1507.328125"/>
     </g>
    </g>
   </g>
   <g id="LineCollection_1">
    <path d="M 124.772804 311.401695 
L 124.772804 300.181784 
" clip-path="url(#p843a22e54b)" style="fill: none; stroke: #000000; stroke-width: 5"/>
    <path d="M 169.127884 142.91223 
L 169.127884 137.062334 
" clip-path="url(#p843a22e54b)" style="fill: none; stroke: #000000; stroke-width: 5"/>
    <path d="M 213.482965 131.626216 
L 213.482965 125.150118 
" clip-path="url(#p843a22e54b)" style="fill: none; stroke: #000000; stroke-width: 5"/>
    <path d="M 257.838045 123.646443 
L 257.838045 118.950894 
" clip-path="url(#p843a22e54b)" style="fill: none; stroke: #000000; stroke-width: 5"/>
    <path d="M 302.193125 102.390371 
L 302.193125 101.976276 
" clip-path="url(#p843a22e54b)" style="fill: none; stroke: #000000; stroke-width: 5"/>
    <path d="M 346.548205 79.938763 
L 346.548205 77.432293 
" clip-path="url(#p843a22e54b)" style="fill: none; stroke: #000000; stroke-width: 5"/>
    <path d="M 390.903285 69.944654 
L 390.903285 65.86144 
" clip-path="url(#p843a22e54b)" style="fill: none; stroke: #000000; stroke-width: 5"/>
    <path d="M 435.258366 57.776359 
L 435.258366 52.295563 
" clip-path="url(#p843a22e54b)" style="fill: none; stroke: #000000; stroke-width: 5"/>
    <path d="M 479.613446 55.541537 
L 479.613446 52.526625 
" clip-path="url(#p843a22e54b)" style="fill: none; stroke: #000000; stroke-width: 5"/>
   </g>
   <g id="LineCollection_2">
    <path d="M 124.772804 311.401695 
L 124.772804 309.970591 
" clip-path="url(#p843a22e54b)" style="fill: none; stroke: #000000"/>
    <path d="M 169.127884 142.91223 
L 169.127884 143.042277 
" clip-path="url(#p843a22e54b)" style="fill: none; stroke: #000000"/>
    <path d="M 213.482965 131.626216 
L 213.482965 134.596382 
" clip-path="url(#p843a22e54b)" style="fill: none; stroke: #000000"/>
    <path d="M 257.838045 123.646443 
L 257.838045 118.967122 
" clip-path="url(#p843a22e54b)" style="fill: none; stroke: #000000"/>
    <path d="M 302.193125 102.390371 
L 302.193125 102.278225 
" clip-path="url(#p843a22e54b)" style="fill: none; stroke: #000000"/>
    <path d="M 346.548205 79.938763 
L 346.548205 79.11818 
" clip-path="url(#p843a22e54b)" style="fill: none; stroke: #000000"/>
    <path d="M 390.903285 69.944654 
L 390.903285 66.165985 
" clip-path="url(#p843a22e54b)" style="fill: none; stroke: #000000"/>
    <path d="M 435.258366 57.776359 
L 435.258366 56.685802 
" clip-path="url(#p843a22e54b)" style="fill: none; stroke: #000000"/>
    <path d="M 479.613446 55.541537 
L 479.613446 57.670017 
" clip-path="url(#p843a22e54b)" style="fill: none; stroke: #000000"/>
   </g>
   <g id="line2d_17">
    <path d="M 94.833125 98.84111 
L 509.553125 98.84111 
" clip-path="url(#p843a22e54b)" style="fill: none; stroke-dasharray: 5.55,2.4; stroke-dashoffset: 0; stroke: #000000; stroke-width: 1.5"/>
   </g>
   <g id="patch_3">
    <path d="M 94.833125 352.8 
L 94.833125 7.2 
" style="fill: none; stroke: #000000; stroke-width: 0.8; stroke-linejoin: miter; stroke-linecap: square"/>
   </g>
   <g id="patch_4">
    <path d="M 509.553125 352.8 
L 509.553125 7.2 
" style="fill: none; stroke: #000000; stroke-width: 0.8; stroke-linejoin: miter; stroke-linecap: square"/>
   </g>
   <g id="patch_5">
    <path d="M 94.833125 352.8 
L 509.553125 352.8 
" style="fill: none; stroke: #000000; stroke-width: 0.8; stroke-linejoin: miter; stroke-linecap: square"/>
   </g>
   <g id="patch_6">
    <path d="M 94.833125 7.2 
L 509.553125 7.2 
" style="fill: none; stroke: #000000; stroke-width: 0.8; stroke-linejoin: miter; stroke-linecap: square"/>
   </g>
   <g id="PathCollection_1">
    <defs>
     <path id="m0f441e84f0" d="M 0 2.738613 
C 0.726289 2.738613 1.422928 2.450055 1.936492 1.936492 
C 2.450055 1.422928 2.738613 0.726289 2.738613 0 
C 2.738613 -0.726289 2.450055 -1.422928 1.936492 -1.936492 
C 1.422928 -2.450055 0.726289 -2.738613 0 -2.738613 
C -0.726289 -2.738613 -1.422928 -2.450055 -1.936492 -1.936492 
C -2.450055 -1.422928 -2.738613 -0.726289 -2.738613 0 
C -2.738613 0.726289 -2.450055 1.422928 -1.936492 1.936492 
C -1.422928 2.450055 -0.726289 2.738613 0 2.738613 
z
" style="stroke: #ffffff"/>
    </defs>
    <g clip-path="url(#p843a22e54b)">
     <use xlink:href="#m0f441e84f0" x="124.772804" y="307.943137" style="fill: #ffffff; stroke: #ffffff"/>
     <use xlink:href="#m0f441e84f0" x="169.127884" y="141.316131" style="fill: #ffffff; stroke: #ffffff"/>
     <use xlink:href="#m0f441e84f0" x="213.482965" y="128.639128" style="fill: #ffffff; stroke: #ffffff"/>
     <use xlink:href="#m0f441e84f0" x="257.838045" y="121.846933" style="fill: #ffffff; stroke: #ffffff"/>
     <use xlink:href="#m0f441e84f0" x="302.193125" y="102.133546" style="fill: #ffffff; stroke: #ffffff"/>
     <use xlink:href="#m0f441e84f0" x="346.548205" y="78.570536" style="fill: #ffffff; stroke: #ffffff"/>
     <use xlink:href="#m0f441e84f0" x="390.903285" y="66.659542" style="fill: #ffffff; stroke: #ffffff"/>
     <use xlink:href="#m0f441e84f0" x="435.258366" y="55.370462" style="fill: #ffffff; stroke: #ffffff"/>
     <use xlink:href="#m0f441e84f0" x="479.613446" y="54.527289" style="fill: #ffffff; stroke: #ffffff"/>
    </g>
   </g>
  </g>
 </g>
 <defs>
  <clipPath id="p843a22e54b">
   <rect x="94.833125" y="7.2" width="414.72" height="345.6"/>
  </clipPath>
 </defs>
</svg>
