<?xml version="1.0" encoding="utf-8" standalone="no"?>
<!DOCTYPE svg PUBLIC "-//W3C//DTD SVG 1.1//EN"
  "http://www.w3.org/Graphics/SVG/1.1/DTD/svg11.dtd">
<svg xmlns:xlink="http://www.w3.org/1999/xlink" width="512.702187pt" height="436.71625pt" viewBox="0 0 512.702187 436.71625" xmlns="http://www.w3.org/2000/svg" version="1.1">
 <metadata>
  <rdf:RDF xmlns:dc="http://purl.org/dc/elements/1.1/" xmlns:cc="http://creativecommons.org/ns#" xmlns:rdf="http://www.w3.org/1999/02/22-rdf-syntax-ns#">
   <cc:Work>
    <dc:type rdf:resource="http://purl.org/dc/dcmitype/StillImage"/>
    <dc:date>2024-01-22T16:10:59.928948</dc:date>
    <dc:format>image/svg+xml</dc:format>
    <dc:creator>
     <cc:Agent>
      <dc:title>Matplotlib v3.5.0, https://matplotlib.org/</dc:title>
     </cc:Agent>
    </dc:creator>
   </cc:Work>
  </rdf:RDF>
 </metadata>
 <defs>
  <style type="text/css">*{stroke-linejoin: round; stroke-linecap: butt}</style>
 </defs>
 <g id="figure_1">
  <g id="patch_1">
   <path d="M 0 436.71625 
L 512.702187 436.71625 
L 512.702187 0 
L 0 0 
z
" style="fill: #ffffff"/>
  </g>
  <g id="axes_1">
   <g id="patch_2">
    <path d="M 90.782187 352.8 
L 505.502187 352.8 
L 505.502187 7.2 
L 90.782187 7.2 
z
" style="fill: #ffffff"/>
   </g>
   <g id="PolyCollection_1">
    <defs>
     <path id="m36292aa5d0" d="M 123.825797 -105.28417 
L 115.283458 -105.28417 
L 114.687316 -106.523339 
L 114.067508 -107.762509 
L 113.435717 -109.001679 
L 112.805547 -110.240849 
L 112.192084 -111.480019 
L 111.611308 -112.719189 
L 111.07939 -113.958358 
L 110.611902 -115.197528 
L 110.223015 -116.436698 
L 109.924721 -117.675868 
L 109.72616 -118.915038 
L 109.633097 -120.154208 
L 109.647588 -121.393377 
L 109.767887 -122.632547 
L 109.988565 -123.871717 
L 110.30087 -125.110887 
L 110.693262 -126.350057 
L 111.152098 -127.589227 
L 111.662404 -128.828397 
L 112.208659 -130.067566 
L 112.77556 -131.306736 
L 113.348681 -132.545906 
L 113.915018 -133.785076 
L 114.463378 -135.024246 
L 114.984609 -136.263416 
L 115.471682 -137.502585 
L 115.919638 -138.741755 
L 116.32543 -139.980925 
L 116.687693 -141.220095 
L 117.006471 -142.459265 
L 117.28293 -143.698435 
L 117.519082 -144.937604 
L 117.717532 -146.176774 
L 117.881262 -147.415944 
L 118.01346 -148.655114 
L 118.117374 -149.894284 
L 118.196221 -151.133454 
L 118.253106 -152.372623 
L 118.290978 -153.611793 
L 118.3126 -154.850963 
L 118.320534 -156.090133 
L 118.317139 -157.329303 
L 118.304578 -158.568473 
L 118.284829 -159.807643 
L 118.259708 -161.046812 
L 118.230893 -162.285982 
L 118.199948 -163.525152 
L 118.168355 -164.764322 
L 118.137526 -166.003492 
L 118.108825 -167.242662 
L 118.083573 -168.481831 
L 118.063037 -169.721001 
L 118.048415 -170.960171 
L 118.040805 -172.199341 
L 118.041167 -173.438511 
L 118.050276 -174.677681 
L 118.068675 -175.91685 
L 118.096636 -177.15602 
L 118.134124 -178.39519 
L 118.180774 -179.63436 
L 118.235896 -180.87353 
L 118.298483 -182.1127 
L 118.367255 -183.35187 
L 118.440711 -184.591039 
L 118.517199 -185.830209 
L 118.594997 -187.069379 
L 118.672397 -188.308549 
L 118.74779 -189.547719 
L 118.819741 -190.786889 
L 118.88705 -192.026058 
L 118.948797 -193.265228 
L 119.004369 -194.504398 
L 119.053464 -195.743568 
L 119.09607 -196.982738 
L 119.132437 -198.221908 
L 119.163021 -199.461077 
L 119.188435 -200.700247 
L 119.209378 -201.939417 
L 119.226579 -203.178587 
L 119.240742 -204.417757 
L 119.252498 -205.656927 
L 119.262375 -206.896096 
L 119.27078 -208.135266 
L 119.278 -209.374436 
L 119.284209 -210.613606 
L 119.289492 -211.852776 
L 119.293875 -213.091946 
L 119.297358 -214.331116 
L 119.299951 -215.570285 
L 119.301698 -216.809455 
L 119.302701 -218.048625 
L 119.303134 -219.287795 
L 119.303238 -220.526965 
L 119.303316 -221.766135 
L 119.303717 -223.005304 
L 119.304804 -224.244474 
L 119.30693 -225.483644 
L 119.310412 -226.722814 
L 119.315497 -227.961984 
L 119.793759 -227.961984 
L 119.793759 -227.961984 
L 119.798844 -226.722814 
L 119.802325 -225.483644 
L 119.804452 -224.244474 
L 119.805538 -223.005304 
L 119.805939 -221.766135 
L 119.806018 -220.526965 
L 119.806122 -219.287795 
L 119.806554 -218.048625 
L 119.807558 -216.809455 
L 119.809305 -215.570285 
L 119.811897 -214.331116 
L 119.815381 -213.091946 
L 119.819763 -211.852776 
L 119.825046 -210.613606 
L 119.831255 -209.374436 
L 119.838475 -208.135266 
L 119.846881 -206.896096 
L 119.856757 -205.656927 
L 119.868513 -204.417757 
L 119.882676 -203.178587 
L 119.899877 -201.939417 
L 119.92082 -200.700247 
L 119.946234 -199.461077 
L 119.976819 -198.221908 
L 120.013185 -196.982738 
L 120.055791 -195.743568 
L 120.104886 -194.504398 
L 120.160459 -193.265228 
L 120.222206 -192.026058 
L 120.289514 -190.786889 
L 120.361465 -189.547719 
L 120.436858 -188.308549 
L 120.514258 -187.069379 
L 120.592056 -185.830209 
L 120.668544 -184.591039 
L 120.742 -183.35187 
L 120.810773 -182.1127 
L 120.87336 -180.87353 
L 120.928481 -179.63436 
L 120.975132 -178.39519 
L 121.012619 -177.15602 
L 121.04058 -175.91685 
L 121.05898 -174.677681 
L 121.068088 -173.438511 
L 121.06845 -172.199341 
L 121.06084 -170.960171 
L 121.046218 -169.721001 
L 121.025682 -168.481831 
L 121.00043 -167.242662 
L 120.97173 -166.003492 
L 120.940901 -164.764322 
L 120.909307 -163.525152 
L 120.878363 -162.285982 
L 120.849547 -161.046812 
L 120.824426 -159.807643 
L 120.804677 -158.568473 
L 120.792116 -157.329303 
L 120.788722 -156.090133 
L 120.796656 -154.850963 
L 120.818278 -153.611793 
L 120.856149 -152.372623 
L 120.913034 -151.133454 
L 120.991881 -149.894284 
L 121.095796 -148.655114 
L 121.227993 -147.415944 
L 121.391724 -146.176774 
L 121.590173 -144.937604 
L 121.826325 -143.698435 
L 122.102784 -142.459265 
L 122.421562 -141.220095 
L 122.783825 -139.980925 
L 123.189617 -138.741755 
L 123.637573 -137.502585 
L 124.124647 -136.263416 
L 124.645878 -135.024246 
L 125.194238 -133.785076 
L 125.760575 -132.545906 
L 126.333695 -131.306736 
L 126.900596 -130.067566 
L 127.446852 -128.828397 
L 127.957157 -127.589227 
L 128.415994 -126.350057 
L 128.808386 -125.110887 
L 129.12069 -123.871717 
L 129.341369 -122.632547 
L 129.461667 -121.393377 
L 129.476159 -120.154208 
L 129.383095 -118.915038 
L 129.184534 -117.675868 
L 128.88624 -116.436698 
L 128.497353 -115.197528 
L 128.029866 -113.958358 
L 127.497947 -112.719189 
L 126.917172 -111.480019 
L 126.303708 -110.240849 
L 125.673538 -109.001679 
L 125.041747 -107.762509 
L 124.421939 -106.523339 
L 123.825797 -105.28417 
z
" style="stroke: #000000"/>
    </defs>
    <g clip-path="url(#p1704f9a80b)">
     <use xlink:href="#m36292aa5d0" x="0" y="436.71625" style="fill: #d43f3a; stroke: #000000"/>
    </g>
   </g>
   <g id="PolyCollection_2">
    <defs>
     <path id="m90ff068d66" d="M 160.053369 -99.625341 
L 158.428135 -99.625341 
L 158.410695 -100.041684 
L 158.402556 -100.458026 
L 158.40358 -100.874369 
L 158.413181 -101.290711 
L 158.430341 -101.707054 
L 158.453653 -102.123397 
L 158.481385 -102.539739 
L 158.511563 -102.956082 
L 158.54207 -103.372425 
L 158.570752 -103.788767 
L 158.595524 -104.20511 
L 158.614468 -104.621453 
L 158.62593 -105.037795 
L 158.628595 -105.454138 
L 158.621543 -105.870481 
L 158.604287 -106.286823 
L 158.576793 -106.703166 
L 158.53947 -107.119508 
L 158.493143 -107.535851 
L 158.439008 -107.952194 
L 158.378563 -108.368536 
L 158.313534 -108.784879 
L 158.245777 -109.201222 
L 158.177182 -109.617564 
L 158.109565 -110.033907 
L 158.044563 -110.45025 
L 157.983527 -110.866592 
L 157.927428 -111.282935 
L 157.876768 -111.699278 
L 157.831503 -112.11562 
L 157.790989 -112.531963 
L 157.753943 -112.948305 
L 157.718429 -113.364648 
L 157.681873 -113.780991 
L 157.641103 -114.197333 
L 157.592427 -114.613676 
L 157.531738 -115.030019 
L 157.454651 -115.446361 
L 157.356677 -115.862704 
L 157.233417 -116.279047 
L 157.080775 -116.695389 
L 156.895192 -117.111732 
L 156.67386 -117.528074 
L 156.414939 -117.944417 
L 156.117737 -118.36076 
L 155.782837 -118.777102 
L 155.412183 -119.193445 
L 155.009088 -119.609788 
L 154.578166 -120.02613 
L 154.125202 -120.442473 
L 153.656945 -120.858816 
L 153.180853 -121.275158 
L 152.7048 -121.691501 
L 152.236765 -122.107844 
L 151.784531 -122.524186 
L 151.355412 -122.940529 
L 150.956027 -123.356871 
L 150.592129 -123.773214 
L 150.268506 -124.189557 
L 149.988942 -124.605899 
L 149.75623 -125.022242 
L 149.572238 -125.438585 
L 149.437991 -125.854927 
L 149.353773 -126.27127 
L 149.319221 -126.687613 
L 149.333405 -127.103955 
L 149.394891 -127.520298 
L 149.50178 -127.936641 
L 149.651736 -128.352983 
L 149.842004 -128.769326 
L 150.069427 -129.185668 
L 150.330478 -129.602011 
L 150.621302 -130.018354 
L 150.937783 -130.434696 
L 151.275631 -130.851039 
L 151.63048 -131.267382 
L 151.997998 -131.683724 
L 152.373995 -132.100067 
L 152.754527 -132.51641 
L 153.135971 -132.932752 
L 153.515089 -133.349095 
L 153.889058 -133.765438 
L 154.255477 -134.18178 
L 154.612348 -134.598123 
L 154.958044 -135.014465 
L 155.291257 -135.430808 
L 155.610956 -135.847151 
L 155.916331 -136.263493 
L 156.206756 -136.679836 
L 156.481762 -137.096179 
L 156.741012 -137.512521 
L 156.984298 -137.928864 
L 157.211536 -138.345207 
L 157.422776 -138.761549 
L 157.618198 -139.177892 
L 157.79812 -139.594234 
L 157.962992 -140.010577 
L 158.113383 -140.42692 
L 158.249968 -140.843262 
L 160.231536 -140.843262 
L 160.231536 -140.843262 
L 160.368121 -140.42692 
L 160.518512 -140.010577 
L 160.683384 -139.594234 
L 160.863306 -139.177892 
L 161.058729 -138.761549 
L 161.269968 -138.345207 
L 161.497207 -137.928864 
L 161.740492 -137.512521 
L 161.999742 -137.096179 
L 162.274748 -136.679836 
L 162.565174 -136.263493 
L 162.870548 -135.847151 
L 163.190247 -135.430808 
L 163.52346 -135.014465 
L 163.869156 -134.598123 
L 164.226027 -134.18178 
L 164.592446 -133.765438 
L 164.966416 -133.349095 
L 165.345534 -132.932752 
L 165.726977 -132.51641 
L 166.107509 -132.100067 
L 166.483506 -131.683724 
L 166.851024 -131.267382 
L 167.205873 -130.851039 
L 167.543721 -130.434696 
L 167.860202 -130.018354 
L 168.151026 -129.602011 
L 168.412077 -129.185668 
L 168.6395 -128.769326 
L 168.829768 -128.352983 
L 168.979724 -127.936641 
L 169.086613 -127.520298 
L 169.148099 -127.103955 
L 169.162283 -126.687613 
L 169.127731 -126.27127 
L 169.043514 -125.854927 
L 168.909267 -125.438585 
L 168.725274 -125.022242 
L 168.492562 -124.605899 
L 168.212998 -124.189557 
L 167.889375 -123.773214 
L 167.525478 -123.356871 
L 167.126092 -122.940529 
L 166.696974 -122.524186 
L 166.24474 -122.107844 
L 165.776704 -121.691501 
L 165.300651 -121.275158 
L 164.824559 -120.858816 
L 164.356302 -120.442473 
L 163.903338 -120.02613 
L 163.472416 -119.609788 
L 163.069321 -119.193445 
L 162.698668 -118.777102 
L 162.363768 -118.36076 
L 162.066565 -117.944417 
L 161.807645 -117.528074 
L 161.586313 -117.111732 
L 161.400729 -116.695389 
L 161.248088 -116.279047 
L 161.124827 -115.862704 
L 161.026853 -115.446361 
L 160.949766 -115.030019 
L 160.889077 -114.613676 
L 160.840401 -114.197333 
L 160.799632 -113.780991 
L 160.763075 -113.364648 
L 160.727561 -112.948305 
L 160.690515 -112.531963 
L 160.650001 -112.11562 
L 160.604736 -111.699278 
L 160.554076 -111.282935 
L 160.497978 -110.866592 
L 160.436942 -110.45025 
L 160.371939 -110.033907 
L 160.304322 -109.617564 
L 160.235727 -109.201222 
L 160.16797 -108.784879 
L 160.102941 -108.368536 
L 160.042497 -107.952194 
L 159.988361 -107.535851 
L 159.942034 -107.119508 
L 159.904711 -106.703166 
L 159.877217 -106.286823 
L 159.859961 -105.870481 
L 159.852909 -105.454138 
L 159.855574 -105.037795 
L 159.867036 -104.621453 
L 159.885981 -104.20511 
L 159.910752 -103.788767 
L 159.939434 -103.372425 
L 159.969942 -102.956082 
L 160.00012 -102.539739 
L 160.027851 -102.123397 
L 160.051163 -101.707054 
L 160.068324 -101.290711 
L 160.077924 -100.874369 
L 160.078948 -100.458026 
L 160.070809 -100.041684 
L 160.053369 -99.625341 
z
" style="stroke: #000000"/>
    </defs>
    <g clip-path="url(#p1704f9a80b)">
     <use xlink:href="#m90ff068d66" x="0" y="436.71625" style="fill: #d43f3a; stroke: #000000"/>
    </g>
   </g>
   <g id="PolyCollection_3">
    <defs>
     <path id="m9ef0bf3e72" d="M 200.693907 -162.547158 
L 197.159846 -162.547158 
L 196.897666 -163.028081 
L 196.605139 -163.509004 
L 196.280691 -163.989927 
L 195.923413 -164.47085 
L 195.533278 -164.951773 
L 195.111331 -165.432696 
L 194.65985 -165.91362 
L 194.182444 -166.394543 
L 193.684106 -166.875466 
L 193.171173 -167.356389 
L 192.651224 -167.837312 
L 192.132881 -168.318235 
L 191.625549 -168.799158 
L 191.139073 -169.280081 
L 190.683354 -169.761004 
L 190.267922 -170.241927 
L 189.901498 -170.72285 
L 189.591576 -171.203773 
L 189.344049 -171.684696 
L 189.162919 -172.165619 
L 189.050098 -172.646542 
L 189.005345 -173.127465 
L 189.026329 -173.608388 
L 189.108825 -174.089311 
L 189.247032 -174.570234 
L 189.433977 -175.051157 
L 189.661981 -175.53208 
L 189.923134 -176.013003 
L 190.20975 -176.493926 
L 190.514746 -176.974849 
L 190.831936 -177.455772 
L 191.156199 -177.936695 
L 191.483544 -178.417618 
L 191.811048 -178.898541 
L 192.136717 -179.379464 
L 192.459281 -179.860387 
L 192.777957 -180.34131 
L 193.092218 -180.822233 
L 193.401581 -181.303157 
L 193.705453 -181.78408 
L 194.003019 -182.265003 
L 194.293208 -182.745926 
L 194.574694 -183.226849 
L 194.845958 -183.707772 
L 195.105368 -184.188695 
L 195.351284 -184.669618 
L 195.58216 -185.150541 
L 195.79665 -185.631464 
L 195.993686 -186.112387 
L 196.172548 -186.59331 
L 196.332911 -187.074233 
L 196.474867 -187.555156 
L 196.598935 -188.036079 
L 196.706039 -188.517002 
L 196.797486 -188.997925 
L 196.874913 -189.478848 
L 196.940231 -189.959771 
L 196.995555 -190.440694 
L 197.043126 -190.921617 
L 197.085232 -191.40254 
L 197.124122 -191.883463 
L 197.161932 -192.364386 
L 197.20061 -192.845309 
L 197.241853 -193.326232 
L 197.287059 -193.807155 
L 197.337293 -194.288078 
L 197.393264 -194.769001 
L 197.45532 -195.249924 
L 197.523458 -195.730847 
L 197.597344 -196.211771 
L 197.676347 -196.692694 
L 197.759578 -197.173617 
L 197.84594 -197.65454 
L 197.934178 -198.135463 
L 198.022934 -198.616386 
L 198.110804 -199.097309 
L 198.196387 -199.578232 
L 198.278341 -200.059155 
L 198.355422 -200.540078 
L 198.42653 -201.021001 
L 198.490738 -201.501924 
L 198.547319 -201.982847 
L 198.595763 -202.46377 
L 198.635791 -202.944693 
L 198.667358 -203.425616 
L 198.690651 -203.906539 
L 198.706081 -204.387462 
L 198.714274 -204.868385 
L 198.716046 -205.349308 
L 198.712381 -205.830231 
L 198.704399 -206.311154 
L 198.693317 -206.792077 
L 198.6804 -207.273 
L 198.666916 -207.753923 
L 198.65408 -208.234846 
L 198.642998 -208.715769 
L 198.634617 -209.196692 
L 198.629684 -209.677615 
L 198.628712 -210.158538 
L 199.225041 -210.158538 
L 199.225041 -210.158538 
L 199.224069 -209.677615 
L 199.219136 -209.196692 
L 199.210755 -208.715769 
L 199.199673 -208.234846 
L 199.186837 -207.753923 
L 199.173353 -207.273 
L 199.160436 -206.792077 
L 199.149354 -206.311154 
L 199.141372 -205.830231 
L 199.137707 -205.349308 
L 199.139479 -204.868385 
L 199.147672 -204.387462 
L 199.163102 -203.906539 
L 199.186395 -203.425616 
L 199.217962 -202.944693 
L 199.25799 -202.46377 
L 199.306434 -201.982847 
L 199.363015 -201.501924 
L 199.427223 -201.021001 
L 199.498331 -200.540078 
L 199.575412 -200.059155 
L 199.657366 -199.578232 
L 199.742949 -199.097309 
L 199.830819 -198.616386 
L 199.919575 -198.135463 
L 200.007813 -197.65454 
L 200.094175 -197.173617 
L 200.177406 -196.692694 
L 200.256409 -196.211771 
L 200.330295 -195.730847 
L 200.398433 -195.249924 
L 200.460489 -194.769001 
L 200.51646 -194.288078 
L 200.566694 -193.807155 
L 200.6119 -193.326232 
L 200.653143 -192.845309 
L 200.691821 -192.364386 
L 200.729631 -191.883463 
L 200.768521 -191.40254 
L 200.810627 -190.921617 
L 200.858198 -190.440694 
L 200.913522 -189.959771 
L 200.97884 -189.478848 
L 201.056267 -188.997925 
L 201.147714 -188.517002 
L 201.254818 -188.036079 
L 201.378886 -187.555156 
L 201.520842 -187.074233 
L 201.681205 -186.59331 
L 201.860067 -186.112387 
L 202.057103 -185.631464 
L 202.271593 -185.150541 
L 202.502469 -184.669618 
L 202.748385 -184.188695 
L 203.007795 -183.707772 
L 203.279059 -183.226849 
L 203.560545 -182.745926 
L 203.850734 -182.265003 
L 204.1483 -181.78408 
L 204.452172 -181.303157 
L 204.761535 -180.822233 
L 205.075796 -180.34131 
L 205.394472 -179.860387 
L 205.717036 -179.379464 
L 206.042705 -178.898541 
L 206.370209 -178.417618 
L 206.697554 -177.936695 
L 207.021817 -177.455772 
L 207.339007 -176.974849 
L 207.644003 -176.493926 
L 207.930619 -176.013003 
L 208.191772 -175.53208 
L 208.419776 -175.051157 
L 208.606721 -174.570234 
L 208.744928 -174.089311 
L 208.827424 -173.608388 
L 208.848408 -173.127465 
L 208.803655 -172.646542 
L 208.690834 -172.165619 
L 208.509704 -171.684696 
L 208.262177 -171.203773 
L 207.952255 -170.72285 
L 207.58583 -170.241927 
L 207.170399 -169.761004 
L 206.71468 -169.280081 
L 206.228204 -168.799158 
L 205.720872 -168.318235 
L 205.202529 -167.837312 
L 204.68258 -167.356389 
L 204.169647 -166.875466 
L 203.671309 -166.394543 
L 203.193903 -165.91362 
L 202.742422 -165.432696 
L 202.320475 -164.951773 
L 201.93034 -164.47085 
L 201.573062 -163.989927 
L 201.248614 -163.509004 
L 200.956087 -163.028081 
L 200.693907 -162.547158 
z
" style="stroke: #000000"/>
    </defs>
    <g clip-path="url(#p1704f9a80b)">
     <use xlink:href="#m9ef0bf3e72" x="0" y="436.71625" style="fill: #d43f3a; stroke: #000000"/>
    </g>
   </g>
   <g id="PolyCollection_4">
    <defs>
     <path id="mc5ab45e2e3" d="M 242.415786 -212.151358 
L 234.810215 -212.151358 
L 234.386819 -212.306619 
L 233.943775 -212.461879 
L 233.484814 -212.61714 
L 233.014432 -212.772401 
L 232.537856 -212.927661 
L 232.060969 -213.082922 
L 231.59021 -213.238183 
L 231.132436 -213.393443 
L 230.694754 -213.548704 
L 230.284329 -213.703965 
L 229.908181 -213.859225 
L 229.572957 -214.014486 
L 229.284722 -214.169747 
L 229.048745 -214.325008 
L 228.869315 -214.480268 
L 228.749589 -214.635529 
L 228.69147 -214.79079 
L 228.695544 -214.94605 
L 228.761058 -215.101311 
L 228.885956 -215.256572 
L 229.066957 -215.411832 
L 229.29969 -215.567093 
L 229.578859 -215.722354 
L 229.89844 -215.877614 
L 230.251899 -216.032875 
L 230.632413 -216.188136 
L 231.033095 -216.343397 
L 231.447196 -216.498657 
L 231.868288 -216.653918 
L 232.290421 -216.809179 
L 232.708237 -216.964439 
L 233.117048 -217.1197 
L 233.512887 -217.274961 
L 233.892508 -217.430221 
L 234.253368 -217.585482 
L 234.593582 -217.740743 
L 234.91185 -217.896003 
L 235.207388 -218.051264 
L 235.479838 -218.206525 
L 235.729188 -218.361786 
L 235.955698 -218.517046 
L 236.159824 -218.672307 
L 236.34217 -218.827568 
L 236.503439 -218.982828 
L 236.644399 -219.138089 
L 236.765872 -219.29335 
L 236.868713 -219.44861 
L 236.953818 -219.603871 
L 237.022118 -219.759132 
L 237.074593 -219.914392 
L 237.112274 -220.069653 
L 237.136249 -220.224914 
L 237.147668 -220.380174 
L 237.147741 -220.535435 
L 237.137734 -220.690696 
L 237.11896 -220.845957 
L 237.092769 -221.001217 
L 237.06053 -221.156478 
L 237.023615 -221.311739 
L 236.983382 -221.466999 
L 236.941154 -221.62226 
L 236.898201 -221.777521 
L 236.855723 -221.932781 
L 236.814835 -222.088042 
L 236.776554 -222.243303 
L 236.741787 -222.398563 
L 236.711321 -222.553824 
L 236.685821 -222.709085 
L 236.665823 -222.864346 
L 236.651736 -223.019606 
L 236.643837 -223.174867 
L 236.642281 -223.330128 
L 236.6471 -223.485388 
L 236.658214 -223.640649 
L 236.675435 -223.79591 
L 236.698481 -223.95117 
L 236.726988 -224.106431 
L 236.760518 -224.261692 
L 236.798582 -224.416952 
L 236.840649 -224.572213 
L 236.886165 -224.727474 
L 236.934571 -224.882735 
L 236.985315 -225.037995 
L 237.037872 -225.193256 
L 237.091753 -225.348517 
L 237.146519 -225.503777 
L 237.201788 -225.659038 
L 237.257241 -225.814299 
L 237.312625 -225.969559 
L 237.36775 -226.12482 
L 237.422485 -226.280081 
L 237.476751 -226.435341 
L 237.530511 -226.590602 
L 237.583758 -226.745863 
L 237.636505 -226.901124 
L 237.688769 -227.056384 
L 237.740563 -227.211645 
L 237.79188 -227.366906 
L 237.842693 -227.522166 
L 239.383309 -227.522166 
L 239.383309 -227.522166 
L 239.434122 -227.366906 
L 239.485439 -227.211645 
L 239.537232 -227.056384 
L 239.589496 -226.901124 
L 239.642243 -226.745863 
L 239.695491 -226.590602 
L 239.749251 -226.435341 
L 239.803517 -226.280081 
L 239.858252 -226.12482 
L 239.913377 -225.969559 
L 239.968761 -225.814299 
L 240.024214 -225.659038 
L 240.079483 -225.503777 
L 240.134249 -225.348517 
L 240.18813 -225.193256 
L 240.240687 -225.037995 
L 240.291431 -224.882735 
L 240.339837 -224.727474 
L 240.385353 -224.572213 
L 240.42742 -224.416952 
L 240.465484 -224.261692 
L 240.499014 -224.106431 
L 240.52752 -223.95117 
L 240.550567 -223.79591 
L 240.567788 -223.640649 
L 240.578901 -223.485388 
L 240.583721 -223.330128 
L 240.582165 -223.174867 
L 240.574266 -223.019606 
L 240.560179 -222.864346 
L 240.540181 -222.709085 
L 240.514681 -222.553824 
L 240.484215 -222.398563 
L 240.449447 -222.243303 
L 240.411167 -222.088042 
L 240.370279 -221.932781 
L 240.327801 -221.777521 
L 240.284848 -221.62226 
L 240.242619 -221.466999 
L 240.202386 -221.311739 
L 240.165472 -221.156478 
L 240.133233 -221.001217 
L 240.107041 -220.845957 
L 240.088268 -220.690696 
L 240.078261 -220.535435 
L 240.078334 -220.380174 
L 240.089753 -220.224914 
L 240.113728 -220.069653 
L 240.151409 -219.914392 
L 240.203884 -219.759132 
L 240.272184 -219.603871 
L 240.357289 -219.44861 
L 240.46013 -219.29335 
L 240.581602 -219.138089 
L 240.722563 -218.982828 
L 240.883831 -218.827568 
L 241.066178 -218.672307 
L 241.270304 -218.517046 
L 241.496813 -218.361786 
L 241.746164 -218.206525 
L 242.018614 -218.051264 
L 242.314151 -217.896003 
L 242.63242 -217.740743 
L 242.972633 -217.585482 
L 243.333494 -217.430221 
L 243.713115 -217.274961 
L 244.108954 -217.1197 
L 244.517765 -216.964439 
L 244.93558 -216.809179 
L 245.357714 -216.653918 
L 245.778806 -216.498657 
L 246.192907 -216.343397 
L 246.593589 -216.188136 
L 246.974103 -216.032875 
L 247.327562 -215.877614 
L 247.647143 -215.722354 
L 247.926312 -215.567093 
L 248.159045 -215.411832 
L 248.340046 -215.256572 
L 248.464943 -215.101311 
L 248.530458 -214.94605 
L 248.534532 -214.79079 
L 248.476413 -214.635529 
L 248.356686 -214.480268 
L 248.177257 -214.325008 
L 247.94128 -214.169747 
L 247.653044 -214.014486 
L 247.317821 -213.859225 
L 246.941672 -213.703965 
L 246.531248 -213.548704 
L 246.093566 -213.393443 
L 245.635792 -213.238183 
L 245.165033 -213.082922 
L 244.688146 -212.927661 
L 244.21157 -212.772401 
L 243.741188 -212.61714 
L 243.282227 -212.461879 
L 242.839183 -212.306619 
L 242.415786 -212.151358 
z
" style="stroke: #000000"/>
    </defs>
    <g clip-path="url(#p1704f9a80b)">
     <use xlink:href="#mc5ab45e2e3" x="0" y="436.71625" style="fill: #d43f3a; stroke: #000000"/>
    </g>
   </g>
   <g id="PolyCollection_5">
    <defs>
     <path id="mf5483e1971" d="M 278.628282 -244.064248 
L 277.969968 -244.064248 
L 277.972456 -244.335858 
L 277.981247 -244.607468 
L 277.995389 -244.879078 
L 278.013465 -245.150688 
L 278.033687 -245.422298 
L 278.054015 -245.693908 
L 278.072288 -245.965518 
L 278.086355 -246.237128 
L 278.094203 -246.508738 
L 278.094064 -246.780348 
L 278.084511 -247.051958 
L 278.064529 -247.323568 
L 278.033568 -247.595178 
L 277.991569 -247.866788 
L 277.938955 -248.138398 
L 277.876584 -248.410008 
L 277.805651 -248.681618 
L 277.727549 -248.953228 
L 277.643677 -249.224838 
L 277.555223 -249.496448 
L 277.462939 -249.768058 
L 277.366929 -250.039668 
L 277.266487 -250.311278 
L 277.160012 -250.582888 
L 277.045001 -250.854498 
L 276.918155 -251.126108 
L 276.775561 -251.397718 
L 276.612966 -251.669328 
L 276.426099 -251.940938 
L 276.211021 -252.212548 
L 275.964487 -252.484158 
L 275.684281 -252.755768 
L 275.369516 -253.027378 
L 275.020858 -253.298988 
L 274.640675 -253.570598 
L 274.233068 -253.842208 
L 273.803773 -254.113818 
L 273.359917 -254.385428 
L 272.90963 -254.657038 
L 272.461527 -254.928648 
L 272.02409 -255.200258 
L 271.605027 -255.471868 
L 271.210657 -255.743478 
L 270.845426 -256.015088 
L 270.511613 -256.286698 
L 270.209291 -256.558308 
L 269.936571 -256.829918 
L 269.690119 -257.101528 
L 269.465889 -257.373138 
L 269.260007 -257.644748 
L 269.069668 -257.916358 
L 268.893937 -258.187968 
L 268.734335 -258.459578 
L 268.595099 -258.731188 
L 268.483068 -259.002798 
L 268.407173 -259.274408 
L 268.377594 -259.546018 
L 268.404652 -259.817628 
L 268.497598 -260.089238 
L 268.663441 -260.360848 
L 268.905978 -260.632458 
L 269.225134 -260.904068 
L 269.616725 -261.175678 
L 270.072638 -261.447288 
L 270.581394 -261.718898 
L 271.129026 -261.990508 
L 271.700126 -262.262118 
L 272.278941 -262.533728 
L 272.850399 -262.805338 
L 273.400964 -263.076948 
L 273.919276 -263.348558 
L 274.39655 -263.620168 
L 274.826752 -263.891778 
L 275.20659 -264.163388 
L 275.535356 -264.434998 
L 275.814656 -264.706608 
L 276.048063 -264.978218 
L 276.24071 -265.249828 
L 276.398836 -265.521438 
L 276.5293 -265.793048 
L 276.639077 -266.064658 
L 276.734771 -266.336268 
L 276.822178 -266.607878 
L 276.905929 -266.879488 
L 276.989264 -267.151098 
L 277.07395 -267.422708 
L 277.160361 -267.694318 
L 277.247697 -267.965928 
L 277.334324 -268.237538 
L 277.418173 -268.509148 
L 277.497147 -268.780758 
L 277.569485 -269.052368 
L 277.634023 -269.323978 
L 277.690346 -269.595588 
L 277.738798 -269.867198 
L 277.78038 -270.138808 
L 277.816559 -270.410418 
L 277.849028 -270.682028 
L 277.879455 -270.953638 
L 278.718795 -270.953638 
L 278.718795 -270.953638 
L 278.749223 -270.682028 
L 278.781691 -270.410418 
L 278.817871 -270.138808 
L 278.859452 -269.867198 
L 278.907904 -269.595588 
L 278.964227 -269.323978 
L 279.028766 -269.052368 
L 279.101103 -268.780758 
L 279.180078 -268.509148 
L 279.263927 -268.237538 
L 279.350554 -267.965928 
L 279.43789 -267.694318 
L 279.5243 -267.422708 
L 279.608987 -267.151098 
L 279.692322 -266.879488 
L 279.776073 -266.607878 
L 279.86348 -266.336268 
L 279.959174 -266.064658 
L 280.068951 -265.793048 
L 280.199414 -265.521438 
L 280.357541 -265.249828 
L 280.550188 -264.978218 
L 280.783595 -264.706608 
L 281.062894 -264.434998 
L 281.391661 -264.163388 
L 281.771499 -263.891778 
L 282.201701 -263.620168 
L 282.678974 -263.348558 
L 283.197286 -263.076948 
L 283.747851 -262.805338 
L 284.319309 -262.533728 
L 284.898124 -262.262118 
L 285.469225 -261.990508 
L 286.016857 -261.718898 
L 286.525613 -261.447288 
L 286.981525 -261.175678 
L 287.373117 -260.904068 
L 287.692273 -260.632458 
L 287.934809 -260.360848 
L 288.100653 -260.089238 
L 288.193599 -259.817628 
L 288.220656 -259.546018 
L 288.191077 -259.274408 
L 288.115183 -259.002798 
L 288.003151 -258.731188 
L 287.863915 -258.459578 
L 287.704314 -258.187968 
L 287.528583 -257.916358 
L 287.338243 -257.644748 
L 287.132362 -257.373138 
L 286.908132 -257.101528 
L 286.661679 -256.829918 
L 286.38896 -256.558308 
L 286.086638 -256.286698 
L 285.752825 -256.015088 
L 285.387594 -255.743478 
L 284.993224 -255.471868 
L 284.57416 -255.200258 
L 284.136724 -254.928648 
L 283.68862 -254.657038 
L 283.238334 -254.385428 
L 282.794477 -254.113818 
L 282.365182 -253.842208 
L 281.957576 -253.570598 
L 281.577393 -253.298988 
L 281.228735 -253.027378 
L 280.913969 -252.755768 
L 280.633764 -252.484158 
L 280.387229 -252.212548 
L 280.172151 -251.940938 
L 279.985284 -251.669328 
L 279.82269 -251.397718 
L 279.680096 -251.126108 
L 279.553249 -250.854498 
L 279.438239 -250.582888 
L 279.331763 -250.311278 
L 279.231322 -250.039668 
L 279.135311 -249.768058 
L 279.043027 -249.496448 
L 278.954574 -249.224838 
L 278.870701 -248.953228 
L 278.792599 -248.681618 
L 278.721667 -248.410008 
L 278.659295 -248.138398 
L 278.606681 -247.866788 
L 278.564682 -247.595178 
L 278.533722 -247.323568 
L 278.51374 -247.051958 
L 278.504186 -246.780348 
L 278.504048 -246.508738 
L 278.511896 -246.237128 
L 278.525963 -245.965518 
L 278.544235 -245.693908 
L 278.564563 -245.422298 
L 278.584786 -245.150688 
L 278.602862 -244.879078 
L 278.617004 -244.607468 
L 278.625795 -244.335858 
L 278.628282 -244.064248 
z
" style="stroke: #000000"/>
    </defs>
    <g clip-path="url(#p1704f9a80b)">
     <use xlink:href="#mf5483e1971" x="0" y="436.71625" style="fill: #d43f3a; stroke: #000000"/>
    </g>
   </g>
   <g id="PolyCollection_6">
    <defs>
     <path id="m95583e3cb5" d="M 320.301382 -244.801732 
L 315.669117 -244.801732 
L 315.297571 -245.976171 
L 314.880775 -247.15061 
L 314.416743 -248.325049 
L 313.905338 -249.499488 
L 313.348982 -250.673928 
L 312.753293 -251.848367 
L 312.127542 -253.022806 
L 311.484821 -254.197245 
L 310.841855 -255.371684 
L 310.218398 -256.546124 
L 309.636221 -257.720563 
L 309.117765 -258.895002 
L 308.684548 -260.069441 
L 308.355508 -261.24388 
L 308.145441 -262.41832 
L 308.063719 -263.592759 
L 308.113442 -264.767198 
L 308.29112 -265.941637 
L 308.586917 -267.116076 
L 308.985449 -268.290516 
L 309.467013 -269.464955 
L 310.009129 -270.639394 
L 310.588212 -271.813833 
L 311.181203 -272.988272 
L 311.76702 -274.162712 
L 312.327688 -275.337151 
L 312.849107 -276.51159 
L 313.321419 -277.686029 
L 313.739011 -278.860468 
L 314.100202 -280.034907 
L 314.406709 -281.209347 
L 314.662952 -282.383786 
L 314.875306 -283.558225 
L 315.051348 -284.732664 
L 315.199166 -285.907103 
L 315.326747 -287.081543 
L 315.441486 -288.255982 
L 315.54981 -289.430421 
L 315.656919 -290.60486 
L 315.76665 -291.779299 
L 315.881444 -292.953739 
L 316.00241 -294.128178 
L 316.129473 -295.302617 
L 316.261587 -296.477056 
L 316.396989 -297.651495 
L 316.533475 -298.825935 
L 316.668671 -300.000374 
L 316.800274 -301.174813 
L 316.926255 -302.349252 
L 317.044991 -303.523691 
L 317.15534 -304.69813 
L 317.256653 -305.87257 
L 317.348734 -307.047009 
L 317.431757 -308.221448 
L 317.506169 -309.395887 
L 317.572583 -310.570326 
L 317.631682 -311.744766 
L 317.684147 -312.919205 
L 317.730602 -314.093644 
L 317.77159 -315.268083 
L 317.807568 -316.442522 
L 317.838915 -317.616962 
L 317.865951 -318.791401 
L 317.888957 -319.96584 
L 317.90819 -321.140279 
L 317.923888 -322.314718 
L 317.936279 -323.489158 
L 317.945572 -324.663597 
L 317.951947 -325.838036 
L 317.955553 -327.012475 
L 317.956493 -328.186914 
L 317.95483 -329.361354 
L 317.950587 -330.535793 
L 317.943763 -331.710232 
L 317.934351 -332.884671 
L 317.922361 -334.05911 
L 317.90785 -335.233549 
L 317.890946 -336.407989 
L 317.871866 -337.582428 
L 317.85093 -338.756867 
L 317.828562 -339.931306 
L 317.805273 -341.105745 
L 317.78164 -342.280185 
L 317.758274 -343.454624 
L 317.735778 -344.629063 
L 317.71471 -345.803502 
L 317.695552 -346.977941 
L 317.678686 -348.152381 
L 317.664391 -349.32682 
L 317.652842 -350.501259 
L 317.644132 -351.675698 
L 317.638299 -352.850137 
L 317.635347 -354.024577 
L 317.635272 -355.199016 
L 317.638074 -356.373455 
L 317.643758 -357.547894 
L 317.652318 -358.722333 
L 317.663722 -359.896772 
L 317.67788 -361.071212 
L 318.29262 -361.071212 
L 318.29262 -361.071212 
L 318.306777 -359.896772 
L 318.318181 -358.722333 
L 318.326742 -357.547894 
L 318.332425 -356.373455 
L 318.335227 -355.199016 
L 318.335152 -354.024577 
L 318.3322 -352.850137 
L 318.326367 -351.675698 
L 318.317658 -350.501259 
L 318.306109 -349.32682 
L 318.291813 -348.152381 
L 318.274948 -346.977941 
L 318.255789 -345.803502 
L 318.234721 -344.629063 
L 318.212225 -343.454624 
L 318.188859 -342.280185 
L 318.165227 -341.105745 
L 318.141937 -339.931306 
L 318.119569 -338.756867 
L 318.098634 -337.582428 
L 318.079554 -336.407989 
L 318.062649 -335.233549 
L 318.048139 -334.05911 
L 318.036149 -332.884671 
L 318.026736 -331.710232 
L 318.019912 -330.535793 
L 318.01567 -329.361354 
L 318.014007 -328.186914 
L 318.014947 -327.012475 
L 318.018552 -325.838036 
L 318.024928 -324.663597 
L 318.03422 -323.489158 
L 318.046611 -322.314718 
L 318.06231 -321.140279 
L 318.081542 -319.96584 
L 318.104548 -318.791401 
L 318.131585 -317.616962 
L 318.162931 -316.442522 
L 318.198909 -315.268083 
L 318.239897 -314.093644 
L 318.286352 -312.919205 
L 318.338817 -311.744766 
L 318.397917 -310.570326 
L 318.46433 -309.395887 
L 318.538742 -308.221448 
L 318.621765 -307.047009 
L 318.713846 -305.87257 
L 318.815159 -304.69813 
L 318.925508 -303.523691 
L 319.044244 -302.349252 
L 319.170225 -301.174813 
L 319.301829 -300.000374 
L 319.437024 -298.825935 
L 319.57351 -297.651495 
L 319.708912 -296.477056 
L 319.841026 -295.302617 
L 319.968089 -294.128178 
L 320.089055 -292.953739 
L 320.203849 -291.779299 
L 320.313581 -290.60486 
L 320.42069 -289.430421 
L 320.529013 -288.255982 
L 320.643752 -287.081543 
L 320.771333 -285.907103 
L 320.919151 -284.732664 
L 321.095194 -283.558225 
L 321.307547 -282.383786 
L 321.56379 -281.209347 
L 321.870297 -280.034907 
L 322.231489 -278.860468 
L 322.64908 -277.686029 
L 323.121392 -276.51159 
L 323.642811 -275.337151 
L 324.203479 -274.162712 
L 324.789296 -272.988272 
L 325.382288 -271.813833 
L 325.96137 -270.639394 
L 326.503487 -269.464955 
L 326.985051 -268.290516 
L 327.383583 -267.116076 
L 327.67938 -265.941637 
L 327.857057 -264.767198 
L 327.906781 -263.592759 
L 327.825059 -262.41832 
L 327.614991 -261.24388 
L 327.285952 -260.069441 
L 326.852735 -258.895002 
L 326.334278 -257.720563 
L 325.752102 -256.546124 
L 325.128644 -255.371684 
L 324.485678 -254.197245 
L 323.842957 -253.022806 
L 323.217206 -251.848367 
L 322.621518 -250.673928 
L 322.065161 -249.499488 
L 321.553756 -248.325049 
L 321.089725 -247.15061 
L 320.672929 -245.976171 
L 320.301382 -244.801732 
z
" style="stroke: #000000"/>
    </defs>
    <g clip-path="url(#p1704f9a80b)">
     <use xlink:href="#m95583e3cb5" x="0" y="436.71625" style="fill: #d43f3a; stroke: #000000"/>
    </g>
   </g>
   <g id="PolyCollection_7">
    <defs>
     <path id="m7a9e15aae1" d="M 358.134797 -240.803057 
L 357.207951 -240.803057 
L 357.179352 -241.4219 
L 357.150787 -242.040743 
L 357.121535 -242.659586 
L 357.090686 -243.278429 
L 357.057179 -243.897272 
L 357.019836 -244.516115 
L 356.977418 -245.134958 
L 356.928665 -245.753801 
L 356.872355 -246.372644 
L 356.807354 -246.991487 
L 356.732673 -247.61033 
L 356.647519 -248.229173 
L 356.551356 -248.848017 
L 356.44395 -249.46686 
L 356.325413 -250.085703 
L 356.196232 -250.704546 
L 356.057269 -251.323389 
L 355.909741 -251.942232 
L 355.755163 -252.561075 
L 355.595253 -253.179918 
L 355.431809 -253.798761 
L 355.266559 -254.417604 
L 355.100996 -255.036447 
L 354.936213 -255.65529 
L 354.772765 -256.274133 
L 354.610558 -256.892976 
L 354.448801 -257.511819 
L 354.28601 -258.130662 
L 354.120094 -258.749505 
L 353.948496 -259.368348 
L 353.768393 -259.987191 
L 353.576943 -260.606034 
L 353.371534 -261.224877 
L 353.150035 -261.84372 
L 352.911014 -262.462563 
L 352.653893 -263.081406 
L 352.379038 -263.700249 
L 352.087769 -264.319092 
L 351.782286 -264.937935 
L 351.465533 -265.556778 
L 351.141008 -266.175621 
L 350.812548 -266.794464 
L 350.484114 -267.413307 
L 350.159608 -268.03215 
L 349.842731 -268.650993 
L 349.536911 -269.269836 
L 349.245293 -269.888679 
L 348.970798 -270.507522 
L 348.716224 -271.126365 
L 348.484366 -271.745208 
L 348.278148 -272.364051 
L 348.100712 -272.982894 
L 347.955463 -273.601737 
L 347.846049 -274.22058 
L 347.776256 -274.839423 
L 347.749843 -275.458266 
L 347.770311 -276.077109 
L 347.840629 -276.695952 
L 347.962951 -277.314795 
L 348.13834 -277.933638 
L 348.36653 -278.552481 
L 348.645752 -279.171324 
L 348.97264 -279.790167 
L 349.342236 -280.40901 
L 349.748088 -281.027853 
L 350.182459 -281.646696 
L 350.636622 -282.265539 
L 351.101231 -282.884382 
L 351.56675 -283.503225 
L 352.023905 -284.122068 
L 352.464141 -284.740911 
L 352.88003 -285.359754 
L 353.265625 -285.978597 
L 353.616714 -286.59744 
L 353.930957 -287.216283 
L 354.207907 -287.835126 
L 354.448891 -288.453969 
L 354.656788 -289.072812 
L 354.8357 -289.691655 
L 354.990557 -290.310498 
L 355.126698 -290.929341 
L 355.249445 -291.548184 
L 355.363717 -292.167027 
L 355.473727 -292.78587 
L 355.582755 -293.404713 
L 355.693035 -294.023556 
L 355.805743 -294.642399 
L 355.921088 -295.261242 
L 356.038468 -295.880085 
L 356.156687 -296.498928 
L 356.274195 -297.117771 
L 356.389322 -297.736614 
L 356.500481 -298.355457 
L 356.606334 -298.9743 
L 356.705895 -299.593143 
L 356.798573 -300.211986 
L 356.884169 -300.830829 
L 356.962819 -301.449672 
L 357.034918 -302.068515 
L 358.30783 -302.068515 
L 358.30783 -302.068515 
L 358.379929 -301.449672 
L 358.458579 -300.830829 
L 358.544175 -300.211986 
L 358.636853 -299.593143 
L 358.736414 -298.9743 
L 358.842267 -298.355457 
L 358.953426 -297.736614 
L 359.068553 -297.117771 
L 359.186061 -296.498928 
L 359.304281 -295.880085 
L 359.42166 -295.261242 
L 359.537005 -294.642399 
L 359.649713 -294.023556 
L 359.759993 -293.404713 
L 359.869021 -292.78587 
L 359.979031 -292.167027 
L 360.093304 -291.548184 
L 360.21605 -290.929341 
L 360.352191 -290.310498 
L 360.507049 -289.691655 
L 360.68596 -289.072812 
L 360.893857 -288.453969 
L 361.134841 -287.835126 
L 361.411791 -287.216283 
L 361.726035 -286.59744 
L 362.077123 -285.978597 
L 362.462719 -285.359754 
L 362.878607 -284.740911 
L 363.318843 -284.122068 
L 363.775998 -283.503225 
L 364.241517 -282.884382 
L 364.706126 -282.265539 
L 365.160289 -281.646696 
L 365.59466 -281.027853 
L 366.000513 -280.40901 
L 366.370108 -279.790167 
L 366.696996 -279.171324 
L 366.976218 -278.552481 
L 367.204408 -277.933638 
L 367.379797 -277.314795 
L 367.50212 -276.695952 
L 367.572438 -276.077109 
L 367.592905 -275.458266 
L 367.566493 -274.839423 
L 367.4967 -274.22058 
L 367.387285 -273.601737 
L 367.242036 -272.982894 
L 367.0646 -272.364051 
L 366.858382 -271.745208 
L 366.626524 -271.126365 
L 366.37195 -270.507522 
L 366.097456 -269.888679 
L 365.805838 -269.269836 
L 365.500017 -268.650993 
L 365.18314 -268.03215 
L 364.858634 -267.413307 
L 364.530201 -266.794464 
L 364.201741 -266.175621 
L 363.877216 -265.556778 
L 363.560463 -264.937935 
L 363.254979 -264.319092 
L 362.96371 -263.700249 
L 362.688855 -263.081406 
L 362.431734 -262.462563 
L 362.192713 -261.84372 
L 361.971215 -261.224877 
L 361.765805 -260.606034 
L 361.574355 -259.987191 
L 361.394253 -259.368348 
L 361.222654 -258.749505 
L 361.056738 -258.130662 
L 360.893947 -257.511819 
L 360.73219 -256.892976 
L 360.569983 -256.274133 
L 360.406535 -255.65529 
L 360.241752 -255.036447 
L 360.076189 -254.417604 
L 359.910939 -253.798761 
L 359.747495 -253.179918 
L 359.587585 -252.561075 
L 359.433007 -251.942232 
L 359.285479 -251.323389 
L 359.146516 -250.704546 
L 359.017335 -250.085703 
L 358.898798 -249.46686 
L 358.791392 -248.848017 
L 358.695229 -248.229173 
L 358.610075 -247.61033 
L 358.535394 -246.991487 
L 358.470393 -246.372644 
L 358.414083 -245.753801 
L 358.36533 -245.134958 
L 358.322912 -244.516115 
L 358.28557 -243.897272 
L 358.252062 -243.278429 
L 358.221213 -242.659586 
L 358.191961 -242.040743 
L 358.163396 -241.4219 
L 358.134797 -240.803057 
z
" style="stroke: #000000"/>
    </defs>
    <g clip-path="url(#p1704f9a80b)">
     <use xlink:href="#m7a9e15aae1" x="0" y="436.71625" style="fill: #d43f3a; stroke: #000000"/>
    </g>
   </g>
   <g id="PolyCollection_8">
    <defs>
     <path id="md00f8c0b31" d="M 399.267791 -290.962945 
L 395.447206 -290.962945 
L 395.257061 -291.060203 
L 395.054126 -291.15746 
L 394.836437 -291.254718 
L 394.601826 -291.351975 
L 394.348086 -291.449233 
L 394.073177 -291.54649 
L 393.775449 -291.643748 
L 393.453876 -291.741005 
L 393.10827 -291.838263 
L 392.739457 -291.93552 
L 392.349404 -292.032778 
L 391.941267 -292.130035 
L 391.519368 -292.227293 
L 391.089078 -292.32455 
L 390.656629 -292.421808 
L 390.228848 -292.519065 
L 389.812841 -292.616323 
L 389.415657 -292.71358 
L 389.043933 -292.810838 
L 388.703577 -292.908095 
L 388.399494 -293.005353 
L 388.135381 -293.102611 
L 387.913616 -293.199868 
L 387.735239 -293.297126 
L 387.600024 -293.394383 
L 387.506643 -293.491641 
L 387.452891 -293.588898 
L 387.435967 -293.686156 
L 387.452762 -293.783413 
L 387.500144 -293.880671 
L 387.575207 -293.977928 
L 387.675461 -294.075186 
L 387.79895 -294.172443 
L 387.944291 -294.269701 
L 388.110636 -294.366958 
L 388.297564 -294.464216 
L 388.504922 -294.561473 
L 388.732635 -294.658731 
L 388.980512 -294.755988 
L 389.24806 -294.853246 
L 389.534345 -294.950503 
L 389.837888 -295.047761 
L 390.156635 -295.145018 
L 390.487978 -295.242276 
L 390.828837 -295.339533 
L 391.175782 -295.436791 
L 391.525191 -295.534049 
L 391.87342 -295.631306 
L 392.216966 -295.728564 
L 392.552617 -295.825821 
L 392.877565 -295.923079 
L 393.189485 -296.020336 
L 393.486567 -296.117594 
L 393.767505 -296.214851 
L 394.031459 -296.312109 
L 394.277977 -296.409366 
L 394.50691 -296.506624 
L 394.718316 -296.603881 
L 394.912371 -296.701139 
L 395.089297 -296.798396 
L 395.249306 -296.895654 
L 395.392576 -296.992911 
L 395.519255 -297.090169 
L 395.629487 -297.187426 
L 395.723461 -297.284684 
L 395.801475 -297.381941 
L 395.86401 -297.479199 
L 395.911794 -297.576456 
L 395.94586 -297.673714 
L 395.967579 -297.770971 
L 395.978673 -297.868229 
L 395.98119 -297.965487 
L 395.977448 -298.062744 
L 395.969956 -298.160002 
L 395.961301 -298.257259 
L 395.954024 -298.354517 
L 395.950487 -298.451774 
L 395.952746 -298.549032 
L 395.962437 -298.646289 
L 395.980694 -298.743547 
L 396.00809 -298.840804 
L 396.044628 -298.938062 
L 396.089765 -299.035319 
L 396.142477 -299.132577 
L 396.201354 -299.229834 
L 396.264722 -299.327092 
L 396.330769 -299.424349 
L 396.397685 -299.521607 
L 396.463782 -299.618864 
L 396.527601 -299.716122 
L 396.587988 -299.813379 
L 396.64414 -299.910637 
L 396.695621 -300.007894 
L 396.742345 -300.105152 
L 396.78453 -300.202409 
L 396.822639 -300.299667 
L 396.8573 -300.396925 
L 396.889226 -300.494182 
L 396.919143 -300.59144 
L 397.795854 -300.59144 
L 397.795854 -300.59144 
L 397.825771 -300.494182 
L 397.857697 -300.396925 
L 397.892358 -300.299667 
L 397.930467 -300.202409 
L 397.972652 -300.105152 
L 398.019376 -300.007894 
L 398.070857 -299.910637 
L 398.127009 -299.813379 
L 398.187396 -299.716122 
L 398.251215 -299.618864 
L 398.317312 -299.521607 
L 398.384228 -299.424349 
L 398.450275 -299.327092 
L 398.513643 -299.229834 
L 398.57252 -299.132577 
L 398.625232 -299.035319 
L 398.670369 -298.938062 
L 398.706907 -298.840804 
L 398.734303 -298.743547 
L 398.75256 -298.646289 
L 398.762251 -298.549032 
L 398.76451 -298.451774 
L 398.760973 -298.354517 
L 398.753696 -298.257259 
L 398.745041 -298.160002 
L 398.737549 -298.062744 
L 398.733807 -297.965487 
L 398.736324 -297.868229 
L 398.747418 -297.770971 
L 398.769137 -297.673714 
L 398.803203 -297.576456 
L 398.850987 -297.479199 
L 398.913522 -297.381941 
L 398.991536 -297.284684 
L 399.08551 -297.187426 
L 399.195742 -297.090169 
L 399.322421 -296.992911 
L 399.465691 -296.895654 
L 399.6257 -296.798396 
L 399.802626 -296.701139 
L 399.996681 -296.603881 
L 400.208087 -296.506624 
L 400.43702 -296.409366 
L 400.683538 -296.312109 
L 400.947492 -296.214851 
L 401.22843 -296.117594 
L 401.525512 -296.020336 
L 401.837432 -295.923079 
L 402.16238 -295.825821 
L 402.498031 -295.728564 
L 402.841577 -295.631306 
L 403.189806 -295.534049 
L 403.539215 -295.436791 
L 403.88616 -295.339533 
L 404.227019 -295.242276 
L 404.558362 -295.145018 
L 404.877109 -295.047761 
L 405.180652 -294.950503 
L 405.466937 -294.853246 
L 405.734485 -294.755988 
L 405.982362 -294.658731 
L 406.210075 -294.561473 
L 406.417433 -294.464216 
L 406.604361 -294.366958 
L 406.770706 -294.269701 
L 406.916047 -294.172443 
L 407.039536 -294.075186 
L 407.13979 -293.977928 
L 407.214853 -293.880671 
L 407.262235 -293.783413 
L 407.27903 -293.686156 
L 407.262106 -293.588898 
L 407.208354 -293.491641 
L 407.114973 -293.394383 
L 406.979758 -293.297126 
L 406.801381 -293.199868 
L 406.579616 -293.102611 
L 406.315503 -293.005353 
L 406.01142 -292.908095 
L 405.671064 -292.810838 
L 405.29934 -292.71358 
L 404.902156 -292.616323 
L 404.486149 -292.519065 
L 404.058368 -292.421808 
L 403.625919 -292.32455 
L 403.195629 -292.227293 
L 402.77373 -292.130035 
L 402.365593 -292.032778 
L 401.97554 -291.93552 
L 401.606727 -291.838263 
L 401.261121 -291.741005 
L 400.939548 -291.643748 
L 400.64182 -291.54649 
L 400.366911 -291.449233 
L 400.113171 -291.351975 
L 399.87856 -291.254718 
L 399.660871 -291.15746 
L 399.457936 -291.060203 
L 399.267791 -290.962945 
z
" style="stroke: #000000"/>
    </defs>
    <g clip-path="url(#p1704f9a80b)">
     <use xlink:href="#md00f8c0b31" x="0" y="436.71625" style="fill: #d43f3a; stroke: #000000"/>
    </g>
   </g>
   <g id="PolyCollection_9">
    <defs>
     <path id="m2639c26401" d="M 437.941786 -275.367907 
L 436.14546 -275.367907 
L 436.035719 -276.041238 
L 435.914953 -276.714568 
L 435.782212 -277.387899 
L 435.63656 -278.06123 
L 435.477106 -278.73456 
L 435.303044 -279.407891 
L 435.113694 -280.081222 
L 434.908538 -280.754552 
L 434.687257 -281.427883 
L 434.44976 -282.101214 
L 434.19621 -282.774544 
L 433.927032 -283.447875 
L 433.642923 -284.121205 
L 433.34484 -284.794536 
L 433.033984 -285.467867 
L 432.711771 -286.141197 
L 432.379797 -286.814528 
L 432.039799 -287.487859 
L 431.69362 -288.161189 
L 431.343172 -288.83452 
L 430.990422 -289.507851 
L 430.637379 -290.181181 
L 430.28611 -290.854512 
L 429.938761 -291.527843 
L 429.597609 -292.201173 
L 429.265106 -292.874504 
L 428.943938 -293.547835 
L 428.637071 -294.221165 
L 428.347778 -294.894496 
L 428.079635 -295.567827 
L 427.836486 -296.241157 
L 427.622357 -296.914488 
L 427.441335 -297.587819 
L 427.297396 -298.261149 
L 427.194219 -298.93448 
L 427.134969 -299.607811 
L 427.122092 -300.281141 
L 427.157122 -300.954472 
L 427.240536 -301.627803 
L 427.371651 -302.301133 
L 427.548596 -302.974464 
L 427.768343 -303.647795 
L 428.026819 -304.321125 
L 428.319066 -304.994456 
L 428.639459 -305.667787 
L 428.981947 -306.341117 
L 429.340313 -307.014448 
L 429.708416 -307.687779 
L 430.08042 -308.361109 
L 430.45098 -309.03444 
L 430.815374 -309.707771 
L 431.169598 -310.381101 
L 431.5104 -311.054432 
L 431.835275 -311.727763 
L 432.142419 -312.401093 
L 432.430665 -313.074424 
L 432.699395 -313.747754 
L 432.948447 -314.421085 
L 433.178029 -315.094416 
L 433.38863 -315.767746 
L 433.580946 -316.441077 
L 433.755818 -317.114408 
L 433.914174 -317.787738 
L 434.056987 -318.461069 
L 434.185234 -319.1344 
L 434.29987 -319.80773 
L 434.401801 -320.481061 
L 434.491868 -321.154392 
L 434.570843 -321.827722 
L 434.639428 -322.501053 
L 434.698267 -323.174384 
L 434.747974 -323.847714 
L 434.789159 -324.521045 
L 434.822474 -325.194376 
L 434.848649 -325.867706 
L 434.868538 -326.541037 
L 434.883146 -327.214368 
L 434.893651 -327.887698 
L 434.90141 -328.561029 
L 434.907934 -329.23436 
L 434.914856 -329.90769 
L 434.923874 -330.581021 
L 434.936673 -331.254352 
L 434.95485 -331.927682 
L 434.979826 -332.601013 
L 435.012768 -333.274344 
L 435.054525 -333.947674 
L 435.105576 -334.621005 
L 435.16601 -335.294336 
L 435.235526 -335.967666 
L 435.313454 -336.640997 
L 435.398807 -337.314328 
L 435.490344 -337.987658 
L 435.586642 -338.660989 
L 435.686178 -339.33432 
L 435.787408 -340.00765 
L 435.888836 -340.680981 
L 435.989073 -341.354311 
L 436.086881 -342.027642 
L 438.000365 -342.027642 
L 438.000365 -342.027642 
L 438.098173 -341.354311 
L 438.19841 -340.680981 
L 438.299838 -340.00765 
L 438.401068 -339.33432 
L 438.500604 -338.660989 
L 438.596902 -337.987658 
L 438.688439 -337.314328 
L 438.773792 -336.640997 
L 438.85172 -335.967666 
L 438.921235 -335.294336 
L 438.98167 -334.621005 
L 439.032721 -333.947674 
L 439.074478 -333.274344 
L 439.10742 -332.601013 
L 439.132396 -331.927682 
L 439.150573 -331.254352 
L 439.163372 -330.581021 
L 439.17239 -329.90769 
L 439.179312 -329.23436 
L 439.185836 -328.561029 
L 439.193594 -327.887698 
L 439.2041 -327.214368 
L 439.218708 -326.541037 
L 439.238596 -325.867706 
L 439.264772 -325.194376 
L 439.298087 -324.521045 
L 439.339272 -323.847714 
L 439.388978 -323.174384 
L 439.447818 -322.501053 
L 439.516402 -321.827722 
L 439.595378 -321.154392 
L 439.685445 -320.481061 
L 439.787376 -319.80773 
L 439.902012 -319.1344 
L 440.030259 -318.461069 
L 440.173072 -317.787738 
L 440.331428 -317.114408 
L 440.5063 -316.441077 
L 440.698616 -315.767746 
L 440.909217 -315.094416 
L 441.138799 -314.421085 
L 441.387851 -313.747754 
L 441.656581 -313.074424 
L 441.944827 -312.401093 
L 442.251971 -311.727763 
L 442.576846 -311.054432 
L 442.917648 -310.381101 
L 443.271872 -309.707771 
L 443.636266 -309.03444 
L 444.006826 -308.361109 
L 444.37883 -307.687779 
L 444.746933 -307.014448 
L 445.105298 -306.341117 
L 445.447787 -305.667787 
L 445.76818 -304.994456 
L 446.060427 -304.321125 
L 446.318903 -303.647795 
L 446.53865 -302.974464 
L 446.715594 -302.301133 
L 446.84671 -301.627803 
L 446.930124 -300.954472 
L 446.965154 -300.281141 
L 446.952276 -299.607811 
L 446.893026 -298.93448 
L 446.789849 -298.261149 
L 446.645911 -297.587819 
L 446.464888 -296.914488 
L 446.25076 -296.241157 
L 446.007611 -295.567827 
L 445.739468 -294.894496 
L 445.450175 -294.221165 
L 445.143308 -293.547835 
L 444.82214 -292.874504 
L 444.489637 -292.201173 
L 444.148485 -291.527843 
L 443.801136 -290.854512 
L 443.449866 -290.181181 
L 443.096824 -289.507851 
L 442.744074 -288.83452 
L 442.393626 -288.161189 
L 442.047446 -287.487859 
L 441.707449 -286.814528 
L 441.375474 -286.141197 
L 441.053261 -285.467867 
L 440.742406 -284.794536 
L 440.444323 -284.121205 
L 440.160214 -283.447875 
L 439.891036 -282.774544 
L 439.637485 -282.101214 
L 439.399989 -281.427883 
L 439.178708 -280.754552 
L 438.973552 -280.081222 
L 438.784202 -279.407891 
L 438.61014 -278.73456 
L 438.450686 -278.06123 
L 438.305034 -277.387899 
L 438.172293 -276.714568 
L 438.051527 -276.041238 
L 437.941786 -275.367907 
z
" style="stroke: #000000"/>
    </defs>
    <g clip-path="url(#p1704f9a80b)">
     <use xlink:href="#m2639c26401" x="0" y="436.71625" style="fill: #d43f3a; stroke: #000000"/>
    </g>
   </g>
   <g id="PolyCollection_10">
    <defs>
     <path id="m795fc9b484" d="M 477.131386 -354.074283 
L 476.328109 -354.074283 
L 476.297694 -354.677645 
L 476.264545 -355.281007 
L 476.227405 -355.88437 
L 476.184805 -356.487732 
L 476.135093 -357.091095 
L 476.076488 -357.694457 
L 476.007124 -358.297819 
L 475.925097 -358.901182 
L 475.828515 -359.504544 
L 475.715532 -360.107907 
L 475.584387 -360.711269 
L 475.43343 -361.314631 
L 475.261144 -361.917994 
L 475.066169 -362.521356 
L 474.847322 -363.124719 
L 474.603628 -363.728081 
L 474.334346 -364.331443 
L 474.039017 -364.934806 
L 473.717516 -365.538168 
L 473.37011 -366.14153 
L 472.997538 -366.744893 
L 472.601092 -367.348255 
L 472.182697 -367.951618 
L 471.745003 -368.55498 
L 471.291451 -369.158342 
L 470.826336 -369.761705 
L 470.354828 -370.365067 
L 469.882965 -370.96843 
L 469.417586 -371.571792 
L 468.966221 -372.175154 
L 468.536916 -372.778517 
L 468.137999 -373.381879 
L 467.777801 -373.985242 
L 467.464337 -374.588604 
L 467.204965 -375.191966 
L 467.006048 -375.795329 
L 466.872641 -376.398691 
L 466.808216 -377.002053 
L 466.81447 -377.605416 
L 466.8912 -378.208778 
L 467.03629 -378.812141 
L 467.245774 -379.415503 
L 467.514015 -380.018865 
L 467.833943 -380.622228 
L 468.197377 -381.22559 
L 468.595376 -381.828953 
L 469.01862 -382.432315 
L 469.457786 -383.035677 
L 469.903899 -383.63904 
L 470.348643 -384.242402 
L 470.784617 -384.845764 
L 471.205519 -385.449127 
L 471.606264 -386.052489 
L 471.983034 -386.655852 
L 472.33325 -387.259214 
L 472.655499 -387.862576 
L 472.9494 -388.465939 
L 473.215446 -389.069301 
L 473.454817 -389.672664 
L 473.669186 -390.276026 
L 473.860539 -390.879388 
L 474.031001 -391.482751 
L 474.182694 -392.086113 
L 474.317624 -392.689476 
L 474.437606 -393.292838 
L 474.544216 -393.8962 
L 474.638778 -394.499563 
L 474.722379 -395.102925 
L 474.7959 -395.706287 
L 474.860066 -396.30965 
L 474.915499 -396.913012 
L 474.962778 -397.516375 
L 475.002498 -398.119737 
L 475.035313 -398.723099 
L 475.061981 -399.326462 
L 475.08339 -399.929824 
L 475.100572 -400.533187 
L 475.1147 -401.136549 
L 475.127064 -401.739911 
L 475.13904 -402.343274 
L 475.152036 -402.946636 
L 475.167427 -403.549999 
L 475.186491 -404.153361 
L 475.210332 -404.756723 
L 475.23982 -405.360086 
L 475.275538 -405.963448 
L 475.317751 -406.56681 
L 475.366396 -407.170173 
L 475.421095 -407.773535 
L 475.481192 -408.376898 
L 475.545815 -408.98026 
L 475.613936 -409.583622 
L 475.684458 -410.186985 
L 475.756275 -410.790347 
L 475.828346 -411.39371 
L 475.899738 -411.997072 
L 475.969658 -412.600434 
L 476.037466 -413.203797 
L 476.102672 -413.807159 
L 477.356822 -413.807159 
L 477.356822 -413.807159 
L 477.422029 -413.203797 
L 477.489837 -412.600434 
L 477.559756 -411.997072 
L 477.631148 -411.39371 
L 477.70322 -410.790347 
L 477.775037 -410.186985 
L 477.845558 -409.583622 
L 477.91368 -408.98026 
L 477.978302 -408.376898 
L 478.0384 -407.773535 
L 478.093098 -407.170173 
L 478.141743 -406.56681 
L 478.183957 -405.963448 
L 478.219675 -405.360086 
L 478.249163 -404.756723 
L 478.273004 -404.153361 
L 478.292067 -403.549999 
L 478.307459 -402.946636 
L 478.320455 -402.343274 
L 478.332431 -401.739911 
L 478.344795 -401.136549 
L 478.358922 -400.533187 
L 478.376105 -399.929824 
L 478.397514 -399.326462 
L 478.424182 -398.723099 
L 478.456997 -398.119737 
L 478.496716 -397.516375 
L 478.543996 -396.913012 
L 478.599429 -396.30965 
L 478.663594 -395.706287 
L 478.737115 -395.102925 
L 478.820716 -394.499563 
L 478.915278 -393.8962 
L 479.021888 -393.292838 
L 479.14187 -392.689476 
L 479.276801 -392.086113 
L 479.428494 -391.482751 
L 479.598956 -390.879388 
L 479.790309 -390.276026 
L 480.004678 -389.672664 
L 480.244048 -389.069301 
L 480.510094 -388.465939 
L 480.803996 -387.862576 
L 481.126244 -387.259214 
L 481.476461 -386.655852 
L 481.85323 -386.052489 
L 482.253976 -385.449127 
L 482.674877 -384.845764 
L 483.110851 -384.242402 
L 483.555596 -383.63904 
L 484.001709 -383.035677 
L 484.440875 -382.432315 
L 484.864119 -381.828953 
L 485.262118 -381.22559 
L 485.625552 -380.622228 
L 485.94548 -380.018865 
L 486.21372 -379.415503 
L 486.423205 -378.812141 
L 486.568294 -378.208778 
L 486.645025 -377.605416 
L 486.651278 -377.002053 
L 486.586854 -376.398691 
L 486.453446 -375.795329 
L 486.25453 -375.191966 
L 485.995158 -374.588604 
L 485.681694 -373.985242 
L 485.321496 -373.381879 
L 484.922578 -372.778517 
L 484.493273 -372.175154 
L 484.041909 -371.571792 
L 483.57653 -370.96843 
L 483.104666 -370.365067 
L 482.633159 -369.761705 
L 482.168044 -369.158342 
L 481.714492 -368.55498 
L 481.276797 -367.951618 
L 480.858403 -367.348255 
L 480.461956 -366.744893 
L 480.089385 -366.14153 
L 479.741979 -365.538168 
L 479.420477 -364.934806 
L 479.125149 -364.331443 
L 478.855867 -363.728081 
L 478.612172 -363.124719 
L 478.393326 -362.521356 
L 478.198351 -361.917994 
L 478.026065 -361.314631 
L 477.875108 -360.711269 
L 477.743963 -360.107907 
L 477.63098 -359.504544 
L 477.534397 -358.901182 
L 477.45237 -358.297819 
L 477.383006 -357.694457 
L 477.324402 -357.091095 
L 477.27469 -356.487732 
L 477.232089 -355.88437 
L 477.19495 -355.281007 
L 477.161801 -354.677645 
L 477.131386 -354.074283 
z
" style="stroke: #000000"/>
    </defs>
    <g clip-path="url(#p1704f9a80b)">
     <use xlink:href="#m795fc9b484" x="0" y="436.71625" style="fill: #d43f3a; stroke: #000000"/>
    </g>
   </g>
   <g id="matplotlib.axis_1">
    <g id="xtick_1">
     <g id="line2d_1">
      <defs>
       <path id="m2bc0879d8d" d="M 0 0 
L 0 3.5 
" style="stroke: #000000; stroke-width: 0.8"/>
      </defs>
      <g>
       <use xlink:href="#m2bc0879d8d" x="119.554628" y="352.8" style="stroke: #000000; stroke-width: 0.8"/>
      </g>
     </g>
     <g id="text_1">
      <!-- RVE2 -->
      <g transform="translate(122.865878 390.904375)rotate(-90)scale(0.12 -0.12)">
       <defs>
        <path id="DejaVuSans-52" d="M 2841 2188 
Q 3044 2119 3236 1894 
Q 3428 1669 3622 1275 
L 4263 0 
L 3584 0 
L 2988 1197 
Q 2756 1666 2539 1819 
Q 2322 1972 1947 1972 
L 1259 1972 
L 1259 0 
L 628 0 
L 628 4666 
L 2053 4666 
Q 2853 4666 3247 4331 
Q 3641 3997 3641 3322 
Q 3641 2881 3436 2590 
Q 3231 2300 2841 2188 
z
M 1259 4147 
L 1259 2491 
L 2053 2491 
Q 2509 2491 2742 2702 
Q 2975 2913 2975 3322 
Q 2975 3731 2742 3939 
Q 2509 4147 2053 4147 
L 1259 4147 
z
" transform="scale(0.015625)"/>
        <path id="DejaVuSans-56" d="M 1831 0 
L 50 4666 
L 709 4666 
L 2188 738 
L 3669 4666 
L 4325 4666 
L 2547 0 
L 1831 0 
z
" transform="scale(0.015625)"/>
        <path id="DejaVuSans-45" d="M 628 4666 
L 3578 4666 
L 3578 4134 
L 1259 4134 
L 1259 2753 
L 3481 2753 
L 3481 2222 
L 1259 2222 
L 1259 531 
L 3634 531 
L 3634 0 
L 628 0 
L 628 4666 
z
" transform="scale(0.015625)"/>
        <path id="DejaVuSans-32" d="M 1228 531 
L 3431 531 
L 3431 0 
L 469 0 
L 469 531 
Q 828 903 1448 1529 
Q 2069 2156 2228 2338 
Q 2531 2678 2651 2914 
Q 2772 3150 2772 3378 
Q 2772 3750 2511 3984 
Q 2250 4219 1831 4219 
Q 1534 4219 1204 4116 
Q 875 4013 500 3803 
L 500 4441 
Q 881 4594 1212 4672 
Q 1544 4750 1819 4750 
Q 2544 4750 2975 4387 
Q 3406 4025 3406 3419 
Q 3406 3131 3298 2873 
Q 3191 2616 2906 2266 
Q 2828 2175 2409 1742 
Q 1991 1309 1228 531 
z
" transform="scale(0.015625)"/>
       </defs>
       <use xlink:href="#DejaVuSans-52"/>
       <use xlink:href="#DejaVuSans-56" x="63.982422"/>
       <use xlink:href="#DejaVuSans-45" x="132.390625"/>
       <use xlink:href="#DejaVuSans-32" x="195.574219"/>
      </g>
     </g>
    </g>
    <g id="xtick_2">
     <g id="line2d_2">
      <g>
       <use xlink:href="#m2bc0879d8d" x="159.240752" y="352.8" style="stroke: #000000; stroke-width: 0.8"/>
      </g>
     </g>
     <g id="text_2">
      <!-- BES1 -->
      <g transform="translate(162.552002 390.86875)rotate(-90)scale(0.12 -0.12)">
       <defs>
        <path id="DejaVuSans-42" d="M 1259 2228 
L 1259 519 
L 2272 519 
Q 2781 519 3026 730 
Q 3272 941 3272 1375 
Q 3272 1813 3026 2020 
Q 2781 2228 2272 2228 
L 1259 2228 
z
M 1259 4147 
L 1259 2741 
L 2194 2741 
Q 2656 2741 2882 2914 
Q 3109 3088 3109 3444 
Q 3109 3797 2882 3972 
Q 2656 4147 2194 4147 
L 1259 4147 
z
M 628 4666 
L 2241 4666 
Q 2963 4666 3353 4366 
Q 3744 4066 3744 3513 
Q 3744 3084 3544 2831 
Q 3344 2578 2956 2516 
Q 3422 2416 3680 2098 
Q 3938 1781 3938 1306 
Q 3938 681 3513 340 
Q 3088 0 2303 0 
L 628 0 
L 628 4666 
z
" transform="scale(0.015625)"/>
        <path id="DejaVuSans-53" d="M 3425 4513 
L 3425 3897 
Q 3066 4069 2747 4153 
Q 2428 4238 2131 4238 
Q 1616 4238 1336 4038 
Q 1056 3838 1056 3469 
Q 1056 3159 1242 3001 
Q 1428 2844 1947 2747 
L 2328 2669 
Q 3034 2534 3370 2195 
Q 3706 1856 3706 1288 
Q 3706 609 3251 259 
Q 2797 -91 1919 -91 
Q 1588 -91 1214 -16 
Q 841 59 441 206 
L 441 856 
Q 825 641 1194 531 
Q 1563 422 1919 422 
Q 2459 422 2753 634 
Q 3047 847 3047 1241 
Q 3047 1584 2836 1778 
Q 2625 1972 2144 2069 
L 1759 2144 
Q 1053 2284 737 2584 
Q 422 2884 422 3419 
Q 422 4038 858 4394 
Q 1294 4750 2059 4750 
Q 2388 4750 2728 4690 
Q 3069 4631 3425 4513 
z
" transform="scale(0.015625)"/>
        <path id="DejaVuSans-31" d="M 794 531 
L 1825 531 
L 1825 4091 
L 703 3866 
L 703 4441 
L 1819 4666 
L 2450 4666 
L 2450 531 
L 3481 531 
L 3481 0 
L 794 0 
L 794 531 
z
" transform="scale(0.015625)"/>
       </defs>
       <use xlink:href="#DejaVuSans-42"/>
       <use xlink:href="#DejaVuSans-45" x="68.603516"/>
       <use xlink:href="#DejaVuSans-53" x="131.787109"/>
       <use xlink:href="#DejaVuSans-31" x="195.263672"/>
      </g>
     </g>
    </g>
    <g id="xtick_3">
     <g id="line2d_3">
      <g>
       <use xlink:href="#m2bc0879d8d" x="198.926876" y="352.8" style="stroke: #000000; stroke-width: 0.8"/>
      </g>
     </g>
     <g id="text_3">
      <!-- COL9 -->
      <g transform="translate(202.238126 391.946875)rotate(-90)scale(0.12 -0.12)">
       <defs>
        <path id="DejaVuSans-43" d="M 4122 4306 
L 4122 3641 
Q 3803 3938 3442 4084 
Q 3081 4231 2675 4231 
Q 1875 4231 1450 3742 
Q 1025 3253 1025 2328 
Q 1025 1406 1450 917 
Q 1875 428 2675 428 
Q 3081 428 3442 575 
Q 3803 722 4122 1019 
L 4122 359 
Q 3791 134 3420 21 
Q 3050 -91 2638 -91 
Q 1578 -91 968 557 
Q 359 1206 359 2328 
Q 359 3453 968 4101 
Q 1578 4750 2638 4750 
Q 3056 4750 3426 4639 
Q 3797 4528 4122 4306 
z
" transform="scale(0.015625)"/>
        <path id="DejaVuSans-4f" d="M 2522 4238 
Q 1834 4238 1429 3725 
Q 1025 3213 1025 2328 
Q 1025 1447 1429 934 
Q 1834 422 2522 422 
Q 3209 422 3611 934 
Q 4013 1447 4013 2328 
Q 4013 3213 3611 3725 
Q 3209 4238 2522 4238 
z
M 2522 4750 
Q 3503 4750 4090 4092 
Q 4678 3434 4678 2328 
Q 4678 1225 4090 567 
Q 3503 -91 2522 -91 
Q 1538 -91 948 565 
Q 359 1222 359 2328 
Q 359 3434 948 4092 
Q 1538 4750 2522 4750 
z
" transform="scale(0.015625)"/>
        <path id="DejaVuSans-4c" d="M 628 4666 
L 1259 4666 
L 1259 531 
L 3531 531 
L 3531 0 
L 628 0 
L 628 4666 
z
" transform="scale(0.015625)"/>
        <path id="DejaVuSans-39" d="M 703 97 
L 703 672 
Q 941 559 1184 500 
Q 1428 441 1663 441 
Q 2288 441 2617 861 
Q 2947 1281 2994 2138 
Q 2813 1869 2534 1725 
Q 2256 1581 1919 1581 
Q 1219 1581 811 2004 
Q 403 2428 403 3163 
Q 403 3881 828 4315 
Q 1253 4750 1959 4750 
Q 2769 4750 3195 4129 
Q 3622 3509 3622 2328 
Q 3622 1225 3098 567 
Q 2575 -91 1691 -91 
Q 1453 -91 1209 -44 
Q 966 3 703 97 
z
M 1959 2075 
Q 2384 2075 2632 2365 
Q 2881 2656 2881 3163 
Q 2881 3666 2632 3958 
Q 2384 4250 1959 4250 
Q 1534 4250 1286 3958 
Q 1038 3666 1038 3163 
Q 1038 2656 1286 2365 
Q 1534 2075 1959 2075 
z
" transform="scale(0.015625)"/>
       </defs>
       <use xlink:href="#DejaVuSans-43"/>
       <use xlink:href="#DejaVuSans-4f" x="69.824219"/>
       <use xlink:href="#DejaVuSans-4c" x="148.535156"/>
       <use xlink:href="#DejaVuSans-39" x="204.248047"/>
      </g>
     </g>
    </g>
    <g id="xtick_4">
     <g id="line2d_4">
      <g>
       <use xlink:href="#m2bc0879d8d" x="238.613001" y="352.8" style="stroke: #000000; stroke-width: 0.8"/>
      </g>
     </g>
     <g id="text_4">
      <!-- EBP -->
      <g transform="translate(241.924251 382.85125)rotate(-90)scale(0.12 -0.12)">
       <defs>
        <path id="DejaVuSans-50" d="M 1259 4147 
L 1259 2394 
L 2053 2394 
Q 2494 2394 2734 2622 
Q 2975 2850 2975 3272 
Q 2975 3691 2734 3919 
Q 2494 4147 2053 4147 
L 1259 4147 
z
M 628 4666 
L 2053 4666 
Q 2838 4666 3239 4311 
Q 3641 3956 3641 3272 
Q 3641 2581 3239 2228 
Q 2838 1875 2053 1875 
L 1259 1875 
L 1259 0 
L 628 0 
L 628 4666 
z
" transform="scale(0.015625)"/>
       </defs>
       <use xlink:href="#DejaVuSans-45"/>
       <use xlink:href="#DejaVuSans-42" x="63.183594"/>
       <use xlink:href="#DejaVuSans-50" x="131.787109"/>
      </g>
     </g>
    </g>
    <g id="xtick_5">
     <g id="line2d_5">
      <g>
       <use xlink:href="#m2bc0879d8d" x="278.299125" y="352.8" style="stroke: #000000; stroke-width: 0.8"/>
      </g>
     </g>
     <g id="text_5">
      <!-- BBX14 -->
      <g transform="translate(281.610375 399.75625)rotate(-90)scale(0.12 -0.12)">
       <defs>
        <path id="DejaVuSans-58" d="M 403 4666 
L 1081 4666 
L 2241 2931 
L 3406 4666 
L 4084 4666 
L 2584 2425 
L 4184 0 
L 3506 0 
L 2194 1984 
L 872 0 
L 191 0 
L 1856 2491 
L 403 4666 
z
" transform="scale(0.015625)"/>
        <path id="DejaVuSans-34" d="M 2419 4116 
L 825 1625 
L 2419 1625 
L 2419 4116 
z
M 2253 4666 
L 3047 4666 
L 3047 1625 
L 3713 1625 
L 3713 1100 
L 3047 1100 
L 3047 0 
L 2419 0 
L 2419 1100 
L 313 1100 
L 313 1709 
L 2253 4666 
z
" transform="scale(0.015625)"/>
       </defs>
       <use xlink:href="#DejaVuSans-42"/>
       <use xlink:href="#DejaVuSans-42" x="68.603516"/>
       <use xlink:href="#DejaVuSans-58" x="137.207031"/>
       <use xlink:href="#DejaVuSans-31" x="205.712891"/>
       <use xlink:href="#DejaVuSans-34" x="269.335938"/>
      </g>
     </g>
    </g>
    <g id="xtick_6">
     <g id="line2d_6">
      <g>
       <use xlink:href="#m2bc0879d8d" x="317.98525" y="352.8" style="stroke: #000000; stroke-width: 0.8"/>
      </g>
     </g>
     <g id="text_6">
      <!-- HB33 -->
      <g transform="translate(321.2965 392.3275)rotate(-90)scale(0.12 -0.12)">
       <defs>
        <path id="DejaVuSans-48" d="M 628 4666 
L 1259 4666 
L 1259 2753 
L 3553 2753 
L 3553 4666 
L 4184 4666 
L 4184 0 
L 3553 0 
L 3553 2222 
L 1259 2222 
L 1259 0 
L 628 0 
L 628 4666 
z
" transform="scale(0.015625)"/>
        <path id="DejaVuSans-33" d="M 2597 2516 
Q 3050 2419 3304 2112 
Q 3559 1806 3559 1356 
Q 3559 666 3084 287 
Q 2609 -91 1734 -91 
Q 1441 -91 1130 -33 
Q 819 25 488 141 
L 488 750 
Q 750 597 1062 519 
Q 1375 441 1716 441 
Q 2309 441 2620 675 
Q 2931 909 2931 1356 
Q 2931 1769 2642 2001 
Q 2353 2234 1838 2234 
L 1294 2234 
L 1294 2753 
L 1863 2753 
Q 2328 2753 2575 2939 
Q 2822 3125 2822 3475 
Q 2822 3834 2567 4026 
Q 2313 4219 1838 4219 
Q 1578 4219 1281 4162 
Q 984 4106 628 3988 
L 628 4550 
Q 988 4650 1302 4700 
Q 1616 4750 1894 4750 
Q 2613 4750 3031 4423 
Q 3450 4097 3450 3541 
Q 3450 3153 3228 2886 
Q 3006 2619 2597 2516 
z
" transform="scale(0.015625)"/>
       </defs>
       <use xlink:href="#DejaVuSans-48"/>
       <use xlink:href="#DejaVuSans-42" x="75.195312"/>
       <use xlink:href="#DejaVuSans-33" x="143.798828"/>
       <use xlink:href="#DejaVuSans-33" x="207.421875"/>
      </g>
     </g>
    </g>
    <g id="xtick_7">
     <g id="line2d_7">
      <g>
       <use xlink:href="#m2bc0879d8d" x="357.671374" y="352.8" style="stroke: #000000; stroke-width: 0.8"/>
      </g>
     </g>
     <g id="text_7">
      <!-- NFXL1 -->
      <g transform="translate(360.982624 398.220625)rotate(-90)scale(0.12 -0.12)">
       <defs>
        <path id="DejaVuSans-4e" d="M 628 4666 
L 1478 4666 
L 3547 763 
L 3547 4666 
L 4159 4666 
L 4159 0 
L 3309 0 
L 1241 3903 
L 1241 0 
L 628 0 
L 628 4666 
z
" transform="scale(0.015625)"/>
        <path id="DejaVuSans-46" d="M 628 4666 
L 3309 4666 
L 3309 4134 
L 1259 4134 
L 1259 2759 
L 3109 2759 
L 3109 2228 
L 1259 2228 
L 1259 0 
L 628 0 
L 628 4666 
z
" transform="scale(0.015625)"/>
       </defs>
       <use xlink:href="#DejaVuSans-4e"/>
       <use xlink:href="#DejaVuSans-46" x="74.804688"/>
       <use xlink:href="#DejaVuSans-58" x="132.324219"/>
       <use xlink:href="#DejaVuSans-4c" x="200.830078"/>
       <use xlink:href="#DejaVuSans-31" x="256.542969"/>
      </g>
     </g>
    </g>
    <g id="xtick_8">
     <g id="line2d_8">
      <g>
       <use xlink:href="#m2bc0879d8d" x="397.357499" y="352.8" style="stroke: #000000; stroke-width: 0.8"/>
      </g>
     </g>
     <g id="text_8">
      <!-- AT5G61590 -->
      <g transform="translate(400.668749 429.51625)rotate(-90)scale(0.12 -0.12)">
       <defs>
        <path id="DejaVuSans-41" d="M 2188 4044 
L 1331 1722 
L 3047 1722 
L 2188 4044 
z
M 1831 4666 
L 2547 4666 
L 4325 0 
L 3669 0 
L 3244 1197 
L 1141 1197 
L 716 0 
L 50 0 
L 1831 4666 
z
" transform="scale(0.015625)"/>
        <path id="DejaVuSans-54" d="M -19 4666 
L 3928 4666 
L 3928 4134 
L 2272 4134 
L 2272 0 
L 1638 0 
L 1638 4134 
L -19 4134 
L -19 4666 
z
" transform="scale(0.015625)"/>
        <path id="DejaVuSans-35" d="M 691 4666 
L 3169 4666 
L 3169 4134 
L 1269 4134 
L 1269 2991 
Q 1406 3038 1543 3061 
Q 1681 3084 1819 3084 
Q 2600 3084 3056 2656 
Q 3513 2228 3513 1497 
Q 3513 744 3044 326 
Q 2575 -91 1722 -91 
Q 1428 -91 1123 -41 
Q 819 9 494 109 
L 494 744 
Q 775 591 1075 516 
Q 1375 441 1709 441 
Q 2250 441 2565 725 
Q 2881 1009 2881 1497 
Q 2881 1984 2565 2268 
Q 2250 2553 1709 2553 
Q 1456 2553 1204 2497 
Q 953 2441 691 2322 
L 691 4666 
z
" transform="scale(0.015625)"/>
        <path id="DejaVuSans-47" d="M 3809 666 
L 3809 1919 
L 2778 1919 
L 2778 2438 
L 4434 2438 
L 4434 434 
Q 4069 175 3628 42 
Q 3188 -91 2688 -91 
Q 1594 -91 976 548 
Q 359 1188 359 2328 
Q 359 3472 976 4111 
Q 1594 4750 2688 4750 
Q 3144 4750 3555 4637 
Q 3966 4525 4313 4306 
L 4313 3634 
Q 3963 3931 3569 4081 
Q 3175 4231 2741 4231 
Q 1884 4231 1454 3753 
Q 1025 3275 1025 2328 
Q 1025 1384 1454 906 
Q 1884 428 2741 428 
Q 3075 428 3337 486 
Q 3600 544 3809 666 
z
" transform="scale(0.015625)"/>
        <path id="DejaVuSans-36" d="M 2113 2584 
Q 1688 2584 1439 2293 
Q 1191 2003 1191 1497 
Q 1191 994 1439 701 
Q 1688 409 2113 409 
Q 2538 409 2786 701 
Q 3034 994 3034 1497 
Q 3034 2003 2786 2293 
Q 2538 2584 2113 2584 
z
M 3366 4563 
L 3366 3988 
Q 3128 4100 2886 4159 
Q 2644 4219 2406 4219 
Q 1781 4219 1451 3797 
Q 1122 3375 1075 2522 
Q 1259 2794 1537 2939 
Q 1816 3084 2150 3084 
Q 2853 3084 3261 2657 
Q 3669 2231 3669 1497 
Q 3669 778 3244 343 
Q 2819 -91 2113 -91 
Q 1303 -91 875 529 
Q 447 1150 447 2328 
Q 447 3434 972 4092 
Q 1497 4750 2381 4750 
Q 2619 4750 2861 4703 
Q 3103 4656 3366 4563 
z
" transform="scale(0.015625)"/>
        <path id="DejaVuSans-30" d="M 2034 4250 
Q 1547 4250 1301 3770 
Q 1056 3291 1056 2328 
Q 1056 1369 1301 889 
Q 1547 409 2034 409 
Q 2525 409 2770 889 
Q 3016 1369 3016 2328 
Q 3016 3291 2770 3770 
Q 2525 4250 2034 4250 
z
M 2034 4750 
Q 2819 4750 3233 4129 
Q 3647 3509 3647 2328 
Q 3647 1150 3233 529 
Q 2819 -91 2034 -91 
Q 1250 -91 836 529 
Q 422 1150 422 2328 
Q 422 3509 836 4129 
Q 1250 4750 2034 4750 
z
" transform="scale(0.015625)"/>
       </defs>
       <use xlink:href="#DejaVuSans-41"/>
       <use xlink:href="#DejaVuSans-54" x="60.658203"/>
       <use xlink:href="#DejaVuSans-35" x="121.742188"/>
       <use xlink:href="#DejaVuSans-47" x="185.365234"/>
       <use xlink:href="#DejaVuSans-36" x="262.855469"/>
       <use xlink:href="#DejaVuSans-31" x="326.478516"/>
       <use xlink:href="#DejaVuSans-35" x="390.101562"/>
       <use xlink:href="#DejaVuSans-39" x="453.724609"/>
       <use xlink:href="#DejaVuSans-30" x="517.347656"/>
      </g>
     </g>
    </g>
    <g id="xtick_9">
     <g id="line2d_9">
      <g>
       <use xlink:href="#m2bc0879d8d" x="437.043623" y="352.8" style="stroke: #000000; stroke-width: 0.8"/>
      </g>
     </g>
     <g id="text_9">
      <!-- WRI4 -->
      <g transform="translate(440.354873 391.178125)rotate(-90)scale(0.12 -0.12)">
       <defs>
        <path id="DejaVuSans-57" d="M 213 4666 
L 850 4666 
L 1831 722 
L 2809 4666 
L 3519 4666 
L 4500 722 
L 5478 4666 
L 6119 4666 
L 4947 0 
L 4153 0 
L 3169 4050 
L 2175 0 
L 1381 0 
L 213 4666 
z
" transform="scale(0.015625)"/>
        <path id="DejaVuSans-49" d="M 628 4666 
L 1259 4666 
L 1259 0 
L 628 0 
L 628 4666 
z
" transform="scale(0.015625)"/>
       </defs>
       <use xlink:href="#DejaVuSans-57"/>
       <use xlink:href="#DejaVuSans-52" x="98.876953"/>
       <use xlink:href="#DejaVuSans-49" x="168.359375"/>
       <use xlink:href="#DejaVuSans-34" x="197.851562"/>
      </g>
     </g>
    </g>
    <g id="xtick_10">
     <g id="line2d_10">
      <g>
       <use xlink:href="#m2bc0879d8d" x="476.729747" y="352.8" style="stroke: #000000; stroke-width: 0.8"/>
      </g>
     </g>
     <g id="text_10">
      <!-- HB6 -->
      <g transform="translate(480.040997 384.6925)rotate(-90)scale(0.12 -0.12)">
       <use xlink:href="#DejaVuSans-48"/>
       <use xlink:href="#DejaVuSans-42" x="75.195312"/>
       <use xlink:href="#DejaVuSans-36" x="143.798828"/>
      </g>
     </g>
    </g>
   </g>
   <g id="matplotlib.axis_2">
    <g id="ytick_1">
     <g id="line2d_11">
      <defs>
       <path id="m79839b3ef9" d="M 0 0 
L -3.5 0 
" style="stroke: #000000; stroke-width: 0.8"/>
      </defs>
      <g>
       <use xlink:href="#m79839b3ef9" x="90.782187" y="326.802712" style="stroke: #000000; stroke-width: 0.8"/>
      </g>
     </g>
     <g id="text_11">
      <!-- 0.03 -->
      <g transform="translate(28.620625 333.641306)scale(0.18 -0.18)">
       <defs>
        <path id="DejaVuSans-2212" d="M 678 2272 
L 4684 2272 
L 4684 1741 
L 678 1741 
L 678 2272 
z
" transform="scale(0.015625)"/>
        <path id="DejaVuSans-2e" d="M 684 794 
L 1344 794 
L 1344 0 
L 684 0 
L 684 794 
z
" transform="scale(0.015625)"/>
       </defs>
       <use xlink:href="#DejaVuSans-2212"/>
       <use xlink:href="#DejaVuSans-30" x="83.789062"/>
       <use xlink:href="#DejaVuSans-2e" x="147.412109"/>
       <use xlink:href="#DejaVuSans-30" x="179.199219"/>
       <use xlink:href="#DejaVuSans-33" x="242.822266"/>
      </g>
     </g>
    </g>
    <g id="ytick_2">
     <g id="line2d_12">
      <g>
       <use xlink:href="#m79839b3ef9" x="90.782187" y="285.248199" style="stroke: #000000; stroke-width: 0.8"/>
      </g>
     </g>
     <g id="text_12">
      <!-- 0.02 -->
      <g transform="translate(28.620625 292.086792)scale(0.18 -0.18)">
       <use xlink:href="#DejaVuSans-2212"/>
       <use xlink:href="#DejaVuSans-30" x="83.789062"/>
       <use xlink:href="#DejaVuSans-2e" x="147.412109"/>
       <use xlink:href="#DejaVuSans-30" x="179.199219"/>
       <use xlink:href="#DejaVuSans-32" x="242.822266"/>
      </g>
     </g>
    </g>
    <g id="ytick_3">
     <g id="line2d_13">
      <g>
       <use xlink:href="#m79839b3ef9" x="90.782187" y="243.693685" style="stroke: #000000; stroke-width: 0.8"/>
      </g>
     </g>
     <g id="text_13">
      <!-- 0.01 -->
      <g transform="translate(28.620625 250.532279)scale(0.18 -0.18)">
       <use xlink:href="#DejaVuSans-2212"/>
       <use xlink:href="#DejaVuSans-30" x="83.789062"/>
       <use xlink:href="#DejaVuSans-2e" x="147.412109"/>
       <use xlink:href="#DejaVuSans-30" x="179.199219"/>
       <use xlink:href="#DejaVuSans-31" x="242.822266"/>
      </g>
     </g>
    </g>
    <g id="ytick_4">
     <g id="line2d_14">
      <g>
       <use xlink:href="#m79839b3ef9" x="90.782187" y="202.139172" style="stroke: #000000; stroke-width: 0.8"/>
      </g>
     </g>
     <g id="text_14">
      <!-- 0.00 -->
      <g transform="translate(43.704062 208.977766)scale(0.18 -0.18)">
       <use xlink:href="#DejaVuSans-30"/>
       <use xlink:href="#DejaVuSans-2e" x="63.623047"/>
       <use xlink:href="#DejaVuSans-30" x="95.410156"/>
       <use xlink:href="#DejaVuSans-30" x="159.033203"/>
      </g>
     </g>
    </g>
    <g id="ytick_5">
     <g id="line2d_15">
      <g>
       <use xlink:href="#m79839b3ef9" x="90.782187" y="160.584659" style="stroke: #000000; stroke-width: 0.8"/>
      </g>
     </g>
     <g id="text_15">
      <!-- 0.01 -->
      <g transform="translate(43.704062 167.423252)scale(0.18 -0.18)">
       <use xlink:href="#DejaVuSans-30"/>
       <use xlink:href="#DejaVuSans-2e" x="63.623047"/>
       <use xlink:href="#DejaVuSans-30" x="95.410156"/>
       <use xlink:href="#DejaVuSans-31" x="159.033203"/>
      </g>
     </g>
    </g>
    <g id="ytick_6">
     <g id="line2d_16">
      <g>
       <use xlink:href="#m79839b3ef9" x="90.782187" y="119.030145" style="stroke: #000000; stroke-width: 0.8"/>
      </g>
     </g>
     <g id="text_16">
      <!-- 0.02 -->
      <g transform="translate(43.704062 125.868739)scale(0.18 -0.18)">
       <use xlink:href="#DejaVuSans-30"/>
       <use xlink:href="#DejaVuSans-2e" x="63.623047"/>
       <use xlink:href="#DejaVuSans-30" x="95.410156"/>
       <use xlink:href="#DejaVuSans-32" x="159.033203"/>
      </g>
     </g>
    </g>
    <g id="ytick_7">
     <g id="line2d_17">
      <g>
       <use xlink:href="#m79839b3ef9" x="90.782187" y="77.475632" style="stroke: #000000; stroke-width: 0.8"/>
      </g>
     </g>
     <g id="text_17">
      <!-- 0.03 -->
      <g transform="translate(43.704062 84.314225)scale(0.18 -0.18)">
       <use xlink:href="#DejaVuSans-30"/>
       <use xlink:href="#DejaVuSans-2e" x="63.623047"/>
       <use xlink:href="#DejaVuSans-30" x="95.410156"/>
       <use xlink:href="#DejaVuSans-33" x="159.033203"/>
      </g>
     </g>
    </g>
    <g id="ytick_8">
     <g id="line2d_18">
      <g>
       <use xlink:href="#m79839b3ef9" x="90.782187" y="35.921118" style="stroke: #000000; stroke-width: 0.8"/>
      </g>
     </g>
     <g id="text_18">
      <!-- 0.04 -->
      <g transform="translate(43.704062 42.759712)scale(0.18 -0.18)">
       <use xlink:href="#DejaVuSans-30"/>
       <use xlink:href="#DejaVuSans-2e" x="63.623047"/>
       <use xlink:href="#DejaVuSans-30" x="95.410156"/>
       <use xlink:href="#DejaVuSans-34" x="159.033203"/>
      </g>
     </g>
    </g>
    <g id="text_19">
     <!-- Coefficients of gene expression -->
     <g transform="translate(20.877187 321.366094)rotate(-90)scale(0.18 -0.18)">
      <defs>
       <path id="DejaVuSans-6f" d="M 1959 3097 
Q 1497 3097 1228 2736 
Q 959 2375 959 1747 
Q 959 1119 1226 758 
Q 1494 397 1959 397 
Q 2419 397 2687 759 
Q 2956 1122 2956 1747 
Q 2956 2369 2687 2733 
Q 2419 3097 1959 3097 
z
M 1959 3584 
Q 2709 3584 3137 3096 
Q 3566 2609 3566 1747 
Q 3566 888 3137 398 
Q 2709 -91 1959 -91 
Q 1206 -91 779 398 
Q 353 888 353 1747 
Q 353 2609 779 3096 
Q 1206 3584 1959 3584 
z
" transform="scale(0.015625)"/>
       <path id="DejaVuSans-65" d="M 3597 1894 
L 3597 1613 
L 953 1613 
Q 991 1019 1311 708 
Q 1631 397 2203 397 
Q 2534 397 2845 478 
Q 3156 559 3463 722 
L 3463 178 
Q 3153 47 2828 -22 
Q 2503 -91 2169 -91 
Q 1331 -91 842 396 
Q 353 884 353 1716 
Q 353 2575 817 3079 
Q 1281 3584 2069 3584 
Q 2775 3584 3186 3129 
Q 3597 2675 3597 1894 
z
M 3022 2063 
Q 3016 2534 2758 2815 
Q 2500 3097 2075 3097 
Q 1594 3097 1305 2825 
Q 1016 2553 972 2059 
L 3022 2063 
z
" transform="scale(0.015625)"/>
       <path id="DejaVuSans-66" d="M 2375 4863 
L 2375 4384 
L 1825 4384 
Q 1516 4384 1395 4259 
Q 1275 4134 1275 3809 
L 1275 3500 
L 2222 3500 
L 2222 3053 
L 1275 3053 
L 1275 0 
L 697 0 
L 697 3053 
L 147 3053 
L 147 3500 
L 697 3500 
L 697 3744 
Q 697 4328 969 4595 
Q 1241 4863 1831 4863 
L 2375 4863 
z
" transform="scale(0.015625)"/>
       <path id="DejaVuSans-69" d="M 603 3500 
L 1178 3500 
L 1178 0 
L 603 0 
L 603 3500 
z
M 603 4863 
L 1178 4863 
L 1178 4134 
L 603 4134 
L 603 4863 
z
" transform="scale(0.015625)"/>
       <path id="DejaVuSans-63" d="M 3122 3366 
L 3122 2828 
Q 2878 2963 2633 3030 
Q 2388 3097 2138 3097 
Q 1578 3097 1268 2742 
Q 959 2388 959 1747 
Q 959 1106 1268 751 
Q 1578 397 2138 397 
Q 2388 397 2633 464 
Q 2878 531 3122 666 
L 3122 134 
Q 2881 22 2623 -34 
Q 2366 -91 2075 -91 
Q 1284 -91 818 406 
Q 353 903 353 1747 
Q 353 2603 823 3093 
Q 1294 3584 2113 3584 
Q 2378 3584 2631 3529 
Q 2884 3475 3122 3366 
z
" transform="scale(0.015625)"/>
       <path id="DejaVuSans-6e" d="M 3513 2113 
L 3513 0 
L 2938 0 
L 2938 2094 
Q 2938 2591 2744 2837 
Q 2550 3084 2163 3084 
Q 1697 3084 1428 2787 
Q 1159 2491 1159 1978 
L 1159 0 
L 581 0 
L 581 3500 
L 1159 3500 
L 1159 2956 
Q 1366 3272 1645 3428 
Q 1925 3584 2291 3584 
Q 2894 3584 3203 3211 
Q 3513 2838 3513 2113 
z
" transform="scale(0.015625)"/>
       <path id="DejaVuSans-74" d="M 1172 4494 
L 1172 3500 
L 2356 3500 
L 2356 3053 
L 1172 3053 
L 1172 1153 
Q 1172 725 1289 603 
Q 1406 481 1766 481 
L 2356 481 
L 2356 0 
L 1766 0 
Q 1100 0 847 248 
Q 594 497 594 1153 
L 594 3053 
L 172 3053 
L 172 3500 
L 594 3500 
L 594 4494 
L 1172 4494 
z
" transform="scale(0.015625)"/>
       <path id="DejaVuSans-73" d="M 2834 3397 
L 2834 2853 
Q 2591 2978 2328 3040 
Q 2066 3103 1784 3103 
Q 1356 3103 1142 2972 
Q 928 2841 928 2578 
Q 928 2378 1081 2264 
Q 1234 2150 1697 2047 
L 1894 2003 
Q 2506 1872 2764 1633 
Q 3022 1394 3022 966 
Q 3022 478 2636 193 
Q 2250 -91 1575 -91 
Q 1294 -91 989 -36 
Q 684 19 347 128 
L 347 722 
Q 666 556 975 473 
Q 1284 391 1588 391 
Q 1994 391 2212 530 
Q 2431 669 2431 922 
Q 2431 1156 2273 1281 
Q 2116 1406 1581 1522 
L 1381 1569 
Q 847 1681 609 1914 
Q 372 2147 372 2553 
Q 372 3047 722 3315 
Q 1072 3584 1716 3584 
Q 2034 3584 2315 3537 
Q 2597 3491 2834 3397 
z
" transform="scale(0.015625)"/>
       <path id="DejaVuSans-20" transform="scale(0.015625)"/>
       <path id="DejaVuSans-67" d="M 2906 1791 
Q 2906 2416 2648 2759 
Q 2391 3103 1925 3103 
Q 1463 3103 1205 2759 
Q 947 2416 947 1791 
Q 947 1169 1205 825 
Q 1463 481 1925 481 
Q 2391 481 2648 825 
Q 2906 1169 2906 1791 
z
M 3481 434 
Q 3481 -459 3084 -895 
Q 2688 -1331 1869 -1331 
Q 1566 -1331 1297 -1286 
Q 1028 -1241 775 -1147 
L 775 -588 
Q 1028 -725 1275 -790 
Q 1522 -856 1778 -856 
Q 2344 -856 2625 -561 
Q 2906 -266 2906 331 
L 2906 616 
Q 2728 306 2450 153 
Q 2172 0 1784 0 
Q 1141 0 747 490 
Q 353 981 353 1791 
Q 353 2603 747 3093 
Q 1141 3584 1784 3584 
Q 2172 3584 2450 3431 
Q 2728 3278 2906 2969 
L 2906 3500 
L 3481 3500 
L 3481 434 
z
" transform="scale(0.015625)"/>
       <path id="DejaVuSans-78" d="M 3513 3500 
L 2247 1797 
L 3578 0 
L 2900 0 
L 1881 1375 
L 863 0 
L 184 0 
L 1544 1831 
L 300 3500 
L 978 3500 
L 1906 2253 
L 2834 3500 
L 3513 3500 
z
" transform="scale(0.015625)"/>
       <path id="DejaVuSans-70" d="M 1159 525 
L 1159 -1331 
L 581 -1331 
L 581 3500 
L 1159 3500 
L 1159 2969 
Q 1341 3281 1617 3432 
Q 1894 3584 2278 3584 
Q 2916 3584 3314 3078 
Q 3713 2572 3713 1747 
Q 3713 922 3314 415 
Q 2916 -91 2278 -91 
Q 1894 -91 1617 61 
Q 1341 213 1159 525 
z
M 3116 1747 
Q 3116 2381 2855 2742 
Q 2594 3103 2138 3103 
Q 1681 3103 1420 2742 
Q 1159 2381 1159 1747 
Q 1159 1113 1420 752 
Q 1681 391 2138 391 
Q 2594 391 2855 752 
Q 3116 1113 3116 1747 
z
" transform="scale(0.015625)"/>
       <path id="DejaVuSans-72" d="M 2631 2963 
Q 2534 3019 2420 3045 
Q 2306 3072 2169 3072 
Q 1681 3072 1420 2755 
Q 1159 2438 1159 1844 
L 1159 0 
L 581 0 
L 581 3500 
L 1159 3500 
L 1159 2956 
Q 1341 3275 1631 3429 
Q 1922 3584 2338 3584 
Q 2397 3584 2469 3576 
Q 2541 3569 2628 3553 
L 2631 2963 
z
" transform="scale(0.015625)"/>
      </defs>
      <use xlink:href="#DejaVuSans-43"/>
      <use xlink:href="#DejaVuSans-6f" x="69.824219"/>
      <use xlink:href="#DejaVuSans-65" x="131.005859"/>
      <use xlink:href="#DejaVuSans-66" x="192.529297"/>
      <use xlink:href="#DejaVuSans-66" x="227.734375"/>
      <use xlink:href="#DejaVuSans-69" x="262.939453"/>
      <use xlink:href="#DejaVuSans-63" x="290.722656"/>
      <use xlink:href="#DejaVuSans-69" x="345.703125"/>
      <use xlink:href="#DejaVuSans-65" x="373.486328"/>
      <use xlink:href="#DejaVuSans-6e" x="435.009766"/>
      <use xlink:href="#DejaVuSans-74" x="498.388672"/>
      <use xlink:href="#DejaVuSans-73" x="537.597656"/>
      <use xlink:href="#DejaVuSans-20" x="589.697266"/>
      <use xlink:href="#DejaVuSans-6f" x="621.484375"/>
      <use xlink:href="#DejaVuSans-66" x="682.666016"/>
      <use xlink:href="#DejaVuSans-20" x="717.871094"/>
      <use xlink:href="#DejaVuSans-67" x="749.658203"/>
      <use xlink:href="#DejaVuSans-65" x="813.134766"/>
      <use xlink:href="#DejaVuSans-6e" x="874.658203"/>
      <use xlink:href="#DejaVuSans-65" x="938.037109"/>
      <use xlink:href="#DejaVuSans-20" x="999.560547"/>
      <use xlink:href="#DejaVuSans-65" x="1031.347656"/>
      <use xlink:href="#DejaVuSans-78" x="1091.121094"/>
      <use xlink:href="#DejaVuSans-70" x="1150.300781"/>
      <use xlink:href="#DejaVuSans-72" x="1213.777344"/>
      <use xlink:href="#DejaVuSans-65" x="1252.640625"/>
      <use xlink:href="#DejaVuSans-73" x="1314.164062"/>
      <use xlink:href="#DejaVuSans-73" x="1366.263672"/>
      <use xlink:href="#DejaVuSans-69" x="1418.363281"/>
      <use xlink:href="#DejaVuSans-6f" x="1446.146484"/>
      <use xlink:href="#DejaVuSans-6e" x="1507.328125"/>
     </g>
    </g>
   </g>
   <g id="LineCollection_1">
    <path d="M 119.554628 317.334551 
L 119.554628 304.032694 
" clip-path="url(#p1704f9a80b)" style="fill: none; stroke: #000000; stroke-width: 5"/>
    <path d="M 159.240752 313.842724 
L 159.240752 306.772025 
" clip-path="url(#p1704f9a80b)" style="fill: none; stroke: #000000; stroke-width: 5"/>
    <path d="M 198.926876 265.524545 
L 198.926876 256.381469 
" clip-path="url(#p1704f9a80b)" style="fill: none; stroke: #000000; stroke-width: 5"/>
    <path d="M 238.613001 222.131122 
L 238.613001 219.233044 
" clip-path="url(#p1704f9a80b)" style="fill: none; stroke: #000000; stroke-width: 5"/>
    <path d="M 278.299125 180.455703 
L 278.299125 175.802007 
" clip-path="url(#p1704f9a80b)" style="fill: none; stroke: #000000; stroke-width: 5"/>
    <path d="M 317.98525 174.674274 
L 317.98525 163.750103 
" clip-path="url(#p1704f9a80b)" style="fill: none; stroke: #000000; stroke-width: 5"/>
    <path d="M 357.671374 169.054204 
L 357.671374 156.44326 
" clip-path="url(#p1704f9a80b)" style="fill: none; stroke: #000000; stroke-width: 5"/>
    <path d="M 397.357499 143.585478 
L 397.357499 141.637155 
" clip-path="url(#p1704f9a80b)" style="fill: none; stroke: #000000; stroke-width: 5"/>
    <path d="M 437.043623 142.533637 
L 437.043623 126.625909 
" clip-path="url(#p1704f9a80b)" style="fill: none; stroke: #000000; stroke-width: 5"/>
    <path d="M 476.729747 62.286864 
L 476.729747 52.158674 
" clip-path="url(#p1704f9a80b)" style="fill: none; stroke: #000000; stroke-width: 5"/>
   </g>
   <g id="LineCollection_2">
    <path d="M 119.554628 317.334551 
L 119.554628 311.413736 
" clip-path="url(#p1704f9a80b)" style="fill: none; stroke: #000000"/>
    <path d="M 159.240752 324.448773 
L 159.240752 305.032186 
" clip-path="url(#p1704f9a80b)" style="fill: none; stroke: #000000"/>
    <path d="M 198.926876 265.524545 
L 198.926876 246.752717 
" clip-path="url(#p1704f9a80b)" style="fill: none; stroke: #000000"/>
    <path d="M 238.613001 222.131122 
L 238.613001 221.629383 
" clip-path="url(#p1704f9a80b)" style="fill: none; stroke: #000000"/>
    <path d="M 278.299125 180.455703 
L 278.299125 183.188804 
" clip-path="url(#p1704f9a80b)" style="fill: none; stroke: #000000"/>
    <path d="M 317.98525 174.674274 
L 317.98525 167.022103 
" clip-path="url(#p1704f9a80b)" style="fill: none; stroke: #000000"/>
    <path d="M 357.671374 169.054204 
L 357.671374 175.456633 
" clip-path="url(#p1704f9a80b)" style="fill: none; stroke: #000000"/>
    <path d="M 397.357499 143.585478 
L 397.357499 141.831321 
" clip-path="url(#p1704f9a80b)" style="fill: none; stroke: #000000"/>
    <path d="M 437.043623 142.533637 
L 437.043623 153.34037 
" clip-path="url(#p1704f9a80b)" style="fill: none; stroke: #000000"/>
    <path d="M 476.729747 77.47915 
L 476.729747 51.524637 
" clip-path="url(#p1704f9a80b)" style="fill: none; stroke: #000000"/>
   </g>
   <g id="line2d_19">
    <path d="M 90.782187 202.139172 
L 505.502187 202.139172 
" clip-path="url(#p1704f9a80b)" style="fill: none; stroke-dasharray: 5.55,2.4; stroke-dashoffset: 0; stroke: #000000; stroke-width: 1.5"/>
   </g>
   <g id="patch_3">
    <path d="M 90.782187 352.8 
L 90.782187 7.2 
" style="fill: none; stroke: #000000; stroke-width: 0.8; stroke-linejoin: miter; stroke-linecap: square"/>
   </g>
   <g id="patch_4">
    <path d="M 505.502187 352.8 
L 505.502187 7.2 
" style="fill: none; stroke: #000000; stroke-width: 0.8; stroke-linejoin: miter; stroke-linecap: square"/>
   </g>
   <g id="patch_5">
    <path d="M 90.782187 352.8 
L 505.502187 352.8 
" style="fill: none; stroke: #000000; stroke-width: 0.8; stroke-linejoin: miter; stroke-linecap: square"/>
   </g>
   <g id="patch_6">
    <path d="M 90.782187 7.2 
L 505.502187 7.2 
" style="fill: none; stroke: #000000; stroke-width: 0.8; stroke-linejoin: miter; stroke-linecap: square"/>
   </g>
   <g id="PathCollection_1">
    <defs>
     <path id="mc03f8d2c61" d="M 0 2.738613 
C 0.726289 2.738613 1.422928 2.450055 1.936492 1.936492 
C 2.450055 1.422928 2.738613 0.726289 2.738613 0 
C 2.738613 -0.726289 2.450055 -1.422928 1.936492 -1.936492 
C 1.422928 -2.450055 0.726289 -2.738613 0 -2.738613 
C -0.726289 -2.738613 -1.422928 -2.450055 -1.936492 -1.936492 
C -2.450055 -1.422928 -2.738613 -0.726289 -2.738613 0 
C -2.738613 0.726289 -2.450055 1.422928 -1.936492 1.936492 
C -1.422928 2.450055 -0.726289 2.738613 0 2.738613 
z
" style="stroke: #ffffff"/>
    </defs>
    <g clip-path="url(#p1704f9a80b)">
     <use xlink:href="#mc03f8d2c61" x="119.554628" y="315.285368" style="fill: #ffffff; stroke: #ffffff"/>
     <use xlink:href="#mc03f8d2c61" x="159.240752" y="309.749102" style="fill: #ffffff; stroke: #ffffff"/>
     <use xlink:href="#mc03f8d2c61" x="198.926876" y="262.36719" style="fill: #ffffff; stroke: #ffffff"/>
     <use xlink:href="#mc03f8d2c61" x="238.613001" y="221.647796" style="fill: #ffffff; stroke: #ffffff"/>
     <use xlink:href="#mc03f8d2c61" x="278.299125" y="177.650505" style="fill: #ffffff; stroke: #ffffff"/>
     <use xlink:href="#mc03f8d2c61" x="317.98525" y="172.212995" style="fill: #ffffff; stroke: #ffffff"/>
     <use xlink:href="#mc03f8d2c61" x="357.671374" y="162.140048" style="fill: #ffffff; stroke: #ffffff"/>
     <use xlink:href="#mc03f8d2c61" x="397.357499" y="142.606433" style="fill: #ffffff; stroke: #ffffff"/>
     <use xlink:href="#mc03f8d2c61" x="437.043623" y="134.939589" style="fill: #ffffff; stroke: #ffffff"/>
     <use xlink:href="#mc03f8d2c61" x="476.729747" y="58.313116" style="fill: #ffffff; stroke: #ffffff"/>
    </g>
   </g>
  </g>
 </g>
 <defs>
  <clipPath id="p1704f9a80b">
   <rect x="90.782187" y="7.2" width="414.72" height="345.6"/>
  </clipPath>
 </defs>
</svg>
